<?xml version="1.0" encoding="UTF-8" standalone="no"?>
<svg viewBox="0 0 346 39" version="1.1" xmlns="http://www.w3.org/2000/svg" xmlns:xlink="http://www.w3.org/1999/xlink">
    <defs></defs>
    <g id="Page-1" stroke="none" stroke-width="1" fill="none" fill-rule="evenodd">
        <g id="logo-forum" fill="#FFFFFF">
            <g id="Group">
                <path d="M2.8,14.2 C1.1,15.9 0.4,18.2 0.4,21 L0.4,30.2 L4.6,30.2 L4.6,23 L16.3,23 L16.3,18.9 L4.7,18.9 C4.9,17.7 5.4,17 6.1,16.6 C6.7,16.2 7.9,15.9 9.7,15.9 L22.4,15.9 L22.4,11.8 L9.5,11.8 C6.8,11.8 4.5,12.6 2.8,14.2 L2.8,14.2 Z" id="Shape"></path>
                <path d="M32.1,11.8 C29.3,11.8 27.1,12.5 25.4,14.2 C23.7,15.9 23,18.2 23,20.9 L23,30.2 L34,30.2 L35.8,30.2 C38.6,30.2 40.8,29.4 42.5,27.8 C44.2,26.1 44.9,23.9 44.9,21.1 L44.9,11.9 L34,11.9 L32.1,11.9 L32.1,11.8 Z M40.8,15.9 L40.8,20.9 C40.8,23 40.4,24.3 39.6,24.9 C39,25.6 37.7,26.1 35.6,26.1 L34,26.1 L27.2,26.1 L27.2,21.1 C27.2,19 27.6,17.8 28.3,17.1 C28.9,16.5 30.2,16 32.3,16 L34,16 L40.8,16 L40.8,15.9 Z" id="Shape"></path>
                <path d="M156.8,6.7 C156.1,6.7 155.4,6.8 154.8,7 C152.1,7.8 150.3,10 150.3,12.5 L150.3,13.3 C150.3,15.7 148.6,13.9 148.6,15.6 L148.6,16.2 L150.3,16.2 L150.3,28.2 C150.3,31.8 148.7,29.9 148.7,31.3 L148.7,31.8 L154.8,31.8 L158.5,31.8 L158.5,31.3 C158.5,29.9 156.6,31.9 156.6,28.2 L156.6,16.2 L158.1,16.2 L158.1,14.5 L156.6,14.5 L156.6,13.9 C156.6,12 155.4,10.4 155.1,9.2 C155,8.7 155,8 155.7,8 C156.6,7.9 156.9,9.4 156.9,9.7 C157.1,11.2 157.8,11.9 159.1,11.9 C160.3,11.9 161.2,10.7 161.1,9.6 C161,7.8 158.7,6.7 156.8,6.7 L156.8,6.7 Z" id="Shape"></path>
                <path d="M123.1,13.9 C121.4,12.4 119.3,11.7 116.7,11.7 L109.2,11.7 L109.2,12.9 C107.4,12 105,11.6 102.2,11.6 L96.7,11.7 L96.7,30.1 L100.8,30.1 L100.8,15.9 L104,15.9 C106.1,15.9 107.3,16.3 108,17 C108.6,17.7 109.1,18.9 109.1,21 L109.1,30.1 L113.2,30.1 L113.2,15.9 L116.5,15.9 C118.5,15.9 119.8,16.3 120.5,17 C121.2,17.7 121.7,18.9 121.7,21 L121.7,30.1 L125.8,30.1 L125.8,20.1 C125.8,17.5 124.9,15.5 123.1,13.9 L123.1,13.9 Z" id="Shape"></path>
                <path d="M69.2,23 L69.2,11.8 L58.4,11.8 L56.5,11.8 C53.7,11.8 51.5,12.6 49.8,14.2 C48.1,15.9 47.4,18.2 47.4,21 L47.4,30.2 L51.5,30.2 L51.5,23 L57.6,23 L58.5,23.7 L67.6,30.9 L70.2,27.7 L64.2,22.9 L69.2,22.9 L69.2,23 Z M51.7,18.9 C52,17.5 52.5,16.8 53.1,16.5 C53.8,16.1 55.5,15.9 58.4,15.9 L58.7,15.9 L61.9,15.9 C63.2,15.9 64.3,16 65.2,16 L65.2,19 L58.4,19 L51.7,19 L51.7,18.9 Z" id="Shape"></path>
                <path d="M90,26 L86.8,26 L83.6,26.1 C80.6,26.1 78.8,25.8 78.1,25.4 C77.3,25 76.7,24 76.6,21.9 C76.5,21.2 76.5,18 76.5,12.5 L76.5,11.8 L72.4,11.8 L72.4,21 C72.4,23.8 73.2,26 74.8,27.7 C76.4,29.4 78.7,30.1 81.5,30.1 L94.3,30.1 L94.3,11.8 L90,11.8 L90,26 L90,26 Z" id="Shape"></path>
                <path d="M154.8,0.5 L154.5,0.5 C143.9,0.5 135.3,9.1 135.3,19.7 C135.3,30.4 143.9,39 154.5,39 L154.8,39 C165.3,38.9 173.8,30.3 173.8,19.7 C173.8,9.2 165.3,0.6 154.8,0.5 L154.8,0.5 Z M154.8,36.3 L154.5,36.3 C145.4,36.3 138,28.9 138,19.7 C138,10.6 145.4,3.2 154.5,3.2 L154.8,3.2 C163.8,3.3 171.1,10.7 171.1,19.7 C171,28.8 163.8,36.1 154.8,36.3 L154.8,36.3 Z" id="Shape"></path>
                <path d="M292.4,14.3 C290.7,12.8 288.5,12.1 285.9,12.1 L278.5,12.1 L278.5,13.3 C276.7,12.4 274.3,12 271.4,12 L266,12.1 L266,30.5 L270.1,30.5 L270.1,16.2 L273.3,16.2 C275.3,16.2 276.6,16.6 277.3,17.3 C278,18 278.5,19.2 278.5,21.3 L278.5,30.4 L282.6,30.4 L282.6,16.2 L285.8,16.2 C287.9,16.2 289.1,16.6 289.8,17.3 C290.4,18 290.9,19.2 290.9,21.3 L290.9,30.4 L295,30.4 L295,20.4 C295.1,17.9 294.2,15.8 292.4,14.3 L292.4,14.3 Z" id="Shape"></path>
                <path d="M307.9,12.1 C305.1,12.1 302.8,12.8 301.1,14.5 C299.5,16.2 298.7,18.5 298.7,21.3 L298.7,30.5 L302.8,30.5 L302.8,23.4 L309.8,23.4 L316.5,23.4 L316.5,30.5 L320.6,30.5 L320.6,12.1 L309.8,12.1 L307.9,12.1 L307.9,12.1 Z M310.1,16.2 L313.3,16.2 C314.5,16.2 315.7,16.3 316.5,16.3 L316.5,19.3 L309.8,19.3 L303.1,19.3 C303.3,17.9 303.9,17.2 304.5,16.9 C305.3,16.5 307,16.3 309.8,16.3 C309.9,16.2 310,16.2 310.1,16.2 L310.1,16.2 Z" id="Shape"></path>
                <path d="M328.4,19.3 C328.7,18.1 329.2,17.4 329.7,17 C330.3,16.6 331.4,16.3 333.2,16.3 L345.9,16.3 L345.9,12.2 L333.1,12.2 C329.9,12.2 327.3,13.1 325.9,15.1 C324.7,16.8 324,19.3 323.9,22.7 L323.8,23.5 L341.4,23.5 C341,24.7 340.6,25.4 340.1,25.8 C339.5,26.2 338.4,26.5 336.6,26.5 L324,26.5 L324,30.6 L336.8,30.6 C340,30.6 342.5,29.7 344,27.6 C345.2,25.9 345.8,23.4 345.9,20 L346,19.3 L328.4,19.3 L328.4,19.3 Z" id="Shape"></path>
                <path d="M241.2,21.4 C241.2,24.2 242,26.4 243.6,28.1 C245.3,29.8 247.6,30.5 250.3,30.5 L263.1,30.5 L263.1,26.4 L250.4,26.4 C248.6,26.4 247.4,26.1 246.7,25.6 C246.1,25.2 245.6,24.4 245.4,23.4 L256.9,23.4 L256.9,19.3 L245.2,19.3 L245.2,16.3 L263.1,16.3 L263.1,12.2 L241.1,12.2 L241.1,21.4 L241.2,21.4 Z" id="Shape"></path>
                <rect id="Rectangle-path" x="207.9" y="12.1" width="4.1" height="18.4"></rect>
                <path d="M184.4,14.5 C182.7,16.2 182,18.5 182,21.3 L182,30.5 L203.9,30.5 L203.9,26.4 L186.1,26.4 L186.1,21.4 C186.1,19.3 186.5,18.1 187.2,17.4 C187.9,16.8 189.1,16.3 191.2,16.3 L203.9,16.3 L203.9,12.2 L191.2,12.2 C188.4,12.1 186.1,12.9 184.4,14.5 L184.4,14.5 Z" id="Shape"></path>
                <path d="M233.8,24.2 L216,9.9 L216,30.5 L220.1,30.5 L220.1,18.5 L237.9,32.7 L237.9,12.1 L233.8,12.1 L233.8,24.2 Z" id="Shape"></path>
            </g>
        </g>
    </g>
</svg>