<?xml version="1.0" encoding="UTF-8" standalone="no"?>
<svg viewBox="0 0 256 56" version="1.1" xmlns="http://www.w3.org/2000/svg" xmlns:xlink="http://www.w3.org/1999/xlink">
    <defs></defs>
    <g id="Page-1" stroke="none" stroke-width="1" fill="none" fill-rule="evenodd">
        <g id="Group" transform="translate(1.000000, 1.000000)">
            <path d="M252.660248,25.5670141 C252.650594,25.5203662 252.639653,25.475662 252.63,25.4290141 L248.756386,6.8560282 L248.74802,6.8158592 L248.737079,6.7789296 C248.200347,4.8404507 246.931881,3.2693239 244.965792,2.6816901 C244.028762,2.4011549 243.035743,2.3843099 242.079406,2.5760845 C242.064604,2.5786761 242.05302,2.5812676 242.042723,2.5832113 C242.032426,2.5858028 242.019554,2.5883944 242.009257,2.590338 C241.052277,2.803493 240.150644,3.2213803 239.403465,3.8582535 C237.839604,5.1922535 237.306733,7.1449859 237.589901,9.139831 L237.591832,9.1534366 L237.597624,9.1897183 L238.146584,11.8246761 C236.120644,11.5253521 234.060594,11.5914366 232.047525,12.0170986 C227.082426,13.0666761 223.060792,16.1519155 220.657723,20.2232394 C217.485594,15.9251549 212.404653,13.1385915 206.678218,13.1385915 C201.904257,13.1385915 197.579505,15.0757746 194.434406,18.2096056 C191.32599,13.4243099 185.95995,10.2593803 179.858317,10.2593803 C174.380297,10.2593803 169.495,12.8107606 166.303564,16.7946197 C162.091436,11.5907887 155.088812,9.070507 148.24,10.9429014 C144.10703,12.0728169 140.730248,14.613831 138.475842,17.9076901 C138.498366,17.6200282 138.520248,17.3330141 138.542772,17.0453521 L138.544059,17.034338 L138.544703,17.0233239 C138.70302,13.843493 136.433812,11.2765634 133.27198,11.0452676 C130.15198,10.8165634 127.515941,13.0051268 127.213465,16.1409014 L127.211535,16.1564507 C126.847921,20.852338 126.484307,25.5482254 126.121337,30.2441127 C125.919901,30.0141127 125.698515,29.7931831 125.448168,29.5858592 C125.228069,29.4031549 124.995099,29.2379437 124.750545,29.0902254 L124.719653,29.0714366 L123.855347,28.649662 C121.692327,27.5968451 119.520297,26.5518028 117.325743,25.5689577 C116.142228,25.0389859 114.954208,24.5388169 113.755248,24.0470704 C112.961089,23.721831 112.174653,23.3914085 111.390792,23.0525634 C112.596832,23.0583944 113.791287,23.4166761 114.810693,24.1338873 C116.386139,25.3026761 118.295594,25.7996056 120.194752,25.1899437 C121.796584,24.676169 123.113317,23.4412958 123.77104,21.8883099 C124.914653,19.1898592 123.811584,16.5354648 121.53401,14.8768732 C114.08797,9.502 103.926733,10.9908451 98.1507426,17.5869859 C97.665495,17.3511549 97.1429208,17.1671549 96.5817327,17.0550704 L96.560495,17.0505352 L95.2115842,16.8607042 C95.2025743,16.8587606 95.1942079,16.8574648 95.1845545,16.856169 C95.1620297,16.8529296 95.1517327,16.8516338 95.1407921,16.8509859 C95.1008911,16.844507 95.0603465,16.8386761 95.0210891,16.833493 C94.8769307,16.8127606 94.7327723,16.7926761 94.589901,16.7725915 C94.1542079,16.7110423 93.7178713,16.6501408 93.2821782,16.5885915 C93.1438119,16.568507 93.004802,16.5490704 92.8657921,16.5296338 L93.5415347,11.6620563 L93.5428218,11.6510423 C93.8948515,8.4867606 91.7852475,5.7844225 88.6440099,5.3594085 C85.5433168,4.9389296 82.7792079,6.9616338 82.2868812,10.0727887 L81.2848515,17.2831268 C78.0966337,13.2195775 73.1624257,10.6079437 67.6213366,10.6079437 C58.0090594,10.6079437 50.2135644,18.4558028 50.2135644,28.132 C50.2135644,31.0215775 50.9131188,33.7459437 52.144901,36.1496056 C50.1517822,36.1113803 47.8413861,35.566507 46.3695545,34.1379155 C45.554802,33.1719155 45.1133168,31.9972958 44.9936139,30.7410423 C44.904802,29.8022535 45.1088119,28.8459718 45.2343069,27.9188451 C46.0271782,22.048338 46.8213366,16.177831 47.6148515,10.3066761 L47.6161386,10.295662 L47.6174257,10.2852958 C47.9578713,7.1203662 45.8379703,4.4258028 42.694802,4.0118028 C39.5934653,3.6036338 36.8364356,5.6360563 36.3550495,8.748507 L34.0298515,25.9473239 C33.8863366,27.0098592 33.6765347,28.0542535 33.5960891,29.1245634 C32.5966337,27.890338 31.4298515,26.7856901 30.1118317,25.8527324 C31.699505,23.1102254 32.54,20.3735493 32.4183663,17.0926479 C32.3540099,15.3213239 31.5746535,13.7676901 30.0880198,12.7887324 C29.0280693,12.0916056 27.740297,11.7812676 26.4808416,11.8408732 C25.450495,11.8894648 24.4259406,12.1861972 23.5474752,12.7349577 C21.8240099,13.8123944 21.0060396,15.6096338 21.0568812,17.6239155 C21.1308911,20.3314366 19.3282673,22.1714366 16.8936634,22.9871268 C15.4205446,23.3214366 14.0310891,23.7373803 12.6841089,24.3645352 L12.0090099,19.4976056 L12.0070792,19.4878873 C11.6885149,17.5435775 10.3737129,15.8007606 8.52153465,15.1055775 C6.91777228,14.504338 5.07009901,14.6559437 3.57188119,15.4826479 C1.51762376,16.6158028 0.54069307,18.719493 0.74856436,21.0402254 L0.74985149,21.0531831 L0.75371287,21.0875211 L0.755,21.1011268 C1.84391089,28.9476901 2.93282178,36.7949014 4.02108911,44.6421127 L4.02945545,44.6952394 L4.03331683,44.7146761 C4.46965347,46.8358592 5.78316832,48.5339718 7.87925743,49.1701972 C9.6394059,49.706 11.6402475,49.3632676 13.1217327,48.2650986 C14.7319307,47.0729859 15.4816832,45.0736056 15.2821782,43.099493 L15.2802475,43.0845915 L14.5555941,37.8606761 C16.470198,32.3361408 25.2007921,33.3099155 26.0689604,39.2704789 L26.3855941,41.5400282 L26.3907426,41.5672394 C26.935198,44.1561972 28.7905941,46.0415493 31.460099,46.2508169 C32.0077723,46.2942254 32.5612376,46.2598873 33.099901,46.152338 C33.5529703,46.0616338 33.9957426,45.9190986 34.4166337,45.7266761 C36.2559406,44.8850704 37.3512871,43.2789577 37.5990594,41.3871268 C37.7084653,41.5141127 37.815297,41.6423944 37.9292079,41.7667887 C41.9656436,46.1743662 47.9874752,48.1335775 53.8490594,47.492169 C56.3570297,47.2174648 58.0785644,45.3204507 58.5921287,43.1169859 C61.2249505,44.7282817 64.3153465,45.6567042 67.6213366,45.6567042 C73.0581683,45.6567042 77.9125743,43.1441972 81.1046535,39.2115211 C81.7836139,40.6018873 82.659505,41.9080282 83.7394059,43.0962535 C87.7597525,47.5187324 93.7732178,49.5006197 99.637376,48.8805915 C101.918168,48.6395775 103.555396,47.055493 104.226634,45.1157183 C111.752475,48.2987887 120.734059,45.7538873 125.451386,38.9024789 C125.424356,39.2452113 125.39797,39.5872958 125.371584,39.9293803 L125.370941,39.9449296 C125.185594,43.1195775 127.49599,45.6994648 130.642376,45.9294648 C133.798416,46.1607606 136.341782,44.0065352 136.69896,40.8578028 L136.700891,40.8441972 L136.702178,40.8292958 C136.81802,39.327493 136.934505,37.8250423 137.05099,36.3232394 L140.982525,50.8987606 L140.993465,50.9376338 L141.006337,50.9739155 C141.65505,52.8780563 143.011683,54.3720845 145.008663,54.8437465 C145.960495,55.0679155 146.952871,55.0277465 147.896337,54.7802535 C147.910495,54.7763662 147.922079,54.7724789 147.932376,54.7705352 C147.942673,54.7672958 147.954901,54.7634085 147.965198,54.7614648 C148.90802,54.4919437 149.784554,54.0215775 150.493119,53.3432394 C151.977822,51.9191831 152.396139,49.9379437 151.999059,47.9631831 L151.995842,47.9502254 L151.987475,47.9145915 L151.286634,45.3165634 C153.326089,45.4960282 155.380347,45.3087887 157.364455,44.766507 C161.051436,43.7590423 164.134752,41.6281408 166.358267,38.8428732 C169.550347,42.7872113 174.411832,45.3081408 179.858317,45.3081408 C184.632277,45.3081408 188.956386,43.3709577 192.101485,40.2364789 C195.209901,45.0217746 200.575941,48.1873521 206.678218,48.1873521 C213.043069,48.1873521 218.609257,44.743831 221.64495,39.6080282 C225.570693,44.9271831 232.337129,47.768169 239.200743,46.3181972 C248.606436,44.3304789 254.634703,35.037831 252.660248,25.5670141 L252.660248,25.5670141 L252.660248,25.5670141 Z M61.6162376,28.132 C61.6162376,24.7940845 64.3050495,22.0872113 67.6213366,22.0872113 C70.5810891,22.0872113 73.1096535,24.2667042 73.5569307,27.2107042 C73.6032673,27.5152113 73.6257921,27.8236056 73.6257921,28.132 C73.6257921,31.4699155 70.9369802,34.1774366 67.6213366,34.1774366 C64.3050495,34.1774366 61.6162376,31.4699155 61.6162376,28.132 L61.6162376,28.132 L61.6162376,28.132 Z M111.527228,35.0047887 C110.14099,35.1227042 108.731584,34.7741408 107.554505,33.945493 C105.979059,32.7773521 104.069604,32.2797746 102.171089,32.8894366 C100.569257,33.4032113 99.252525,34.6387324 98.5941584,36.1923662 C98.4023762,36.6452394 98.2788119,37.096169 98.2080198,37.5419155 C98.1513861,37.5406197 98.0947525,37.5367324 98.0381188,37.5354366 C96.0314851,37.5004507 93.6895545,36.9484507 92.2067822,35.4991268 C91.3952475,34.5298873 90.9589109,33.3533239 90.8443564,32.0970704 C90.8128218,31.7588732 90.8424257,31.3649577 90.870099,31.0267606 C90.9119307,30.5220563 90.9743564,30.0160563 91.0432178,29.5139437 C91.1185149,28.9567606 91.2047525,28.4008732 91.2884158,27.844338 L94.9805446,28.3807887 L95.0017822,28.3827324 C95.5964356,28.4371549 96.170495,28.4092958 96.7143069,28.3095211 C96.7799505,28.3684789 96.8410891,28.4300282 96.9105941,28.4876901 C97.1963366,28.7248169 97.504604,28.9340845 97.8289604,29.1129014 L97.8617822,29.1303944 L98.804604,29.5366197 L111.527228,35.0047887 L111.527228,35.0047887 Z M200.673119,30.6626479 C200.673119,27.3247324 203.361931,24.6178592 206.678218,24.6178592 C209.63797,24.6178592 212.166535,26.7973521 212.613812,29.7413521 C212.660149,30.0458592 212.682673,30.3542535 212.682673,30.6626479 C212.682673,34.0005634 209.993861,36.7080845 206.678218,36.7080845 C203.361931,36.7080845 200.673119,34.0005634 200.673119,30.6626479 L200.673119,30.6626479 L200.673119,30.6626479 Z M173.853218,27.7840845 C173.853218,24.4455211 176.54203,21.7386479 179.858317,21.7386479 C182.818069,21.7386479 185.346634,23.9181408 185.793911,26.8621408 C185.840248,27.1666479 185.862772,27.4750423 185.862772,27.7840845 C185.862772,31.1213521 183.17396,33.8288732 179.858317,33.8288732 C176.54203,33.8288732 173.853218,31.1213521 173.853218,27.7840845 L173.853218,27.7840845 L173.853218,27.7840845 Z M158.597525,26.2706197 C159.466337,29.4919155 157.576188,32.8136338 154.375743,33.6889296 C151.175941,34.5635775 147.876386,32.6607324 147.007574,29.4394366 C146.138119,26.2181408 148.028267,22.8957746 151.228713,22.0211268 C154.428515,21.1464789 157.728069,23.0493239 158.597525,26.2706197 L158.597525,26.2706197 L158.597525,26.2706197 Z M236.857525,35.083831 C233.612673,35.7699437 230.42896,33.6766197 229.746782,30.4099718 C229.065891,27.1426761 231.145248,23.9369296 234.390099,23.2514648 C237.635594,22.5653521 240.81995,24.6586761 241.500842,27.9253239 C242.181733,31.1926197 240.10302,34.3983662 236.857525,35.083831 L236.857525,35.083831 L236.857525,35.083831 Z" id="Fill-1" fill="#1A1918"></path>
            <path d="M114.147822,22.1688451 C113.128416,21.4516338 111.93396,21.0927042 110.727921,21.0875211 C111.511782,21.4263662 112.298218,21.7567887 113.092376,22.0820282 C114.291337,22.5737746 115.479356,23.0739437 116.662871,23.6039155 C118.856782,24.5867606 121.029455,25.6318028 123.191832,26.6846197 L124.056782,27.1063944 L124.087673,27.1251831 C124.332228,27.2729014 124.565198,27.4381127 124.785297,27.6208169 C127.036485,29.4841408 127.275248,32.3516901 126.012574,34.8836338 C121.187129,44.4568169 108.835842,47.4947606 100.16896,41.2374648 C97.8907426,39.5788732 96.7876733,36.923831 97.9312871,34.2273239 C98.5896535,32.6736901 99.906386,31.438169 101.508218,30.9243944 C103.406733,30.3147324 105.316188,30.8123099 106.891634,31.9804507 C108.068713,32.8090986 109.478119,33.157662 110.864356,33.0397465 L98.1417327,27.5715775 L97.1989109,27.1653521 L97.1660891,27.1478592 C96.8417327,26.9690423 96.5334653,26.7597746 96.2477228,26.5226479 C94.0016832,24.6593239 93.7661386,21.7943662 95.0275248,19.2663099 C99.852327,9.6924789 112.203614,6.6551831 120.871139,12.911831 C123.148713,14.5704225 124.251782,17.2248169 123.108168,19.9226197 C122.450446,21.4762535 121.133713,22.7111268 119.531881,23.2249014 C117.632723,23.8345634 115.723267,23.3376338 114.147822,22.1688451" id="Fill-2" fill="#FFFFFF"></path>
            <path d="M114.147822,22.1688451 C113.128416,21.4516338 111.93396,21.0927042 110.727921,21.0875211 C111.511782,21.4263662 112.298218,21.7567887 113.092376,22.0820282 C114.291337,22.5737746 115.479356,23.0739437 116.662871,23.6039155 C118.856782,24.5867606 121.029455,25.6318028 123.191832,26.6846197 L124.056782,27.1063944 L124.087673,27.1251831 C124.332228,27.2729014 124.565198,27.4381127 124.785297,27.6208169 C127.036485,29.4841408 127.275248,32.3516901 126.012574,34.8836338 C121.187129,44.4568169 108.835842,47.4947606 100.16896,41.2374648 C97.8907426,39.5788732 96.7876733,36.923831 97.9312871,34.2273239 C98.5896535,32.6736901 99.906386,31.438169 101.508218,30.9243944 C103.406733,30.3147324 105.316188,30.8123099 106.891634,31.9804507 C108.068713,32.8090986 109.478119,33.157662 110.864356,33.0397465 L98.1417327,27.5715775 L97.1989109,27.1653521 L97.1660891,27.1478592 C96.8417327,26.9690423 96.5334653,26.7597746 96.2477228,26.5226479 C94.0016832,24.6593239 93.7661386,21.7943662 95.0275248,19.2663099 C99.852327,9.6924789 112.203614,6.6551831 120.871139,12.911831 C123.148713,14.5704225 124.251782,17.2248169 123.108168,19.9226197 C122.450446,21.4762535 121.133713,22.7111268 119.531881,23.2249014 C117.632723,23.8345634 115.723267,23.3376338 114.147822,22.1688451 L114.147822,22.1688451 L114.147822,22.1688451 Z" id="Stroke-3" stroke="#1A1918"></path>
            <path d="M14.2910891,35.9558873 L15.0157426,41.1798028 L15.0176733,41.1947042 C15.2171782,43.1688169 14.4674257,45.1681972 12.8572277,46.3603099 C11.3757426,47.4584789 9.374901,47.8012113 7.61475248,47.2654085 C5.51866337,46.6291831 4.20514851,44.9310704 3.76881188,42.8098873 L3.7649505,42.7904507 L3.75658416,42.7373239 C2.66831683,34.8901127 1.57940594,27.0429014 0.49049505,19.196338 L0.48920792,19.1827324 L0.48534653,19.1483944 L0.48405941,19.1354366 C0.27618812,16.8147042 1.25311881,14.7110141 3.30737624,13.5778592 C4.80559406,12.7511549 6.65326733,12.5995493 8.2570297,13.2007887 C10.1092079,13.8959718 11.4240099,15.6387887 11.7425743,17.5830986 L11.744505,17.5928169 L12.4202475,22.4597465 C13.7665842,21.8325915 15.1560396,21.4166479 16.6291584,21.082338 C19.0637624,20.2666479 20.8663861,18.4266479 20.7923762,15.7191268 C20.7415347,13.7048451 21.559505,11.9076056 23.2829703,10.830169 C24.1614356,10.2814085 25.1859901,9.9846761 26.2163366,9.9354366 C27.4757921,9.8764789 28.7635644,10.1868169 29.8235149,10.8839437 C31.3101485,11.8629014 32.089505,13.4165352 32.1538614,15.1878592 C32.275495,18.4687606 31.435,21.2054366 29.8473267,23.9479437 C33.8020297,26.7468169 36.4284158,31.064338 37.0874257,35.9163662 C37.1524257,36.3983944 37.3216832,37.5632958 37.375099,38.0492113 L37.3757426,38.0641127 C37.5990594,40.5565352 36.4380693,42.7755493 34.1521287,43.8218873 C33.7312376,44.0143099 33.2884653,44.1568451 32.835396,44.2475493 C32.2967327,44.3550986 31.7432673,44.3894366 31.1955941,44.3460282 C28.5260891,44.1367606 26.6706931,42.2514085 26.1262376,39.6624507 L26.1210891,39.6352394 L25.8044554,37.3656901 C24.9362871,31.4051268 16.2056931,30.4313521 14.2910891,35.9558873" id="Fill-4" fill="#FFFFFF"></path>
            <path d="M14.2910891,35.9558873 L15.0157426,41.1798028 L15.0176733,41.1947042 C15.2171782,43.1688169 14.4674257,45.1681972 12.8572277,46.3603099 C11.3757426,47.4584789 9.374901,47.8012113 7.61475248,47.2654085 C5.51866337,46.6291831 4.20514851,44.9310704 3.76881188,42.8098873 L3.7649505,42.7904507 L3.75658416,42.7373239 C2.66831683,34.8901127 1.57940594,27.0429014 0.49049505,19.196338 L0.48920792,19.1827324 L0.48534653,19.1483944 L0.48405941,19.1354366 C0.27618812,16.8147042 1.25311881,14.7110141 3.30737624,13.5778592 C4.80559406,12.7511549 6.65326733,12.5995493 8.2570297,13.2007887 C10.1092079,13.8959718 11.4240099,15.6387887 11.7425743,17.5830986 L11.744505,17.5928169 L12.4202475,22.4597465 C13.7665842,21.8325915 15.1560396,21.4166479 16.6291584,21.082338 C19.0637624,20.2666479 20.8663861,18.4266479 20.7923762,15.7191268 C20.7415347,13.7048451 21.559505,11.9076056 23.2829703,10.830169 C24.1614356,10.2814085 25.1859901,9.9846761 26.2163366,9.9354366 C27.4757921,9.8764789 28.7635644,10.1868169 29.8235149,10.8839437 C31.3101485,11.8629014 32.089505,13.4165352 32.1538614,15.1878592 C32.275495,18.4687606 31.435,21.2054366 29.8473267,23.9479437 C33.8020297,26.7468169 36.4284158,31.064338 37.0874257,35.9163662 C37.1524257,36.3983944 37.3216832,37.5632958 37.375099,38.0492113 L37.3757426,38.0641127 C37.5990594,40.5565352 36.4380693,42.7755493 34.1521287,43.8218873 C33.7312376,44.0143099 33.2884653,44.1568451 32.835396,44.2475493 C32.2967327,44.3550986 31.7432673,44.3894366 31.1955941,44.3460282 C28.5260891,44.1367606 26.6706931,42.2514085 26.1262376,39.6624507 L26.1210891,39.6352394 L25.8044554,37.3656901 C24.9362871,31.4051268 16.2056931,30.4313521 14.2910891,35.9558873 L14.2910891,35.9558873 L14.2910891,35.9558873 Z" id="Stroke-5" stroke="#1A1918"></path>
            <path d="M91.6552475,14.7304507 C91.7942574,14.7498873 91.9332673,14.7693239 92.0716337,14.7887606 C92.5073267,14.8509577 92.9436634,14.9118592 93.3793564,14.9734085 C93.5222277,14.993493 93.6663861,15.0135775 93.8105446,15.0343099 C93.849802,15.039493 93.8903465,15.0453239 93.9302475,15.0518028 C93.9411881,15.0524507 93.9514851,15.0537465 93.9740099,15.0569859 C93.9836634,15.0582817 93.9920297,15.0595775 94.0010396,15.0615211 L95.3499505,15.2513521 L95.3711881,15.2558873 C97.8360396,15.7489296 99.66505,17.4781408 100.008713,20.0230423 C100.087228,20.6074366 100.079505,21.203493 99.988119,21.7865915 C99.498366,24.8990423 96.9305446,26.8699155 93.7912376,26.5835493 L93.77,26.5816056 L90.0778713,26.0451549 C89.9942079,26.6016901 89.9079703,27.1575775 89.8326733,27.7147606 C89.7638119,28.2168732 89.7013861,28.7228732 89.6595545,29.2275775 C89.6318812,29.5657746 89.6022772,29.9596901 89.6338119,30.2978873 C89.7483663,31.5541408 90.184703,32.7307042 90.9962376,33.6999437 C92.4790099,35.1492676 94.8209406,35.7012676 96.8275743,35.7362535 C98.6675248,35.7686479 100.560891,36.0712113 101.872475,37.4959155 C104.955792,40.8416056 102.951733,46.6039155 98.4268317,47.0814085 C92.5626733,47.7014366 86.5492079,45.7195493 82.5288614,41.2970704 C79.4455446,37.9053803 77.9885149,33.5645352 78.2118317,28.9865634 C78.270396,27.7938028 78.5239604,26.6412113 78.6874257,25.4627042 L81.0763366,8.2736056 C81.5686634,5.1624507 84.3327723,3.1397465 87.4334653,3.5602254 C90.574703,3.9852394 92.6843069,6.6875775 92.3322772,9.8518592 L92.3309901,9.8628732 L91.6552475,14.7304507" id="Fill-6" fill="#FFFFFF"></path>
            <path d="M91.6552475,14.7304507 C91.7942574,14.7498873 91.9332673,14.7693239 92.0716337,14.7887606 C92.5073267,14.8509577 92.9436634,14.9118592 93.3793564,14.9734085 C93.5222277,14.993493 93.6663861,15.0135775 93.8105446,15.0343099 C93.849802,15.039493 93.8903465,15.0453239 93.9302475,15.0518028 C93.9411881,15.0524507 93.9514851,15.0537465 93.9740099,15.0569859 C93.9836634,15.0582817 93.9920297,15.0595775 94.0010396,15.0615211 L95.3499505,15.2513521 L95.3711881,15.2558873 C97.8360396,15.7489296 99.66505,17.4781408 100.008713,20.0230423 C100.087228,20.6074366 100.079505,21.203493 99.988119,21.7865915 C99.498366,24.8990423 96.9305446,26.8699155 93.7912376,26.5835493 L93.77,26.5816056 L90.0778713,26.0451549 C89.9942079,26.6016901 89.9079703,27.1575775 89.8326733,27.7147606 C89.7638119,28.2168732 89.7013861,28.7228732 89.6595545,29.2275775 C89.6318812,29.5657746 89.6022772,29.9596901 89.6338119,30.2978873 C89.7483663,31.5541408 90.184703,32.7307042 90.9962376,33.6999437 C92.4790099,35.1492676 94.8209406,35.7012676 96.8275743,35.7362535 C98.6675248,35.7686479 100.560891,36.0712113 101.872475,37.4959155 C104.955792,40.8416056 102.951733,46.6039155 98.4268317,47.0814085 C92.5626733,47.7014366 86.5492079,45.7195493 82.5288614,41.2970704 C79.4455446,37.9053803 77.9885149,33.5645352 78.2118317,28.9865634 C78.270396,27.7938028 78.5239604,26.6412113 78.6874257,25.4627042 L81.0763366,8.2736056 C81.5686634,5.1624507 84.3327723,3.1397465 87.4334653,3.5602254 C90.574703,3.9852394 92.6843069,6.6875775 92.3322772,9.8518592 L92.3309901,9.8628732 L91.6552475,14.7304507 L91.6552475,14.7304507 Z" id="Stroke-7" stroke="#1A1918"></path>
            <path d="M68.0100495,43.8808451 C58.3977723,43.8808451 50.6022772,36.032338 50.6022772,26.3561408 C50.6022772,16.6799437 58.3977723,8.8320845 68.0100495,8.8320845 C77.6216832,8.8320845 85.4171782,16.6799437 85.4171782,26.3561408 C85.4171782,36.032338 77.6216832,43.8808451 68.0100495,43.8808451 L68.0100495,43.8808451 L68.0100495,43.8808451 Z M68.0100495,32.4015775 C71.3256931,32.4015775 74.014505,29.6940563 74.014505,26.3561408 C74.014505,26.0477465 73.9919802,25.7393521 73.9456436,25.4348451 C73.4983663,22.4908451 70.9704455,20.3113521 68.0100495,20.3113521 C64.6937624,20.3113521 62.0049505,23.0182254 62.0049505,26.3561408 C62.0049505,29.6940563 64.6937624,32.4015775 68.0100495,32.4015775 L68.0100495,32.4015775 L68.0100495,32.4015775 Z" id="Fill-8" fill="#FFFFFF"></path>
            <path d="M68.0100495,43.8808451 C58.3977723,43.8808451 50.6022772,36.032338 50.6022772,26.3561408 C50.6022772,16.6799437 58.3977723,8.8320845 68.0100495,8.8320845 C77.6216832,8.8320845 85.4171782,16.6799437 85.4171782,26.3561408 C85.4171782,36.032338 77.6216832,43.8808451 68.0100495,43.8808451 L68.0100495,43.8808451 L68.0100495,43.8808451 Z M68.0100495,32.4015775 C71.3256931,32.4015775 74.014505,29.6940563 74.014505,26.3561408 C74.014505,26.0477465 73.9919802,25.7393521 73.9456436,25.4348451 C73.4983663,22.4908451 70.9704455,20.3113521 68.0100495,20.3113521 C64.6937624,20.3113521 62.0049505,23.0182254 62.0049505,26.3561408 C62.0049505,29.6940563 64.6937624,32.4015775 68.0100495,32.4015775 L68.0100495,32.4015775 L68.0100495,32.4015775 Z" id="Stroke-9" stroke="#1A1918"></path>
            <path d="M46.5986634,32.4449859 C48.0859406,33.8884789 50.4304455,34.4320563 52.4377228,34.4599155 C54.2776733,34.4851831 56.1723267,34.7806197 57.4890594,36.2001408 C60.5839604,39.5354648 58.6011386,45.3042535 54.0781683,45.7992394 C48.2165842,46.4406479 42.1947525,44.4814366 38.1583168,40.0738592 C35.0634158,36.6931831 33.590297,32.358169 33.7968812,27.7801972 C33.850297,26.5861408 34.1,25.4329014 34.2589604,24.2543944 L36.5841584,7.0555775 C37.0655446,3.9431268 39.8225743,1.9107042 42.9239109,2.3188732 C46.0670792,2.7328732 48.1869802,5.4274366 47.8465347,8.5923662 L47.8452475,8.6027324 L47.8439604,8.6137465 C47.0504455,14.4849014 46.2562871,20.3554085 45.4634158,26.2259155 C45.3379208,27.1530423 45.1339109,28.1093239 45.2227228,29.0481127 C45.3424257,30.3043662 45.7839109,31.4789859 46.5986634,32.4449859" id="Fill-10" fill="#FFFFFF"></path>
            <path d="M46.5986634,32.4449859 C48.0859406,33.8884789 50.4304455,34.4320563 52.4377228,34.4599155 C54.2776733,34.4851831 56.1723267,34.7806197 57.4890594,36.2001408 C60.5839604,39.5354648 58.6011386,45.3042535 54.0781683,45.7992394 C48.2165842,46.4406479 42.1947525,44.4814366 38.1583168,40.0738592 C35.0634158,36.6931831 33.590297,32.358169 33.7968812,27.7801972 C33.850297,26.5861408 34.1,25.4329014 34.2589604,24.2543944 L36.5841584,7.0555775 C37.0655446,3.9431268 39.8225743,1.9107042 42.9239109,2.3188732 C46.0670792,2.7328732 48.1869802,5.4274366 47.8465347,8.5923662 L47.8452475,8.6027324 L47.8439604,8.6137465 C47.0504455,14.4849014 46.2562871,20.3554085 45.4634158,26.2259155 C45.3379208,27.1530423 45.1339109,28.1093239 45.2227228,29.0481127 C45.3424257,30.3043662 45.7839109,31.4789859 46.5986634,32.4449859 L46.5986634,32.4449859 L46.5986634,32.4449859 Z" id="Stroke-11" stroke="#1A1918"></path>
            <path d="M179.553267,43.1001408 C169.94099,43.1001408 162.145495,35.2516338 162.145495,25.5754366 C162.145495,15.8992394 169.94099,8.0513803 179.553267,8.0513803 C189.164901,8.0513803 196.959752,15.8992394 196.959752,25.5754366 C196.959752,35.2516338 189.164901,43.1001408 179.553267,43.1001408 L179.553267,43.1001408 L179.553267,43.1001408 Z M179.553267,31.6208732 C182.868911,31.6208732 185.557723,28.9133521 185.557723,25.5754366 C185.557723,25.2670423 185.534554,24.9586479 185.488861,24.6541408 C185.041584,21.7101408 182.51302,19.5306479 179.553267,19.5306479 C176.23698,19.5306479 173.548168,22.2375211 173.548168,25.5754366 C173.548168,28.9133521 176.23698,31.6208732 179.553267,31.6208732 L179.553267,31.6208732 L179.553267,31.6208732 Z" id="Fill-12" fill="#FFFFFF"></path>
            <path d="M179.553267,43.1001408 C169.94099,43.1001408 162.145495,35.2516338 162.145495,25.5754366 C162.145495,15.8992394 169.94099,8.0513803 179.553267,8.0513803 C189.164901,8.0513803 196.959752,15.8992394 196.959752,25.5754366 C196.959752,35.2516338 189.164901,43.1001408 179.553267,43.1001408 L179.553267,43.1001408 L179.553267,43.1001408 Z M179.553267,31.6208732 C182.868911,31.6208732 185.557723,28.9133521 185.557723,25.5754366 C185.557723,25.2670423 185.534554,24.9586479 185.488861,24.6541408 C185.041584,21.7101408 182.51302,19.5306479 179.553267,19.5306479 C176.23698,19.5306479 173.548168,22.2375211 173.548168,25.5754366 C173.548168,28.9133521 176.23698,31.6208732 179.553267,31.6208732 L179.553267,31.6208732 L179.553267,31.6208732 Z" id="Stroke-13" stroke="#1A1918"></path>
            <path d="M150.666238,43.6126197 L151.367079,46.2106479 L151.374802,46.2462817 L151.378663,46.2592394 C151.775743,48.234 151.357426,50.2152394 149.872723,51.6392958 C149.164158,52.3176338 148.287624,52.788 147.344802,53.0575211 C147.334505,53.0594648 147.322277,53.0633521 147.31198,53.0665915 C147.301683,53.0685352 147.290099,53.0724225 147.275941,53.0763099 C146.332475,53.3238028 145.339455,53.3639718 144.388267,53.1398028 C142.391287,52.6681408 141.034653,51.1741127 140.385941,49.2699718 L140.373069,49.2336901 L140.362129,49.1948169 L135.421485,30.8796901 C135.408614,30.8336901 135.395099,30.7902817 135.382871,30.7436338 C132.863317,21.4056338 138.342624,11.7754366 147.619604,9.2389577 C156.895941,6.7031268 166.461881,12.2198873 168.980792,21.5578873 C171.499703,30.8958873 166.020396,40.5273803 156.744059,43.0625634 C154.75995,43.6048451 152.705693,43.7920845 150.666238,43.6126197 L150.666238,43.6126197 L150.666238,43.6126197 Z M150.608317,20.3171831 C147.408515,21.191831 145.517723,24.5141972 146.387178,27.735493 C147.25599,30.9567887 150.555545,32.8596338 153.755347,31.9849859 C156.955792,31.1096901 158.845941,27.7879718 157.977129,24.5660282 C157.107673,21.3453803 153.808119,19.4425352 150.608317,20.3171831 L150.608317,20.3171831 L150.608317,20.3171831 Z" id="Fill-14" fill="#FFFFFF"></path>
            <path d="M150.666238,43.6126197 L151.367079,46.2106479 L151.374802,46.2462817 L151.378663,46.2592394 C151.775743,48.234 151.357426,50.2152394 149.872723,51.6392958 C149.164158,52.3176338 148.287624,52.788 147.344802,53.0575211 C147.334505,53.0594648 147.322277,53.0633521 147.31198,53.0665915 C147.301683,53.0685352 147.290099,53.0724225 147.275941,53.0763099 C146.332475,53.3238028 145.339455,53.3639718 144.388267,53.1398028 C142.391287,52.6681408 141.034653,51.1741127 140.385941,49.2699718 L140.373069,49.2336901 L140.362129,49.1948169 L135.421485,30.8796901 C135.408614,30.8336901 135.395099,30.7902817 135.382871,30.7436338 C132.863317,21.4056338 138.342624,11.7754366 147.619604,9.2389577 C156.895941,6.7031268 166.461881,12.2198873 168.980792,21.5578873 C171.499703,30.8958873 166.020396,40.5273803 156.744059,43.0625634 C154.75995,43.6048451 152.705693,43.7920845 150.666238,43.6126197 L150.666238,43.6126197 L150.666238,43.6126197 Z M150.608317,20.3171831 C147.408515,21.191831 145.517723,24.5141972 146.387178,27.735493 C147.25599,30.9567887 150.555545,32.8596338 153.755347,31.9849859 C156.955792,31.1096901 158.845941,27.7879718 157.977129,24.5660282 C157.107673,21.3453803 153.808119,19.4425352 150.608317,20.3171831 L150.608317,20.3171831 L150.608317,20.3171831 Z" id="Stroke-15" stroke="#1A1918"></path>
            <path d="M130.996337,43.7182254 C127.84995,43.4882254 125.539554,40.908338 125.724901,37.7336901 L125.725545,37.7187887 C126.338861,29.793831 126.952178,21.8695211 127.565495,13.9452113 L127.567426,13.929662 C127.869901,10.7938873 130.505941,8.6053239 133.625941,8.8340282 C136.787129,9.0653239 139.05698,11.6322535 138.898663,14.8120845 L138.89802,14.8230986 L138.896733,14.8334648 C138.283416,22.7623099 137.669455,30.690507 137.056139,38.6180563 L137.054851,38.6329577 L137.052921,38.6465634 C136.695743,41.7952958 134.152376,43.9495211 130.996337,43.7182254" id="Fill-16" fill="#FFFFFF"></path>
            <path d="M130.996337,43.7182254 C127.84995,43.4882254 125.539554,40.908338 125.724901,37.7336901 L125.725545,37.7187887 C126.338861,29.793831 126.952178,21.8695211 127.565495,13.9452113 L127.567426,13.929662 C127.869901,10.7938873 130.505941,8.6053239 133.625941,8.8340282 C136.787129,9.0653239 139.05698,11.6322535 138.898663,14.8120845 L138.89802,14.8230986 L138.896733,14.8334648 C138.283416,22.7623099 137.669455,30.690507 137.056139,38.6180563 L137.054851,38.6329577 L137.052921,38.6465634 C136.695743,41.7952958 134.152376,43.9495211 130.996337,43.7182254 L130.996337,43.7182254 L130.996337,43.7182254 Z" id="Stroke-17" stroke="#1A1918"></path>
            <path d="M206.373812,45.9793521 C196.760891,45.9793521 188.965396,38.1308451 188.965396,28.4546479 C188.965396,18.7784507 196.760891,10.9305915 206.373812,10.9305915 C215.984802,10.9305915 223.780297,18.7784507 223.780297,28.4546479 C223.780297,38.1308451 215.984802,45.9793521 206.373812,45.9793521 L206.373812,45.9793521 L206.373812,45.9793521 Z M206.373812,34.5000845 C209.688812,34.5000845 212.377624,31.7925634 212.377624,28.4546479 C212.377624,28.1462535 212.355099,27.8378592 212.308762,27.5333521 C211.861485,24.5893521 209.332921,22.4098592 206.373812,22.4098592 C203.056881,22.4098592 200.368069,25.1167324 200.368069,28.4546479 C200.368069,31.7925634 203.056881,34.5000845 206.373812,34.5000845 L206.373812,34.5000845 L206.373812,34.5000845 Z" id="Fill-18" fill="#FFFFFF"></path>
            <path d="M206.373812,45.9793521 C196.760891,45.9793521 188.965396,38.1308451 188.965396,28.4546479 C188.965396,18.7784507 196.760891,10.9305915 206.373812,10.9305915 C215.984802,10.9305915 223.780297,18.7784507 223.780297,28.4546479 C223.780297,38.1308451 215.984802,45.9793521 206.373812,45.9793521 L206.373812,45.9793521 L206.373812,45.9793521 Z M206.373812,34.5000845 C209.688812,34.5000845 212.377624,31.7925634 212.377624,28.4546479 C212.377624,28.1462535 212.355099,27.8378592 212.308762,27.5333521 C211.861485,24.5893521 209.332921,22.4098592 206.373812,22.4098592 C203.056881,22.4098592 200.368069,25.1167324 200.368069,28.4546479 C200.368069,31.7925634 203.056881,34.5000845 206.373812,34.5000845 L206.373812,34.5000845 L206.373812,34.5000845 Z" id="Stroke-19" stroke="#1A1918"></path>
            <path d="M238.846139,9.6257465 L238.296535,6.9907887 L238.290743,6.954507 L238.288812,6.9409014 C238.005644,4.9460563 238.538515,2.9933239 240.102376,1.6593239 C240.849554,1.0224507 241.751188,0.6045634 242.708168,0.3920563 C242.718465,0.3894648 242.731337,0.3868732 242.741634,0.3842817 C242.751931,0.382338 242.764158,0.3797465 242.778317,0.3771549 C243.734653,0.1853803 244.727673,0.2022254 245.664703,0.4827606 C247.630792,1.0703944 248.899257,2.6415211 249.436634,4.58 L249.446931,4.6169296 L249.455297,4.6570986 L253.328911,23.2300845 C253.338564,23.2767324 253.349505,23.3220845 253.359158,23.3680845 C255.333614,32.8389014 249.30599,42.1315493 239.899653,44.1192676 C230.49203,46.1069859 221.261386,40.0388732 219.286931,30.5693521 C217.311832,21.0991831 223.340099,11.8065352 232.746436,9.818169 C234.759505,9.392507 236.819554,9.3264225 238.846139,9.6257465 L238.846139,9.6257465 L238.846139,9.6257465 Z M237.556436,32.8849014 C240.801931,32.1994366 242.880644,28.9936901 242.199752,25.7263944 C241.518861,22.4597465 238.334505,20.3664225 235.08901,21.0525352 C231.844158,21.738 229.765446,24.9437465 230.445693,28.2110423 C231.127871,31.4776901 234.311584,33.5710141 237.556436,32.8849014 L237.556436,32.8849014 L237.556436,32.8849014 Z" id="Fill-20" fill="#FFFFFF"></path>
            <path d="M238.846139,9.6257465 L238.296535,6.9907887 L238.290743,6.954507 L238.288812,6.9409014 C238.005644,4.9460563 238.538515,2.9933239 240.102376,1.6593239 C240.849554,1.0224507 241.751188,0.6045634 242.708168,0.3920563 C242.718465,0.3894648 242.731337,0.3868732 242.741634,0.3842817 C242.751931,0.382338 242.764158,0.3797465 242.778317,0.3771549 C243.734653,0.1853803 244.727673,0.2022254 245.664703,0.4827606 C247.630792,1.0703944 248.899257,2.6415211 249.436634,4.58 L249.446931,4.6169296 L249.455297,4.6570986 L253.328911,23.2300845 C253.338564,23.2767324 253.349505,23.3220845 253.359158,23.3680845 C255.333614,32.8389014 249.30599,42.1315493 239.899653,44.1192676 C230.49203,46.1069859 221.261386,40.0388732 219.286931,30.5693521 C217.311832,21.0991831 223.340099,11.8065352 232.746436,9.818169 C234.759505,9.392507 236.819554,9.3264225 238.846139,9.6257465 L238.846139,9.6257465 L238.846139,9.6257465 Z M237.556436,32.8849014 C240.801931,32.1994366 242.880644,28.9936901 242.199752,25.7263944 C241.518861,22.4597465 238.334505,20.3664225 235.08901,21.0525352 C231.844158,21.738 229.765446,24.9437465 230.445693,28.2110423 C231.127871,31.4776901 234.311584,33.5710141 237.556436,32.8849014 L237.556436,32.8849014 L237.556436,32.8849014 Z" id="Stroke-21" stroke="#1A1918"></path>
        </g>
    </g>
</svg>