<?xml version="1.0" encoding="UTF-8" standalone="no"?>
<svg viewBox="0 0 824 246" version="1.1" xmlns="http://www.w3.org/2000/svg" xmlns:xlink="http://www.w3.org/1999/xlink">
    <defs></defs>
    <g id="Page-1" stroke="none" stroke-width="1" fill="none" fill-rule="evenodd">
        <g id="Imported-Layers">
            <path d="M0.972,0.613 L823.399,0.613 L823.399,245.763 L0.972,245.763 L0.972,0.613 Z" id="Fill-1" fill="#000614"></path>
            <path d="M593.668,75.731 L562.113,75.731 L555.789,170.646 L630.961,170.646 C631.449,169.153 635.852,151.056 635.863,150.911 C635.664,151.056 598.613,153.81 588.215,154.759 C590.047,127.239 591.84,103.126 593.668,75.731" id="Fill-2" fill="#E7792B"></path>
            <path d="M495.906,75.731 L464.355,75.731 L458.031,170.646 L533.203,170.646 C533.691,169.153 538.098,151.056 538.106,150.911 C537.914,151.056 500.859,153.81 490.457,154.759 C492.293,127.239 494.078,103.126 495.906,75.731" id="Fill-3" fill="#E7792B"></path>
            <path d="M104.519,154.157 L142.555,154.583 C142.555,154.583 145.668,165.763 147.25,170.642 L181.488,170.642 C181.488,170.642 150,75.727 149.809,75.727 L120.574,75.727 C120.562,75.872 76.09,170.646 76.09,170.646 L98.238,170.642 C98.926,169.02 104.519,154.157 104.519,154.157 M126.406,94.978 L137.734,136.735 L109.441,141.231 L126.406,94.978" id="Fill-4" fill="#E7792B"></path>
            <path d="M203.699,170.642 L235.066,170.642 L236.461,149.665 C266.258,149.665 306.699,135.325 306.699,103.282 C306.699,88.872 290.441,75.954 265.414,75.954 L210.008,75.954 L203.699,170.642 L203.699,170.642 Z M237.492,134.251 L240.324,91.731 L249.172,91.77 C267.051,91.876 273.402,98.169 273.402,106.337 C273.402,120.935 254.519,134.251 237.492,134.251 L237.492,134.251 Z" id="Fill-5" fill="#E7792B"></path>
            <path d="M376.465,173.977 C412.797,173.977 433.43,148.356 435.074,123.673 C436.688,99.54 419.113,76.36 382.766,76.36 C346.809,76.36 325.977,99.005 324.332,123.673 C322.699,148.212 342.215,173.977 376.465,173.977 M377.109,158.431 C360.281,158.431 356.844,140.888 357.969,123.942 C358.902,109.942 364.512,91.884 381.156,91.884 C399.711,91.884 402.242,111.302 401.426,123.603 C400.262,141.118 393.562,158.431 377.109,158.431" id="Fill-6" fill="#E7792B"></path>
            <path d="M690.461,171.997 C726.797,171.997 747.434,146.376 749.074,121.696 C750.684,97.567 733.113,74.384 696.766,74.384 C660.801,74.384 639.977,97.024 638.336,121.696 C636.699,146.231 656.215,171.997 690.461,171.997 M691.109,156.454 C674.281,156.454 670.844,138.911 671.973,121.97 C672.906,107.962 678.516,89.907 695.152,89.907 C713.711,89.907 716.242,109.325 715.43,121.622 C714.262,139.134 707.562,156.454 691.109,156.454" id="Fill-7" fill="#E7792B"></path>
        </g>
    </g>
</svg>