<?xml version="1.0" encoding="UTF-8" standalone="no"?>
<svg viewBox="0 0 515 84" version="1.1" xmlns="http://www.w3.org/2000/svg" xmlns:xlink="http://www.w3.org/1999/xlink">
    <defs></defs>
    <g id="Page-1" stroke="none" stroke-width="1" fill="none" fill-rule="evenodd">
        <g id="logo-gamefounders">
            <g id="Page-1">
                <g id="Imported-Layers">
                    <path d="M90.7,67.9 L81.2,67.9 L81.2,31.1 C85.9,29.3 93,27.7 99.2,27.7 C103.6,27.7 106.9,28.5 109.2,30.3 C113.4,28.8 118.6,27.7 123.1,27.7 C134,27.7 138.4,32.1 138.4,46.1 L138.4,67.8 L128.9,67.8 L128.9,47.1 C128.9,38.5 127.4,36.3 121.1,36.3 C119.2,36.3 116,36.6 113.5,37.4 C114.2,39.7 114.6,42.6 114.6,46.1 L114.6,67.8 L105.1,67.8 L105.1,47.1 C105.1,38.5 103.6,36.3 97.3,36.3 C95.2,36.3 92.7,36.7 90.8,37.2 L90.8,67.9" id="Fill-1" fill="#FFFFFF"></path>
                    <path d="M318.1,28.9 L327.6,28.9 L327.6,65.6 C322.8,67.4 315.4,69 309.2,69 C298.3,69 293.4,64.6 293.4,50.6 L293.4,28.9 L302.9,28.9 L302.9,49.6 C302.9,58.2 304.5,60.4 311.2,60.4 C313.7,60.4 315.9,60.1 318.2,59.4 L318.2,28.9" id="Fill-2" fill="#FFFFFF"></path>
                    <path d="M344,67.9 L334.5,67.9 L334.5,31.1 C339.2,29.3 346.7,27.7 352.9,27.7 C363.8,27.7 368.7,32.1 368.7,46.1 L368.7,67.8 L359.2,67.8 L359.2,47.1 C359.2,38.5 357.6,36.3 350.9,36.3 C348.5,36.3 346.2,36.6 343.9,37.2 L343.9,67.9" id="Fill-3" fill="#FFFFFF"></path>
                    <path d="M410.3,66.1 C406.1,67.8 398.9,68.9 393.3,68.9 C380.4,68.9 374.5,64.3 374.5,48.3 C374.5,32.5 381,27.7 391.4,27.7 C395.8,27.7 398.7,28.8 400.7,29.9 L400.7,14 L410.2,14 L410.2,66.1 L410.3,66.1 L410.3,66.1 Z M400.8,39.5 C400.8,37.2 397.4,35.7 393.1,35.7 C386.4,35.7 384.3,38.4 384.3,48.1 C384.3,58.7 386.5,60.7 393.3,60.7 C395.9,60.7 398.8,60.2 400.8,59.6 L400.8,39.5 L400.8,39.5 Z" id="Fill-4" fill="#FFFFFF"></path>
                    <path d="M18.9,27.8 C6,27.8 0.1,32.6 0.1,48.5 C0.1,64.3 5.8,68.8 16.5,68.8 C20.9,68.8 24.2,67.6 26.4,66.3 C26.4,73.4 22.3,75.4 15.3,75.5 L15.3,83.5 C27.5,83.5 35.9,80 35.9,64.9 L35.9,30.7 C31.6,28.9 24.4,27.8 18.9,27.8 L18.9,27.8 L18.9,27.8 Z M26.4,56.9 C26.4,59.3 22.9,60.6 18.7,60.6 C12,60.6 10,58.1 10,48.4 C10,37.3 12.2,35.5 19,35.5 C21.4,35.5 24.3,36 26.5,36.8 L26.5,56.9 L26.4,56.9 L26.4,56.9 Z" id="Fill-5" fill="#FFFFFF"></path>
                    <path d="M174.6,59.3 C171.5,60.2 166.4,60.9 163.7,60.9 C156.9,60.9 153.7,59.2 153.6,50.9 L178.8,50.9 C179.5,32 174.1,27.8 161.8,27.8 C150.5,27.8 143.7,32.6 143.7,48.2 C143.7,64.2 151.4,68.9 162.6,68.9 C166.1,68.9 170.9,68.3 174.7,67.2 L174.7,59.3 L174.6,59.3 L174.6,59.3 Z M162.4,35.3 C167.8,35.3 169.8,36.8 170.1,43.6 L153.7,43.6 C154.3,37.2 156.4,35.3 162.4,35.3 L162.4,35.3 L162.4,35.3 Z" id="Fill-6" fill="#FFFFFF"></path>
                    <path d="M447,59.3 C443.9,60.2 438.8,60.9 436.1,60.9 C429.3,60.9 426.1,59.2 426,50.9 L451.2,50.9 C451.9,32 446.5,27.8 434.2,27.8 C422.9,27.8 416.1,32.6 416.1,48.2 C416.1,64.2 423.8,68.9 435,68.9 C438.5,68.9 443.3,68.3 447.1,67.2 L447.1,59.3 L447,59.3 L447,59.3 Z M434.7,35.3 C440.1,35.3 442.1,36.8 442.4,43.6 L426,43.6 C426.6,37.2 428.7,35.3 434.7,35.3 L434.7,35.3 L434.7,35.3 Z" id="Fill-7" fill="#FFFFFF"></path>
                    <path d="M58.3,27.8 C53.5,27.8 48.5,28.5 44.6,29.4 L44.6,37.6 C47.8,36.5 52.1,35.7 56.3,35.7 C64.4,35.7 66,37.4 66,44.2 C62.7,43.5 59.6,43.1 56.4,43.1 C47.3,43.1 41.1,44.9 41.1,55.9 C41.1,66.1 45.2,68.9 57.6,68.9 C63,68.9 70.3,67.8 75.2,65.8 L75.2,42.8 C75.1,31.3 69.8,27.8 58.3,27.8 L58.3,27.8 L58.3,27.8 Z M66,60.4 C63.8,61.2 60.9,61.7 58.2,61.7 C52.5,61.7 51,60.9 51,55.6 C51,50.6 52.9,50 58.3,50 C61.1,50 63.9,50.2 66,50.7 L66,60.4 L66,60.4 Z" id="Fill-8" fill="#FFFFFF"></path>
                    <path d="M478.8,28.4 C473,27.5 461.7,29.2 457,31.1 L457,67.8 L466.5,67.8 L466.5,37.9 C468.8,37.3 474.5,36.3 478.8,37.3 L478.8,28.4" id="Fill-9" fill="#FFFFFF"></path>
                    <path d="M500.7,44.2 C494.3,43.6 492.7,42.7 492.7,40 C492.7,35.9 495.1,35.5 499.7,35.5 C503.6,35.5 508,36.3 511,37.3 L511,29.3 C507.5,28.4 503.4,27.8 500,27.8 C490.1,27.8 483.3,30.6 483.3,40.7 C483.3,48.7 487.9,51.1 496.5,51.8 C503.3,52.4 504.8,53.7 504.8,56.5 C504.8,60.6 502.3,61.2 497.1,61.2 C493.2,61.2 488.4,60.4 485.5,59.4 L485.5,67.5 C489.1,68.4 494,69 497.4,69 C507.3,69 514.1,66.1 514.1,56 C514.3,48.1 510.1,45.2 500.7,44.2" id="Fill-10" fill="#FFFFFF"></path>
                    <path d="M200.6,21.6 C204.3,21.6 209.6,22 211.4,22.4 L211.4,14.3 C208.9,13.8 201.8,13.4 199.1,13.4 C191.4,13.4 184.9,15.9 184.9,27.3 L184.9,67.8 L194.4,67.8 L194.4,37.2 L208.9,37.2 L208.9,29.3 L194.4,29.3 L194.4,27.9 C194.4,22.9 196.9,21.6 200.6,21.6" id="Fill-11" fill="#FFFFFF"></path>
                    <path d="M250.5,45.7 L251.3,45.7 C254.1,45.7 256.4,43.4 256.4,40.6 L256.4,6 C256.4,3.2 254.1,0.9 251.3,0.9 L250.5,0.9 C247.7,0.9 245.4,3.2 245.4,6 L245.4,40.5 C245.4,43.4 247.7,45.7 250.5,45.7" id="Fill-12" fill="#E15D29"></path>
                    <path d="M250.9,78.6 C231.1,78.6 215,62.5 215,42.7 C215,29.7 222.1,17.7 233.4,11.3 C235.8,9.9 238.9,10.8 240.2,13.2 C241.5,15.6 240.7,18.7 238.3,20 C230.1,24.6 225,33.3 225,42.6 C225,56.9 236.6,68.5 250.9,68.5 C265.2,68.5 276.8,56.9 276.8,42.6 C276.8,33.1 271.6,24.3 263.2,19.8 C260.8,18.5 259.9,15.5 261.2,13 C262.5,10.6 265.5,9.7 268,11 C279.6,17.3 286.8,29.4 286.8,42.6 C286.9,62.5 270.7,78.6 250.9,78.6" id="Fill-13" fill="#FFFFFF"></path>
                </g>
            </g>
        </g>
    </g>
</svg>