<?xml version="1.0" encoding="UTF-8" standalone="no"?>
<svg viewBox="0 0 226 38" version="1.1" xmlns="http://www.w3.org/2000/svg" xmlns:xlink="http://www.w3.org/1999/xlink">
    <defs></defs>
    <g id="Page-1" stroke="none" stroke-width="1" fill="none" fill-rule="evenodd">
        <g id="logo-sonycenter" fill="#FFFFFF">
            <g id="Page-1">
                <g id="Imported-Layers">
                    <path d="M5.1,20.4 C5.1,24.7 8.3,26.4 12.2,26.4 C16.5,26.4 18.2,24.3 18.2,22.1 C18.2,19.9 17,19.1 15.9,18.6 C13.9,17.9 11.4,17.3 7.5,16.3 C2.7,15 1.3,12.1 1.3,9.2 C1.3,3.6 6.5,0.9 11.6,0.9 C17.5,0.9 22.4,4 22.4,9.9 L17.5,9.9 C17.3,6.3 14.8,4.9 11.4,4.9 C9.1,4.9 6.2,5.7 6.2,8.6 C6.2,10.6 7.5,11.7 9.5,12.2 C9.9,12.3 16.2,13.9 17.6,14.4 C21.3,15.5 23.1,18.7 23.1,21.6 C23.1,27.9 17.5,30.4 11.9,30.4 C5.5,30.4 0.3,27.3 0.2,20.3 L5.1,20.3" id="Fill-2"></path>
                    <path d="M36.1,26.8 C32.1,26.8 30.3,23.1 30.3,19.6 C30.3,16.1 32.1,12.4 36.1,12.4 C40.1,12.4 41.9,16.1 41.9,19.6 C41.9,23.1 40.1,26.8 36.1,26.8 M36.1,30.3 C42.6,30.3 46.4,25.8 46.4,19.5 C46.4,13.3 42.7,8.8 36.1,8.8 C29.6,8.8 25.8,13.3 25.8,19.5 C25.8,25.8 29.6,30.3 36.1,30.3" id="Fill-3"></path>
                    <path d="M50.1,9.4 L54.4,9.4 L54.4,12.4 L54.5,12.5 C55.8,10.3 58.2,8.9 60.8,8.9 C65.2,8.9 68,11.3 68,15.8 L68,29.8 L63.5,29.8 L63.5,16.9 C63.4,13.7 62.2,12.3 59.5,12.3 C56.5,12.3 54.6,14.7 54.6,17.7 L54.6,29.7 L50.1,29.7 L50.1,9.4" id="Fill-4"></path>
                    <path d="M70.5,9.4 L75.4,9.4 L80.7,24.6 L80.8,24.6 L86,9.4 L90.7,9.4 L82.8,30.9 C81.3,34.6 80.3,37.9 75.6,37.9 C74.5,37.9 73.5,37.8 72.5,37.7 L72.5,33.9 C73.2,34 73.9,34.2 74.6,34.2 C76.7,34.2 77.2,33.1 77.8,31.4 L78.3,29.8 L70.5,9.4" id="Fill-5"></path>
                    <path d="M124.9,10.6 C124.1,7.4 122,5 117.9,5 C111.9,5 109.3,10.3 109.3,15.7 C109.3,21.1 111.8,26.4 117.9,26.4 C122.3,26.4 124.7,23.1 125.1,19 L129.9,19 C129.5,25.7 124.7,30.4 117.9,30.4 C109.5,30.4 104.4,23.7 104.4,15.7 C104.4,7.7 109.4,1 117.9,1 C124.2,1 129.2,4.5 129.8,10.6 L124.9,10.6" id="Fill-6"></path>
                    <path d="M137.2,17.8 C137.3,14.8 139.4,12.4 142.6,12.4 C145.6,12.4 147.6,15 147.7,17.8 L137.2,17.8 M152.2,20.7 C152.9,14.6 149,8.8 142.6,8.8 C136.5,8.8 132.7,13.8 132.7,19.6 C132.7,25.9 136.3,30.3 142.7,30.3 C147.2,30.3 150.9,27.8 151.9,23.4 L147.6,23.4 C146.8,25.6 145.2,26.8 142.6,26.8 C138.9,26.8 137.1,24 137.1,20.8 L152.2,20.8" id="Fill-7"></path>
                    <path d="M155.6,9.4 L159.9,9.4 L159.9,12.4 L160,12.5 C161.3,10.3 163.7,8.9 166.3,8.9 C170.7,8.9 173.5,11.3 173.5,15.8 L173.5,29.8 L169,29.8 L169,16.9 C168.9,13.7 167.7,12.3 165,12.3 C162,12.3 160.1,14.7 160.1,17.7 L160.1,29.7 L155.6,29.7 L155.6,9.4" id="Fill-8"></path>
                    <path d="M176.2,9.4 L179.6,9.4 L179.6,3.3 L184.1,3.3 L184.1,9.4 L188.2,9.4 L188.2,12.8 L184.1,12.8 L184.1,23.7 C184.1,25.5 184.3,26.5 186.3,26.5 C186.9,26.5 187.6,26.5 188.2,26.3 L188.2,29.8 C187.2,29.9 186.3,30 185.3,30 C180.6,30 179.7,28.2 179.7,24.8 L179.7,12.8 L176.3,12.8 L176.3,9.4" id="Fill-9"></path>
                    <path d="M194.9,17.8 C195,14.8 197.2,12.4 200.3,12.4 C203.3,12.4 205.3,15 205.4,17.8 L194.9,17.8 M209.9,20.7 C210.6,14.6 206.7,8.8 200.3,8.8 C194.2,8.8 190.4,13.8 190.4,19.6 C190.4,25.9 194,30.3 200.4,30.3 C204.9,30.3 208.6,27.8 209.6,23.4 L205.3,23.4 C204.5,25.6 202.9,26.8 200.3,26.8 C196.6,26.8 194.8,24 194.8,20.8 L209.9,20.8" id="Fill-10"></path>
                    <path d="M213.3,9.4 L217.5,9.4 L217.5,13.3 L217.6,13.3 C218.1,11.1 220.8,8.8 223.6,8.8 C224.6,8.8 224.9,8.9 225.3,8.9 L225.3,13.2 C224.7,13.1 224,13 223.4,13 C220.3,13 217.9,15.5 217.9,20 L217.9,29.7 L213.4,29.7 L213.4,9.4" id="Fill-11"></path>
                </g>
            </g>
        </g>
    </g>
</svg>