<?xml version="1.0" encoding="UTF-8" standalone="no"?>
<svg viewBox="0 0 374 115" version="1.1" xmlns="http://www.w3.org/2000/svg" xmlns:xlink="http://www.w3.org/1999/xlink">
    <defs></defs>
    <g id="Page-1" stroke="none" stroke-width="1" fill="none" fill-rule="evenodd">
        <g id="logo-gamestar">
            <g id="Group">
                <path d="M319,52.2 C309.2,53.6 299.2,63.4 295.9,74.9 C292.3,87.5 297.6,98.6 308.8,98.6 C320.9,98.6 333.1,85.9 335.2,71.7 C337,59 329.4,50.7 319,52.2 L319,52.2 Z M332.4,72 C330.5,84.2 320,95 309.6,95.2 C299.9,95.3 295.1,85.8 298.2,74.7 C301,64.5 309.9,55.9 318.5,54.7 C327.6,53.5 334.1,60.8 332.4,72 L332.4,72 Z M323.1,38.7 C333.1,36.9 342.8,27.4 344,18.3 C345.2,9.9 338.5,5.7 329.6,8.1 C321.2,10.4 313,18.1 310.8,26 C308.5,34.4 313.7,40.4 323.1,38.7 L323.1,38.7 Z M312.8,25.5 C314.7,18.6 321.9,11.7 329.3,9.8 C337.1,7.7 342.8,11.6 341.7,18.9 C340.5,26.7 332.2,34.9 323.6,36.5 C315.4,38 310.8,32.9 312.8,25.5 L312.8,25.5 Z M352.8,22 C342.2,24.3 332.7,33.6 330.9,43.6 C328.9,54.6 336.6,63.2 349,61.9 C362.3,60.5 373.8,48.6 373.8,36.5 C373.8,25.7 364.1,19.6 352.8,22 L352.8,22 Z M349.3,59 C338.6,60.2 331.7,52.8 333.3,43.2 C334.8,34.3 343.2,26.1 352.6,24.1 C362.5,22 370.9,27.5 370.8,37 C370.6,47.5 360.7,57.8 349.3,59 L349.3,59 Z M311.9,46.8 C314.3,37.2 309.2,31.4 301,33.2 C293.2,34.9 284.6,42.9 281.3,51.8 C277.7,61.4 281.3,69 289.9,68.1 C299,67.2 309.2,57.2 311.9,46.8 L311.9,46.8 Z M290.7,65.6 C283.2,66.4 280,59.9 283.1,51.5 C286,43.7 293.5,36.5 300.4,35.1 C307.6,33.6 312,38.7 309.8,47.1 C307.4,56.2 298.6,64.7 290.7,65.6 L290.7,65.6 Z" id="Shape" fill="#404041"></path>
                <path d="M313.1,44.8 C303.3,46.2 293.3,56 290,67.5 C286.4,80.1 291.7,91.2 302.9,91.2 C315,91.2 327.2,78.5 329.3,64.3 C331.1,51.6 323.5,43.3 313.1,44.8 L313.1,44.8 Z M326.5,64.7 C324.6,76.9 314.1,87.7 303.7,87.9 C294,88 289.2,78.5 292.3,67.4 C295.1,57.2 304,48.6 312.6,47.4 C321.7,46.1 328.2,53.5 326.5,64.7 L326.5,64.7 Z M317.2,31.3 C327.2,29.5 336.9,20 338.1,10.9 C339.3,2.5 332.6,-1.7 323.7,0.7 C315.3,3 307.1,10.7 304.9,18.6 C302.6,27 307.8,33 317.2,31.3 L317.2,31.3 Z M306.9,18.1 C308.8,11.2 316,4.3 323.4,2.4 C331.2,0.3 336.9,4.2 335.8,11.5 C334.6,19.3 326.3,27.5 317.7,29.1 C309.5,30.6 304.8,25.5 306.9,18.1 L306.9,18.1 Z M306,39.4 C308.4,29.8 303.3,24 295.1,25.8 C287.3,27.5 278.7,35.5 275.4,44.4 C271.8,54 275.4,61.6 284,60.7 C293.1,59.8 303.3,49.8 306,39.4 L306,39.4 Z M284.8,58.2 C277.3,59 274.1,52.5 277.2,44.1 C280.1,36.3 287.6,29.1 294.5,27.7 C301.7,26.2 306.1,31.3 303.9,39.7 C301.5,48.8 292.7,57.3 284.8,58.2 L284.8,58.2 Z M346.9,14.7 C336.3,17 326.8,26.3 325,36.3 C323,47.3 330.7,55.9 343.1,54.6 C356.4,53.2 367.9,41.3 367.9,29.2 C367.9,18.3 358.2,12.2 346.9,14.7 L346.9,14.7 Z M343.4,51.7 C332.7,52.9 325.8,45.5 327.4,35.9 C328.9,27 337.3,18.8 346.7,16.8 C356.6,14.7 365,20.2 364.9,29.7 C364.7,40.1 354.8,50.4 343.4,51.7 L343.4,51.7 Z" id="Shape" fill="#FFFFFF"></path>
                <path d="M315,24.7 L321.7,16.3 L331.3,14.8 L325.8,11 L331.5,3.3 L322.3,8.8 L317.3,5.9 L316.3,12.5 L307.4,18.2 L315.8,17.2 L315,24.7 L315,24.7 Z M312.3,16 L318.1,12.3 L318.4,8.3 L321.7,10.3 L328,6.4 L323.9,11.7 L327.3,14.1 L321.7,14.7 L317.5,19.9 L317.9,15.2 L312.3,16 L312.3,16 Z M353.6,28.1 L359.8,17.9 L348.1,24.6 L340.4,20.1 L340.5,29.2 L329.2,36.2 L340.7,35.8 L341.5,46.7 L349,35.3 L362.5,34.2 L353.6,28.1 L353.6,28.1 Z M348.5,33.1 L343.8,40.2 L343.2,33.5 L335.6,33.8 L342.9,29.2 L342.3,23.6 L347.4,26.7 L355.4,21.9 L351,29 L356.5,32.9 L348.5,33.1 L348.5,33.1 Z M312,58.8 L306.1,51.9 L304,63.6 L292.2,70.9 L302.7,72.1 L300.8,86.4 L310.4,72.7 L323,73.4 L316.2,64.1 L324.2,51.8 L312,58.8 L312,58.8 Z M317.7,70.7 L310.4,69.8 L304.4,78.2 L305.5,69.4 L298.6,68.7 L306.3,63.9 L307.1,56.6 L311,61.3 L319.4,56.3 L313.7,64.7 L317.7,70.7 L317.7,70.7 Z M295.2,38.2 L302.1,29.3 L292.6,34.9 L288.9,30.6 L286.4,38.7 L277.1,44.6 L284.8,44.6 L282.3,54.1 L290.3,44.4 L299.2,43.8 L295.2,38.2 L295.2,38.2 Z M285.5,48.5 L287,42.6 L282,42.7 L288,38.9 L289.2,33.9 L291.6,36.8 L298.1,32.8 L293.2,38.9 L295.6,42.5 L290.4,42.5 L285.5,48.5 L285.5,48.5 Z" id="Shape" fill="#EC2224"></path>
                <path d="M24.2,71.3 L24.2,67.8 L28.7,67.8 L28.7,66 L24.2,66 L24.2,62.9 L29,62.9 L29,61.1 L22.1,61.2 L22,73.1 L29.2,73 L29.2,71.2 L24.2,71.3 L24.2,71.3 Z M104.7,65.9 L104.7,67.6 L106.8,67.6 L106.8,70.6 C106.5,70.7 105.9,70.9 105.2,70.9 C102.7,70.9 101,69.3 101,66.6 C101,63.8 102.8,62.3 105.3,62.3 C106.6,62.3 107.4,62.5 108,62.8 L108.5,61 C107.9,60.7 106.8,60.4 105.3,60.5 C101.3,60.5 98.7,63 98.7,66.7 C98.7,68.5 99.3,70.1 100.4,71.1 C101.5,72.2 103.1,72.7 105.1,72.7 C106.7,72.7 108.2,72.3 108.9,72 L108.9,66 L104.7,65.9 L104.7,65.9 Z M82.5,70.8 L82.5,67.3 L87,67.3 L87,65.5 L82.5,65.5 L82.5,62.4 L87.3,62.4 L87.3,60.6 L80.4,60.6 L80.5,72.5 L87.7,72.4 L87.7,70.6 L82.5,70.8 L82.5,70.8 Z M117.1,60.4 L113.4,72.4 L115.7,72.4 L116.7,69 L120.5,69 L121.6,72.4 L123.9,72.4 L119.9,60.5 L117.1,60.4 L117.1,60.4 Z M117,67.3 L117.9,64.4 C118.1,63.7 118.3,62.9 118.5,62.2 L118.5,62.2 C118.7,62.9 118.9,63.7 119.1,64.4 L120.1,67.3 L117,67.3 L117,67.3 Z M242.8,67.8 L243.1,59.5 L240.8,59.5 L241.2,67.8 L242.8,67.8 L242.8,67.8 Z M60.7,60.8 L51.7,60.9 L51.7,62.7 L55.1,62.7 L55.2,72.8 L57.4,72.8 L57.3,62.7 L60.7,62.7 L60.7,60.8 L60.7,60.8 Z M12.4,71.3 L12.3,61.2 L10.1,61.2 L10.2,73.1 L17.3,73 L17.3,71.2 L12.4,71.3 L12.4,71.3 Z M72.5,60.7 L72.5,65.5 L67.4,65.5 L67.4,60.7 L65.2,60.7 L65.3,72.6 L67.5,72.6 L67.5,67.3 L72.6,67.3 L72.6,72.6 L74.8,72.6 L74.7,60.7 L72.5,60.7 L72.5,60.7 Z M42.3,61 L33.3,61.1 L33.3,62.9 L36.7,62.9 L36.8,73 L39,73 L38.9,62.9 L42.3,62.9 L42.3,61 L42.3,61 Z M218,59.7 L218.1,71.6 L220.3,71.6 L220.2,59.7 L218,59.7 L218,59.7 Z M137.4,60.3 L135.8,65.1 C135.3,66.5 135,68 134.6,69.3 L134.5,69.3 C134.2,68 133.8,66.6 133.4,65.2 L131.8,60.4 L128.9,60.4 L128.2,72.4 L130.2,72.4 L130.4,67.6 C130.5,66 130.5,64.1 130.6,62.5 L130.6,62.5 C130.9,64 131.4,65.6 131.8,67.2 L133.4,72.3 L135.1,72.3 L136.8,67.1 C137.3,65.6 137.8,64 138.2,62.5 L138.3,62.5 C138.3,64.1 138.4,66 138.5,67.5 L138.8,72.4 L140.9,72.4 L140.1,60.5 L137.4,60.3 L137.4,60.3 Z M233.3,59.6 L233.3,63.8 C233.3,65.6 233.4,67.2 233.5,68.8 L233.5,68.8 C232.9,67.5 232.2,66.1 231.4,64.8 L228.3,59.7 L225.8,59.7 L225.9,71.6 L227.9,71.6 L227.9,67.3 C227.9,65.3 227.9,63.8 227.8,62.2 L227.9,62.2 C228.5,63.5 229.3,65 230.1,66.3 L233.3,71.5 L235.6,71.5 L235.5,59.6 L233.3,59.6 L233.3,59.6 Z M241.9,68.9 C241.1,68.9 240.6,69.5 240.6,70.3 C240.6,71.1 241.1,71.7 241.9,71.7 L241.9,71.7 C242.7,71.7 243.2,71.1 243.2,70.3 C243.3,69.4 242.7,68.9 241.9,68.9 L241.9,68.9 Z M208.5,65.1 L208.5,66.8 L210.6,66.8 L210.6,69.8 C210.3,69.9 209.7,70.1 209,70.1 C206.5,70.1 204.8,68.5 204.8,65.8 C204.8,63 206.6,61.5 209.1,61.5 C210.4,61.5 211.2,61.7 211.8,62 L212.3,60.2 C211.7,59.9 210.6,59.6 209.1,59.7 C205.1,59.7 202.5,62.2 202.5,66 C202.5,67.8 203.1,69.4 204.2,70.4 C205.3,71.5 206.9,72 208.9,72 C210.5,72 212,71.6 212.7,71.3 L212.7,65.3 L208.5,65.1 L208.5,65.1 Z M193.1,70 L193.1,66.5 L197.6,66.5 L197.6,64.7 L193.1,64.7 L193.1,61.6 L197.9,61.6 L197.9,59.8 L191,59.9 L191.1,71.8 L198.3,71.7 L198.3,69.9 L193.1,70 L193.1,70 Z M148.5,70.3 L148.5,66.8 L153,66.8 L153,65 L148.5,65 L148.5,61.9 L153.3,61.9 L153.3,60.1 L146.4,60.2 L146.5,72.1 L153.7,72 L153.7,70.2 L148.5,70.3 L148.5,70.3 Z M162.7,65.1 C161.1,64.5 160.4,64.1 160.4,63.1 C160.4,62.4 161,61.7 162.4,61.7 C163.5,61.7 164.4,62 164.8,62.2 L165.3,60.4 C164.7,60.1 163.7,59.8 162.4,59.8 C159.8,59.8 158.2,61.3 158.2,63.3 C158.2,65 159.5,66.1 161.5,66.8 C163,67.3 163.6,67.9 163.6,68.8 C163.6,69.8 162.8,70.4 161.4,70.4 C160.3,70.4 159.2,70.1 158.5,69.7 L158,71.5 C158.7,71.9 160,72.2 161.2,72.2 C164.3,72.2 165.7,70.5 165.7,68.6 C165.8,66.9 164.8,65.9 162.7,65.1 L162.7,65.1 Z M183.5,65.5 L183.5,65.5 C184.8,65 185.5,64 185.5,62.9 C185.5,61.9 185,61.1 184.2,60.7 C183.4,60.1 182.4,60 180.8,60 C179.6,60 178.3,60.1 177.6,60.3 L177.7,72 C178.3,72.1 179.2,72.1 180.4,72.1 C182.6,72.1 184,71.7 184.8,71 C185.5,70.4 185.9,69.6 185.9,68.5 C185.9,66.8 184.7,65.8 183.5,65.5 L183.5,65.5 Z M179.7,61.6 C179.9,61.5 180.3,61.5 180.9,61.5 C182.3,61.5 183.1,62 183.1,63.1 C183.1,64.1 182.3,64.8 180.8,64.8 L179.7,64.8 L179.7,61.6 L179.7,61.6 Z M181,70.4 L179.8,70.4 L179.8,66.5 L180.9,66.5 C182.4,66.5 183.6,67 183.6,68.4 C183.6,69.8 182.4,70.4 181,70.4 L181,70.4 Z" id="Shape" fill="#FFFFFF"></path>
                <path d="M130,31.8 L142.6,31.8 L142.6,28.4 L130,28.4 L130,14.5 L144.2,14.5 L143.7,11.1 L126.1,11.1 L126.1,49.4 L144.8,49.4 L146,46 L130,46 L130,31.8 L130,31.8 Z M30.6,32.4 L39.2,32.4 L39.2,43.5 C36.6,45.5 32.7,46.7 29.1,46.7 C19.7,46.7 12.7,39.3 12.7,30.2 C12.7,21.1 19.7,13.7 29.1,13.7 C32.8,13.7 37,15.1 39.4,17.3 L42.3,15 C38.4,11.9 34,10.1 29.1,10.1 C16.8,10.2 8.8,20 8.8,30.3 C8.8,40.6 16.9,50.4 29.2,50.4 C34,50.4 38.8,48.8 43.1,45.1 L43.1,28.8 L30.6,28.8 L30.6,32.4 L30.6,32.4 Z M102.7,41.2 L86.8,10.2 L81.4,48.3 L62.7,10.2 L44.1,49.1 L48,49.7 L56.2,32.4 L69.3,32.4 L78,49.7 L81.6,49.1 L85.1,49.7 L88.8,22.4 L88.9,22.4 L102.4,49.1 L116.5,21.8 L116.6,21.8 L120.3,49.7 L123.9,49.1 L118.7,10.2 L102.7,41.2 L102.7,41.2 Z M58,28.8 L62.6,18 L67.7,28.8 L58,28.8 L58,28.8 Z M182.4,49.1 L186.3,49.7 L194.5,32.4 L207.6,32.4 L216.2,49.7 L220.1,49.1 L201,10.2 L182.4,49.1 L182.4,49.1 Z M196.3,28.8 L200.9,18 L206,28.8 L196.3,28.8 L196.3,28.8 Z M229.8,34.5 C235.8,33.8 240.6,29 240.6,23.3 C240.6,15.6 236,11.1 225.5,11.1 L220.8,11.1 L220.8,49.7 L224.6,49.1 L224.6,33.9 L224.7,33.9 L237.9,50.4 L241.6,48.5 L229.8,34.5 L229.8,34.5 Z M224.7,31.4 L224.7,14.5 L226.6,14.5 C233.5,14.5 236.9,17.6 236.9,22.7 C236.9,27.2 233.3,31.4 226.4,31.4 L224.7,31.4 L224.7,31.4 Z M157.7,28.9 C151.7,26.6 150.2,23.4 150.2,20.5 C150.2,17.2 152.7,13.7 156.5,13.7 C159.1,13.7 161,14.6 163.1,17 L165.1,13.8 C162.2,11.1 159.8,10.1 156.9,10.1 C151.2,10.1 146.3,14.4 146.3,20.8 C146.3,24.7 148,28.8 154.8,31.6 C160.8,34.2 162.1,36.3 162.1,39.4 C162.1,43.3 159.1,46.6 155.2,46.6 C152.3,46.6 149.8,44.8 147.5,41.7 L145.6,44.8 C148.3,48.5 151.2,50.2 154.9,50.2 C161.9,50.2 165.9,44.4 165.9,39.2 C166,34.5 163,31 157.7,28.9 L157.7,28.9 Z M190.5,11.1 L165.8,11.1 L165.2,14.9 L175.6,14.9 L175.6,49.7 L179.4,49.1 L179.4,15 L189.8,15 L190.5,11.1 L190.5,11.1 Z" id="Shape" fill="#FFFFFF"></path>
                <g transform="translate(0.000000, 76.000000)" id="Shape" fill="#ED2E2C">
                    <g>
                        <path d="M85.1,3.6 L88,3.6 L87,3.6 L88.9,3.6 C88.7,3.3 86.8,3.3 85.1,3.6 L85.1,3.6 Z"></path>
                        <path d="M89.4,3.3 L90.1,3.4 L89.7,3.3 L89.4,3.3 Z"></path>
                        <path d="M85.3,3.8 L86.3,3.8 L85.3,3.8 L85.3,3.8 Z"></path>
                        <path d="M87,3.9 C87.1,3.8 86.8,3.8 86.2,3.8 C86.5,3.8 85.8,3.9 87,3.9 L87,3.9 Z"></path>
                        <path d="M98.8,3.7 L101.2,3.5 C99.9,3.2 99.8,3.5 98.8,3.7 L98.8,3.7 Z"></path>
                        <path d="M89.6,3.3 L89.7,3.3 L92.8,3.1 L89.6,3.3 Z"></path>
                        <path d="M99.6,3.4 C98.1,3.3 98,3.2 96,3.2 L95.6,3.4 C96.3,3.3 96,3.2 97.4,3.2 C97.1,3.4 97.7,3.6 99.6,3.4 L99.6,3.4 Z"></path>
                        <path d="M98.8,3.7 L98,3.8 C98.4,3.7 98.6,3.7 98.8,3.7 L98.8,3.7 Z"></path>
                        <path d="M85.4,4.4 C85.7,4.4 83.2,4.6 82.3,4.7 C82.9,4.7 85.2,4.5 85.4,4.4 L85.4,4.4 Z"></path>
                        <path d="M73.1,5.5 L73,5.6 L74,5.5 L74.5,5.5 L73.1,5.5 Z"></path>
                        <path d="M158.2,1.2 L159.6,1.3 L159.8,1.3 L158.3,1.2 L158.2,1.2 Z"></path>
                        <path d="M32.7,9.4 L33.3,9.2 L31.9,9.4 L32.7,9.4 Z"></path>
                        <path d="M81.1,4.9 L81.8,4.9 C81.9,4.8 82.8,4.7 81.1,4.9 L81.1,4.9 Z"></path>
                        <path d="M64.9,5.7 L64.4,5.7 C64.5,5.7 64.7,5.8 64.9,5.7 L64.9,5.7 Z"></path>
                        <path d="M82.6,4.9 L81.8,4.9 C81.7,4.9 81.8,5 82.6,4.9 L82.6,4.9 Z"></path>
                        <path d="M64.3,5.6 C63.1,5.8 60,6.1 58.3,6.2 C57.6,6.4 59.7,6.3 60.3,6.4 C59.3,5.9 62.6,6.2 64,5.9 C63.6,5.9 62.7,6 62.4,5.9 C62.8,5.8 63.7,5.7 64.4,5.7 C64.2,5.7 64.2,5.6 64.3,5.6 L64.3,5.6 Z"></path>
                        <path d="M64.3,5.6 C64.5,5.6 64.7,5.5 64.8,5.5 C64.5,5.5 64.3,5.6 64.3,5.6 L64.3,5.6 Z"></path>
                        <path d="M48.3,7.1 L48.7,7 L47.5,7.2 L48.3,7.1 Z"></path>
                        <path d="M230.3,4.6 C230.6,4.6 230.7,4.6 230.7,4.5 L229.6,4.5 L230.3,4.6 L230.3,4.6 Z"></path>
                        <path d="M219.3,4.9 C220.6,5 220.4,5.3 221.8,5.2 C220.8,5.1 221.1,4.8 219.3,4.9 L219.3,4.9 Z"></path>
                        <path d="M195.9,2.4 L195.3,2.6 C196.4,2.6 197.5,2.8 197,2.9 C197.8,2.8 198.7,3 198.3,2.7 C198.1,2.6 195.9,2.5 195.9,2.4 L195.9,2.4 Z"></path>
                        <path d="M209.5,3.2 L211.8,3.4 C212.2,3.3 213,3.5 212.6,3.3 C211.5,3.3 210,3 209.5,3.2 L209.5,3.2 Z"></path>
                        <path d="M228.9,4.5 L229,4.6 L229.7,4.6 C229.4,4.4 229.2,4.4 228.9,4.5 L228.9,4.5 Z"></path>
                        <path d="M217.6,4.7 C218.3,4.8 219.3,4.8 219.5,4.8 C218.8,4.7 218.7,4.6 217.6,4.7 L217.6,4.7 Z"></path>
                        <path d="M232.1,4.3 L230.8,4.2 C231.4,4.2 231.3,4.3 231.4,4.3 C230.4,4.3 229.8,4.1 229.1,4 C229.5,4.1 231,4.3 230.7,4.5 C232.1,4.6 233.6,4.6 232.1,4.3 L232.1,4.3 Z"></path>
                        <path d="M145.5,1.1 L144.9,1.3 L146.3,1.2 L145.5,1.1 Z"></path>
                        <path d="M239.2,5.4 C239.3,5.5 239.1,5.5 239.5,5.6 L240.2,5.7 C241.1,5.7 240,5.5 239.2,5.4 L239.2,5.4 Z"></path>
                        <path d="M144,2.6 L145,2.6 C144.9,2.5 144.5,2.6 144,2.6 L144,2.6 Z"></path>
                        <path d="M139.8,1.7 C140.2,1.8 140.8,1.7 141.1,1.7 C141,1.8 141.2,1.8 142,1.8 C141.2,1.8 141.3,1.5 139.8,1.7 L139.8,1.7 Z"></path>
                        <path d="M190.1,2.3 C190.4,2.2 191.9,2.3 193.2,2.3 C192.6,2 190,2.1 190.1,2.3 L190.1,2.3 Z"></path>
                        <path d="M150.2,2.4 C149.9,2.1 148.9,2.5 147.4,2.4 C147.4,2.5 149.1,2.6 149.6,2.7 C150.3,2.7 149.3,2.5 149.1,2.5 C149.4,2.3 149.7,2.3 150.2,2.4 L150.2,2.4 Z"></path>
                        <path d="M142.7,1.8 L142,1.8 L142.7,1.8 L142.7,1.8 Z"></path>
                        <path d="M143,1.5 C143.6,1.6 146.4,1.4 146.8,1.7 C147.7,1.4 144.5,1.4 143,1.5 L143,1.5 Z"></path>
                        <path d="M160,2 L161.4,2.1 L161,2.1 L161.4,2.2 C161,1.9 163.3,2.2 164.2,2.2 C163.2,2.1 161.9,1.8 160,2 L160,2 Z"></path>
                        <path d="M175.9,2.8 C176.5,2.9 177.3,3.1 178.4,3 C177.5,2.7 177.1,2.9 175.9,2.8 L175.9,2.8 Z"></path>
                        <path d="M180.1,2.6 L180.8,2.6 C179.7,2.6 180.2,2.3 178.6,2.4 L179.5,2.4 C178.3,2.4 181,2.7 179.2,2.7 C178.5,2.7 180.4,2.9 181.3,2.8 C181.2,2.8 179.5,2.8 180.1,2.6 L180.1,2.6 Z"></path>
                        <path d="M6,13.6 L6.5,13.5 C6.6,13.4 6.4,13.5 6,13.6 L6,13.6 Z"></path>
                        <path d="M0.2,14.8 C0.7,15 4.5,13.9 6,13.6 C4.3,13.9 1.8,14.4 0.2,14.8 L0.2,14.8 Z"></path>
                        <path d="M6.8,13.9 C5.7,14.1 5.9,13.9 4.8,14.3 L6.8,13.9 L6.8,13.9 Z"></path>
                        <path d="M6,13.8 L7.2,13.5 L6.1,13.7 L6,13.8 Z"></path>
                        <path d="M110.3,1.5 L110,1.4 C109.9,1.5 110.1,1.5 110.3,1.5 L110.3,1.5 Z"></path>
                        <path d="M116,1.8 L115,1.8 L116,1.8 L116,1.8 Z"></path>
                        <path d="M106.8,1.7 L105.9,1.8" stroke="#ED2E2C"></path>
                        <path d="M51.2,6.1 L53.3,6.1 C52.8,6 52.7,5.9 51.2,6.1 L51.2,6.1 Z"></path>
                        <path d="M137.1,2.6 L136.9,2.7 C137.5,2.7 137.4,2.6 137.1,2.6 L137.1,2.6 Z"></path>
                        <path d="M116.2,3.1 L116.6,3 L116.4,3 C116.3,3 116.2,3 116.2,3.1 L116.2,3.1 Z"></path>
                        <path d="M101.9,2.1 L102.6,2.1 L101.9,2.1 L101.9,2.1 Z"></path>
                        <path d="M144.4,2.9 L143.6,2.7 C143.5,2.8 143.8,2.9 144.4,2.9 L144.4,2.9 Z"></path>
                        <path d="M116,1.8 L116.2,1.8 L116.1,1.8 L116,1.8 Z"></path>
                        <path d="M110.5,3.3 L109.4,3.3 L110.5,3.3 L110.5,3.3 Z"></path>
                        <path d="M54,6.1 L53.3,6.1 L54,6.1 L54,6.1 Z"></path>
                        <path d="M11.8,12.2 C12.1,12.2 12.4,12.2 12.8,12.1 C12.6,12.1 12.4,12 11.8,12.2 L11.8,12.2 Z"></path>
                        <path d="M251.4,6 L251.7,6.1" stroke="#ED2E2C"></path>
                        <path d="M226,3.7 C226,3.7 225.9,3.6 225.7,3.6 L226,3.7 L226,3.7 Z"></path>
                        <path d="M253,5.8 C252.4,5.6 253.2,5.6 253.1,5.5 L246.5,4.7 C246.8,4.8 247.7,4.9 247.3,5 C245.5,4.9 245.9,4.7 244.2,4.7 L244.9,4.9 C244.8,4.8 244.5,4.8 244.9,4.8 C245.5,4.8 245.7,4.9 245.7,5 C245.1,5.1 243.4,4.9 242.9,4.7 C240.7,4.5 242.4,4.9 242,4.9 C240.9,4.6 238.4,4.6 237.1,4.4 L237.9,4.6 C236.2,4.6 234.8,4.4 233.8,4.2 L234.2,4.4 C231.9,4.2 230.7,4.5 229,3.9 L229.2,4 C228.3,4 226.8,3.9 225.9,3.7 C225.9,3.8 225.7,3.8 225.3,3.8 C224.8,3.6 223.8,3.6 222.4,3.6 C223.3,3.7 223,3.9 224,4 C221.8,4.1 222.1,3.6 220.3,3.5 C219.2,3.6 221.3,3.7 221.5,3.8 C218.7,3.5 215.8,4 214,3.4 L215.2,3.3 C214.1,3.1 213.5,3.1 213.6,3.2 C214,3.2 214.1,3.3 214.2,3.3 C210.9,3.3 209,2.7 205.6,2.6 C205.8,2.7 206.3,2.8 206.3,2.8 C204.7,2.8 204.8,2.3 202.3,2.3 L202.8,2.4 C202,2.4 201.4,2.2 201.5,2.2 C201.4,2.6 196.2,1.9 194.4,2.3 C193.2,2 189.7,1.7 188.6,1.8 C187.1,2 190,2.1 189.4,2.3 C188.2,2.3 187.6,2 185.8,2 C185.8,1.8 189.4,1.7 186,1.5 L185.5,1.6 L186.8,1.6 C187.8,1.8 186.2,1.7 186,1.8 L182.4,1.6 C182.1,1.4 184.3,1.5 184.5,1.5 C181.6,1.4 178.2,1.7 175.5,1.4 L175.8,1.5 C172.4,1.2 173.8,1.9 171.1,1.4 C169.7,1.4 171.6,1.7 169.4,1.6 C168.8,1.6 169.1,1.5 169.3,1.5 C166.6,1.4 168.1,1.7 165.7,1.4 L166.2,1.7 C163.3,1.5 160.2,1 157.7,1.1 C157.8,1.3 159.4,1.3 160,1.4 C156.6,1 151.8,1.2 148.6,1.1 C149.5,0.9 147.1,0.7 149.1,0.6 C149.6,0.8 150.6,0.7 151.7,0.7 C149.9,0.2 144.4,1 143.8,0.5 L143.3,0.7 C142.8,0.7 141.6,0.5 142.4,0.5 L138.9,0.6 C140.1,0.7 142.7,1 143.5,0.8 C144.5,1 142.1,0.9 143,1.2 C140.7,0.9 141.6,1.3 139.2,1.3 C140.3,1 136.8,1 136.9,0.8 C136.1,0.8 134.4,0.8 133.7,0.7 C132.3,0.7 129.1,1 126.9,0.9 C127.8,1 129.1,1 129,1.2 C127.9,1.1 126.7,1.2 126.5,1.4 C130.4,1.7 127.7,0.9 131.3,1.1 C132.2,1.3 133.1,1.3 135,1.4 C134.2,1.5 134.5,1.6 134.2,1.8 C132,1.4 128.4,1.9 125.5,1.7 C124.3,1.6 125.2,1.3 122.4,1.3 L124.8,1.1 C122.2,1.3 124.2,1 122,1 L122.9,1.1 C121.6,1.2 121.1,1.1 120.3,1.1 L121.4,1.3 C120.7,1.4 119.4,1.4 119.3,1.3 C119.1,1.4 119.1,1.4 119.1,1.5 L117.8,1.5 L118.7,1.5 C115.5,1.6 118,1.8 116,1.8 C116.3,1.8 115.8,1.9 115,2 C115,1.6 111.1,1.7 110.1,1.6 L110.1,1.6 L107.4,1.6 C107.9,1.6 107.4,1.7 106.6,1.8 L106.7,1.8 C105.9,1.9 107.7,2.1 105.2,2.2 L103.9,2.2 C104.1,2.2 103.9,2.3 103.8,2.3 L102.4,2.3 C100.3,2.8 98.4,2.3 95.9,2.6 C96.6,2.5 97.7,2.5 97.2,2.6 C96.7,2.7 96,2.7 95.6,2.6 L95.7,2.6 L91,2.7 C91.4,2.8 94,2.6 92.9,2.9 C92.2,3.1 90.8,3 90,3.1 C90.1,3 91.7,2.8 90.1,2.9 C89.9,3 88.4,3.2 89.1,3.2 C87.5,3.2 85.1,3.3 83.7,3.3 C83.2,3.4 84,3.4 84.2,3.4 L84.3,3.4 C85.3,3.4 84.5,3.6 86.4,3.4 C86.6,3.7 83.7,3.7 82,3.9 L84.7,3.9 C80.2,4.7 74.1,4.7 69.7,5.1 C71,4.9 72.1,4.9 71.9,4.7 C69.1,4.8 69.5,4.8 66.7,5 L66.9,5 C65.5,5.2 63.5,5.1 62.6,5.4 C63.2,5.5 64.6,5.1 64.7,5.4 L61.2,5.6 C62.3,5.7 64.7,5.4 66,5.3 C67,5.2 64.1,5.4 64.5,5.2 C67.8,5 68.5,5.1 70.1,5.2 C71.1,5.3 68.7,5.5 68.1,5.6 C66,5.5 63,5.6 59.8,6 L58.3,6 C56.7,5.9 57.3,5.5 54.5,5.8 L55.4,5.9 C54.8,6 54.4,6.1 54.1,6.1 L57.8,6.1 C56.2,6.6 53.1,6.3 50.7,6.5 C50.8,6.5 51.7,6.4 51.9,6.5 C48.3,7 44.5,6.9 41.7,7.3 C40.6,7.6 44,7.1 43.5,7.4 C42,7.5 40.4,7.9 40,7.8 C40.7,8 36.7,8.3 39.5,8.2 C34.3,9.1 28.5,9.6 23.2,10.2 C23.5,10.2 23.5,10.3 23.3,10.4 C25.1,10.1 27.7,9.8 28.7,9.9 C27.5,10.2 25.9,10.1 25.6,10.2 C26.2,10.2 27.4,10 27.4,10.2 C25.9,10.6 25,10.5 23.9,10.6 L24.5,10.4 C21.1,10.7 22.6,10.2 19,10.8 C17.7,11.2 19,10.9 19.1,11.1 C18.2,11.1 15.6,11.9 14.7,11.8 L16.8,11.4 C15.3,11.6 13.9,11.9 12.8,12 C12.9,12 13,12.1 13.3,12 C12.1,12.1 10.6,12.5 9.9,12.5 L9.6,12.8 C10.3,12.5 12.4,12.1 12.8,12.1 C12.6,12.3 10.5,12.6 9.5,12.9 C13.6,12.1 13.8,12.5 17.2,11.6 L16.6,11.6 C18.8,11 21.1,11 23,10.7 C22.5,10.8 22.4,10.9 22.6,10.9 C26.8,10.1 31.1,9.7 35.9,8.8 L37.4,8.8 L37.5,8.6 C39.9,8.2 38,8.8 39.6,8.5 C39,8.6 39.1,8.5 39,8.5 C41.8,8.3 40.5,8.1 42.1,8 C41.3,7.9 39.1,8.4 39.8,8 C42.6,7.8 46.9,7.2 47.3,7.5 C52.4,6.7 58.8,6.5 63.1,6.2 C63.7,6.1 62.7,6.2 62.9,6.1 C64.6,6.2 68.6,5.5 68.7,5.7 C69.5,5.6 69.9,5.4 70.1,5.3 C71.2,5.3 72.5,5.3 73.9,5.2 L72.9,5.2 L73,5.2 L74.5,5.2 L74.4,5.2 C77.9,5 81.9,4.6 85.1,4.6 C83.5,4.6 85.1,4.4 84.8,4.3 C86.5,4.5 90.2,4.2 93.2,3.9 C93.2,3.8 93.4,3.8 93,3.7 L94.8,3.7 L94.7,4 C97.9,3.7 101.5,3.9 103.6,3.6 C102.3,3.6 102.3,3.6 102.1,3.5 C104.4,3.4 106.6,3.2 109.3,3.2 C109.2,3.2 109.1,3.2 109.1,3.1 C109.8,3 110.7,3.1 111.4,3.1 L111.5,2.9 C112.9,2.9 114.7,2.8 116.3,2.8 C116.9,2.6 120.3,2.8 122.2,2.7 C122.9,2.7 120.6,2.5 122.7,2.5 C123,2.9 125.4,2.5 125.5,2.8 L127.3,2.6 L127.7,2.8 C129.2,2.4 130,2.9 132.3,2.7 C132.2,2.7 131.9,2.7 132.1,2.6 C132.8,2.6 134.5,2.6 133.2,2.7 C134.4,2.7 138.5,2.7 136.7,2.5 C136.8,2.6 135.1,2.5 134.4,2.5 C134.5,2.3 136.3,2.3 136.8,2.2 C136.9,2.2 137.1,2.2 137.3,2.3 L137.6,2.2 C139.9,2.4 142.2,2.2 143.8,2.5 C143.9,2.4 144.3,2.4 145.1,2.4 L145.1,2.6 L147.5,2.6 L146.4,2.3 C149,2.2 150.9,2.5 153.1,2.6 C153.7,2.3 157.3,2.8 159.2,2.5 L157.5,2.4 C161.1,2.5 161.7,2.3 165.1,2.5 C162.2,2.6 162.2,2.5 158,2.8 C162.2,2.7 165.2,3 169.1,3 C168.8,2.9 167.9,2.8 168.8,2.8 C169.5,3 172.4,2.9 171.8,3.1 C173,3.1 173.2,2.9 173.9,2.9 L177.9,3.3 L177.8,3.3 C184.6,3 190.5,4.1 197.3,4.2 L197,4 L198.4,4.2 C197.6,4.1 199.2,4.1 199.3,4 L203.6,4.5 C203.7,4.4 203.5,4.2 202.4,4.1 C204.1,4.1 205.8,4.4 207.2,4.5 L206.7,4.4 L208.2,4.6 L208.2,4.5 C210.6,4.7 213.6,4.7 214.5,5 L214.2,4.8 L216.7,5.1 L215.2,4.9 C218.1,5 222.4,5.4 223,5.5 L222.7,5.4 C223.2,5.4 223.5,5.5 224,5.5 L223.6,5.4 C227.9,5.8 229.1,5.6 233.9,6.1 C235.2,6.2 233.2,6 233.2,5.9 C233.9,5.9 235.6,6.1 236,6.2 C235.6,6 233.6,5.9 235.2,5.8 C236.3,6 234.5,5.6 236.4,5.8 L237.1,6.1 C238.2,6.1 237.3,5.9 239,6.1 C240.9,6.4 236.6,6.2 239.7,6.5 C241.3,6.6 243,6.2 246,6.6 C248.6,6.7 244.7,6.1 248.3,6.5 L246,6.1 C246.6,6.1 246.2,5.9 247.8,6.1 C248.3,6.2 249.2,6.4 250.1,6.5 C246.7,6 253.1,6.5 250,5.9 L251.2,6 C251.1,6 251,6 251.1,5.9 L252.7,6 C251.7,5.9 249.5,5.6 250.5,5.6 L253,5.8 L253,5.8 Z M159.6,1.3 L158.1,1.2 L158.2,1.2 L159.6,1.3 L159.6,1.3 Z M32.7,9.4 L31.9,9.3 L33.3,9.1 L32.7,9.4 L32.7,9.4 Z M48.3,7.1 L47.5,7.2 L48.7,7 L48.3,7.1 L48.3,7.1 Z M64.4,5.7 C63.8,5.7 62.8,5.8 62.4,5.9 C62.7,6 63.6,5.9 64,5.9 C62.6,6.2 59.3,5.9 60.3,6.4 C59.7,6.4 57.6,6.4 58.3,6.2 C59.9,6.1 63,5.8 64.3,5.6 C64.4,5.6 64.5,5.5 64.8,5.5 C64.7,5.5 64.5,5.6 64.3,5.6 C64.2,5.6 64.2,5.7 64.4,5.7 L64.9,5.7 C64.7,5.8 64.5,5.7 64.4,5.7 L64.4,5.7 Z M81.8,4.9 L81.1,4.9 C82.8,4.7 81.9,4.8 81.8,4.9 L82.6,4.9 C81.8,5 81.7,4.9 81.8,4.9 L81.8,4.9 Z M85.4,4.4 C85.2,4.5 82.9,4.7 82.3,4.7 C83.2,4.5 85.7,4.3 85.4,4.4 L85.4,4.4 Z M87,3.9 C85.8,3.9 86.5,3.8 86.2,3.8 L85.2,3.8 L86.2,3.8 C86.7,3.8 87.1,3.8 87,3.9 L87,3.9 Z M88,3.6 L85.1,3.6 C86.8,3.4 88.7,3.4 89,3.5 L87.1,3.5 L88,3.6 L88,3.6 Z M89.4,3.3 L89.6,3.3 L89.5,3.3 L92.8,3.1 L89.6,3.3 L90,3.4 L89.4,3.3 L89.4,3.3 Z M97.3,3.2 C96,3.2 96.2,3.3 95.5,3.4 L95.9,3.2 C97.8,3.2 98,3.3 99.5,3.4 C97.7,3.6 97.1,3.4 97.3,3.2 L97.3,3.2 Z M98.8,3.7 C98.6,3.7 98.3,3.8 98,3.8 L98.8,3.7 C99.7,3.5 99.9,3.3 101.2,3.5 L98.8,3.7 L98.8,3.7 Z M145.5,1.1 L146.2,1.2 L144.9,1.2 L145.5,1.1 L145.5,1.1 Z M142,1.8 C141.2,1.8 141,1.8 141.1,1.7 C140.7,1.6 140.1,1.7 139.8,1.7 C141.3,1.5 141.2,1.8 142,1.8 L142.7,1.8 L142,1.8 L142,1.8 Z M144,2.6 C144.5,2.6 144.9,2.5 145,2.6 L144,2.6 L144,2.6 Z M146.8,1.7 C146.4,1.4 143.7,1.6 143,1.5 C144.5,1.4 147.7,1.4 146.8,1.7 L146.8,1.7 Z M149.6,2.6 C149.1,2.5 147.4,2.5 147.4,2.3 C148.9,2.4 149.9,2 150.2,2.3 L149.1,2.3 C149.3,2.4 150.3,2.5 149.6,2.6 L149.6,2.6 Z M161.4,2.2 L161,2.1 L161.4,2.1 L160,2 C161.9,1.8 163.3,2.2 164.2,2.2 C163.3,2.2 161,1.9 161.4,2.2 L161.4,2.2 Z M175.9,2.8 C177,2.9 177.5,2.7 178.4,3 C177.3,3.1 176.6,2.9 175.9,2.8 L175.9,2.8 Z M179.3,2.7 C181.1,2.7 178.4,2.5 179.6,2.4 L178.7,2.4 C180.2,2.3 179.8,2.6 180.9,2.6 L180.2,2.6 C179.6,2.7 181.3,2.7 181.4,2.9 C180.5,2.9 178.5,2.8 179.3,2.7 L179.3,2.7 Z M190.1,2.3 C190,2.2 192.6,2.1 193.2,2.3 C191.9,2.3 190.5,2.2 190.1,2.3 L190.1,2.3 Z M197,2.8 C197.5,2.8 196.4,2.5 195.3,2.5 L195.9,2.3 C195.9,2.4 198.1,2.6 198.3,2.6 C198.7,2.9 197.9,2.8 197,2.8 L197,2.8 Z M211.8,3.4 L209.5,3.2 C210,3 211.5,3.3 212.6,3.3 C213,3.5 212.2,3.4 211.8,3.4 L211.8,3.4 Z M217.6,4.7 C218.7,4.6 218.8,4.7 219.5,4.8 C219.3,4.8 218.3,4.8 217.6,4.7 L217.6,4.7 Z M219.3,4.9 C221.1,4.9 220.8,5.1 221.8,5.2 C220.4,5.2 220.6,5 219.3,4.9 L219.3,4.9 Z M230.7,4.5 C230.7,4.5 230.5,4.6 230.3,4.6 L229.6,4.5 L228.9,4.5 L228.8,4.4 L229.6,4.4 C230,4.5 230.3,4.5 230.7,4.5 C231,4.4 229.5,4.2 229.1,4 C229.8,4.1 230.4,4.3 231.4,4.3 C231.3,4.2 231.4,4.2 230.8,4.2 L232.1,4.3 C233.6,4.6 232.1,4.6 230.7,4.5 L230.7,4.5 Z M240.2,5.7 L239.5,5.6 C239.1,5.5 239.4,5.5 239.2,5.4 C240,5.5 241.1,5.7 240.2,5.7 L240.2,5.7 Z"></path>
                        <path d="M198.4,4.2 L198.6,4.2 L198.4,4.2 L198.4,4.2 Z"></path>
                        <path d="M222.6,3.6 C222.4,3.6 222.1,3.6 221.6,3.5 L222.6,3.6 L222.6,3.6 Z"></path>
                        <path d="M137.2,0.9 C137.4,0.9 137.6,0.9 137.6,0.8 C137.4,0.8 137.3,0.9 137.2,0.9 L137.2,0.9 Z"></path>
                        <path d="M133.9,0.8 L134,0.8 L134.1,0.8 L133.9,0.8 Z"></path>
                        <path d="M12.8,11.8 C13.3,11.8 13.5,11.6 14.1,11.5 C13.5,11.6 12,11.8 12.8,11.8 L12.8,11.8 Z"></path>
                        <path d="M16,11.4 C16.6,11.3 17.1,11.2 17.5,11.2 C16.8,11.2 16.4,11.3 16,11.4 L16,11.4 Z"></path>
                        <path d="M16,11.4 C15.4,11.5 14.6,11.7 13.7,11.9 C14.9,11.7 15.4,11.5 16,11.4 L16,11.4 Z"></path>
                        <path d="M28,9.6 C28,9.6 29.4,9.3 30.2,9.3 C29.1,9.3 29,9.2 27.1,9.4 C27.3,9.4 31.1,9 28,9.6 L28,9.6 Z"></path>
                        <path d="M33.4,8.9 L34.3,8.8 C33.9,8.8 33.6,8.9 33.4,8.9 L33.4,8.9 Z"></path>
                        <path d="M35.4,8.5 C35.8,8.6 35,8.7 34.3,8.8 C35.3,8.7 36.1,8.8 37.4,8.5 C36.8,8.5 36.4,8.4 35.4,8.5 L35.4,8.5 Z"></path>
                        <path d="M68.4,4.4 C68.8,4.4 70.1,4.2 69.3,4.2 L67.5,4.3 C67.6,4.5 68.2,4.4 68.4,4.4 L68.4,4.4 Z"></path>
                        <path d="M76.5,4 C75.8,4 76.5,4.1 75.1,4.2 L76.4,4.2 L76.5,4 L76.5,4 Z"></path>
                        <path d="M74.4,5.5 L74.5,5.5 L74,5.5 L74.4,5.5 Z"></path>
                        <path d="M81,3.3 L82,3.5 C82.3,3.4 82.2,3.2 81,3.3 L81,3.3 Z"></path>
                        <path d="M89.3,2.7 L86.7,2.8 L87.5,2.8 L89.3,2.7 Z"></path>
                        <path d="M94.4,2.4 L94.2,2.5 L96.2,2.4 L94.4,2.4 Z"></path>
                        <path d="M166.5,1.2 C165.3,1.5 163.6,1.1 163,1.3 C163.9,1.3 166.8,1.4 166.5,1.2 L166.5,1.2 Z"></path>
                        <path d="M216.3,3.3 L219.1,3.5 C216.9,3.3 218.5,3.3 216.3,3.3 L216.3,3.3 Z"></path>
                    </g>
                </g>
            </g>
            <g id="Group" transform="translate(37.000000, 100.000000)" fill="#FFFFFF">
                <path d="M1.4,2.1 L2.6,6.5 C2.9,7.5 3.1,8.4 3.2,9.3 L3.3,9.3 C3.5,8.4 3.8,7.5 4.1,6.5 L5.5,2.1 L6.8,2.1 L8.2,6.5 C8.5,7.5 8.8,8.5 9,9.3 L9,9.3 C9.1,8.4 9.4,7.5 9.7,6.5 L10.9,2.1 L12.5,2.1 L9.7,10.8 L8.3,10.8 L7,6.6 C6.7,5.6 6.4,4.8 6.2,3.7 L6.2,3.7 C6,4.7 5.7,5.6 5.4,6.6 L4,10.7 L2.6,10.7 L2.13162821e-14,2 L1.4,2 L1.4,2.1 Z" id="Shape"></path>
                <path d="M18.5,2.1 L19.7,6.5 C20,7.5 20.2,8.4 20.3,9.3 L20.4,9.3 C20.6,8.4 20.9,7.5 21.2,6.5 L22.6,2.1 L23.9,2.1 L25.3,6.5 C25.6,7.5 25.9,8.5 26.1,9.3 L26,9.3 C26.1,8.4 26.4,7.5 26.7,6.5 L27.9,2.1 L29.5,2.1 L26.7,10.8 L25.3,10.8 L24,6.6 C23.7,5.6 23.4,4.8 23.2,3.7 L23.2,3.7 C23,4.7 22.7,5.6 22.4,6.6 L21,10.7 L19.6,10.7 L17,2 L18.5,2 L18.5,2.1 Z" id="Shape"></path>
                <path d="M35.5,2.1 L36.7,6.5 C37,7.5 37.2,8.4 37.3,9.3 L37.4,9.3 C37.6,8.4 37.9,7.5 38.2,6.5 L39.6,2.1 L40.9,2.1 L42.3,6.5 C42.6,7.5 42.9,8.5 43.1,9.3 L43.2,9.3 C43.3,8.4 43.6,7.5 43.9,6.5 L45.1,2.1 L46.7,2.1 L43.9,10.8 L42.5,10.8 L41.2,6.6 C40.9,5.6 40.6,4.8 40.4,3.7 L40.4,3.7 C40.2,4.7 39.9,5.6 39.6,6.6 L38.2,10.7 L36.8,10.7 L34.2,2 L35.5,2 L35.5,2.1 Z" id="Shape"></path>
                <path d="M51.7,11 C51.1,11 50.7,10.5 50.7,9.9 C50.7,9.2 51.1,8.8 51.8,8.8 C52.5,8.8 52.9,9.3 52.9,9.9 C52.8,10.5 52.4,11 51.7,11 L51.7,11 L51.7,11 Z" id="Shape"></path>
                <path d="M65.8,9.5 C65.8,11.5 65.4,12.7 64.6,13.5 C63.8,14.3 62.5,14.5 61.4,14.5 C60.4,14.5 59.2,14.2 58.5,13.8 L58.9,12.6 C59.5,13 60.4,13.3 61.5,13.3 C63.1,13.3 64.3,12.5 64.3,10.3 L64.3,9.3 C63.8,10.1 62.9,10.8 61.5,10.8 C59.3,10.8 57.8,9 57.8,6.6 C57.8,3.6 59.7,2 61.7,2 C63.2,2 64,2.8 64.4,3.5 L64.4,3.5 L64.5,2.2 L65.9,2.2 C65.9,2.8 65.8,3.5 65.8,4.6 L65.8,9.5 L65.8,9.5 Z M64.3,5.5 C64.3,5.2 64.3,5 64.2,4.8 C63.9,3.9 63.1,3.1 62,3.1 C60.5,3.1 59.4,4.4 59.4,6.4 C59.4,8.1 60.3,9.5 62,9.5 C63,9.5 63.9,8.9 64.2,7.9 C64.3,7.6 64.3,7.3 64.3,7.1 L64.3,5.5 L64.3,5.5 Z" id="Shape"></path>
                <path d="M78.2,8.7 C78.2,9.5 78.2,10.2 78.3,10.8 L76.9,10.8 L76.8,9.7 L76.7,9.7 C76.2,10.4 75.3,11 74,11 C72.2,11 71.3,9.8 71.3,8.5 C71.3,6.4 73.2,5.2 76.5,5.3 L76.5,5 C76.5,4.3 76.3,3 74.5,3 C73.7,3 72.8,3.3 72.2,3.6 L71.8,2.6 C72.5,2.1 73.6,1.8 74.7,1.8 C77.4,1.8 78,3.6 78,5.4 L78,8.7 L78.2,8.7 Z M76.6,6.3 C74.9,6.3 72.9,6.6 72.9,8.3 C72.9,9.3 73.6,9.8 74.4,9.8 C75.5,9.8 76.3,9.1 76.5,8.3 C76.6,8.1 76.6,8 76.6,7.8 L76.6,6.3 L76.6,6.3 Z" id="Shape"></path>
                <path d="M84.3,4.4 C84.3,3.5 84.3,2.8 84.2,2 L85.6,2 L85.7,3.4 L85.8,3.4 C86.3,2.6 87.1,1.8 88.5,1.8 C89.7,1.8 90.6,2.5 91,3.5 L91,3.5 C91.3,3 91.6,2.6 92,2.4 C92.5,2 93.1,1.8 93.9,1.8 C95.1,1.8 96.8,2.6 96.8,5.6 L96.8,10.7 L95.3,10.7 L95.3,5.8 C95.3,4.1 94.7,3.1 93.4,3.1 C92.5,3.1 91.8,3.8 91.5,4.5 C91.4,4.7 91.4,5 91.4,5.3 L91.4,10.7 L89.9,10.7 L89.9,5.5 C89.9,4.1 89.3,3.1 88.1,3.1 C87.1,3.1 86.4,3.9 86.1,4.7 C86,4.9 86,5.2 86,5.5 L86,10.8 L84.5,10.8 L84.5,4.4 L84.3,4.4 Z" id="Shape"></path>
                <path d="M103.8,6.7 C103.8,8.8 105.2,9.7 106.8,9.7 C107.9,9.7 108.6,9.5 109.2,9.2 L109.5,10.3 C108.9,10.6 108,10.9 106.6,10.9 C103.9,10.9 102.3,9.1 102.3,6.5 C102.3,3.9 103.8,1.8 106.4,1.8 C109.2,1.8 110,4.3 110,5.9 C110,6.2 110,6.5 109.9,6.6 L103.8,6.6 L103.8,6.7 Z M108.5,5.6 C108.5,4.6 108.1,3 106.3,3 C104.7,3 104,4.5 103.9,5.6 L108.5,5.6 L108.5,5.6 Z" id="Shape"></path>
                <path d="M115.3,9.2 C115.8,9.5 116.6,9.8 117.4,9.8 C118.6,9.8 119.1,9.2 119.1,8.5 C119.1,7.7 118.6,7.3 117.5,6.9 C115.9,6.3 115.2,5.5 115.2,4.4 C115.2,3 116.3,1.8 118.2,1.8 C119.1,1.8 119.9,2.1 120.3,2.3 L119.9,3.5 C119.6,3.3 118.9,3 118.1,3 C117.2,3 116.6,3.5 116.6,4.2 C116.6,4.9 117.1,5.2 118.3,5.7 C119.8,6.3 120.6,7 120.6,8.3 C120.6,9.8 119.4,10.9 117.3,10.9 C116.3,10.9 115.5,10.6 114.9,10.3 L115.3,9.2 L115.3,9.2 Z" id="Shape"></path>
                <path d="M128.2,0 L128.2,2.1 L130.5,2.1 L130.5,3.3 L128.2,3.3 L128.2,8 C128.2,9.1 128.5,9.7 129.4,9.7 C129.8,9.7 130.1,9.7 130.3,9.6 L130.4,10.8 C130.1,10.9 129.6,11 129,11 C128.3,11 127.7,10.7 127.3,10.3 C126.8,9.8 126.7,9.1 126.7,8 L126.7,3.2 L125.3,3.2 L125.3,2 L126.7,2 L126.7,0.4 L128.2,0 L128.2,0 Z" id="Shape"></path>
                <path d="M142,8.7 C142,9.5 142,10.2 142.1,10.8 L140.7,10.8 L140.6,9.7 L140.5,9.7 C140,10.4 139.1,11 137.8,11 C136,11 135.1,9.8 135.1,8.5 C135.1,6.4 137,5.2 140.3,5.3 L140.3,5 C140.3,4.3 140.1,3 138.3,3 C137.5,3 136.6,3.3 136,3.6 L135.6,2.6 C136.3,2.1 137.4,1.8 138.5,1.8 C141.2,1.8 141.8,3.6 141.8,5.4 L141.8,8.7 L142,8.7 Z M140.4,6.3 C138.7,6.3 136.7,6.6 136.7,8.3 C136.7,9.3 137.4,9.8 138.2,9.8 C139.3,9.8 140.1,9.1 140.3,8.3 C140.4,8.1 140.4,8 140.4,7.8 L140.4,6.3 L140.4,6.3 Z" id="Shape"></path>
                <path d="M148.1,4.8 C148.1,3.8 148.1,2.9 148,2.1 L149.4,2.1 L149.5,3.8 L149.6,3.8 C150,2.6 151,1.9 152,1.9 C152.2,1.9 152.3,1.9 152.5,2 L152.5,3.5 C152.3,3.5 152.2,3.4 152,3.4 C150.9,3.4 150.1,4.2 149.9,5.4 C149.9,5.6 149.8,5.9 149.8,6.1 L149.8,10.7 L148.2,10.7 L148.2,4.8 L148.1,4.8 Z" id="Shape"></path>
                <path d="M157.3,11 C156.7,11 156.3,10.5 156.3,9.9 C156.3,9.2 156.8,8.8 157.4,8.8 C158,8.8 158.5,9.3 158.5,9.9 C158.4,10.5 158,11 157.3,11 L157.3,11 L157.3,11 Z" id="Shape"></path>
                <path d="M164.9,6.7 C164.9,8.8 166.3,9.7 167.9,9.7 C169,9.7 169.7,9.5 170.3,9.2 L170.6,10.3 C170,10.6 169.1,10.9 167.7,10.9 C165,10.9 163.4,9.1 163.4,6.5 C163.4,3.9 164.9,1.8 167.5,1.8 C170.3,1.8 171.1,4.3 171.1,5.9 C171.1,6.2 171.1,6.5 171,6.6 L164.9,6.6 L164.9,6.7 Z M169.5,5.6 C169.5,4.6 169.1,3 167.3,3 C165.7,3 165,4.5 164.9,5.6 L169.5,5.6 L169.5,5.6 Z" id="Shape"></path>
                <path d="M177.5,6.7 C177.5,8.8 178.9,9.7 180.5,9.7 C181.6,9.7 182.3,9.5 182.9,9.2 L183.2,10.3 C182.6,10.6 181.7,10.9 180.3,10.9 C177.6,10.9 176,9.1 176,6.5 C176,3.9 177.5,1.8 180.1,1.8 C182.9,1.8 183.7,4.3 183.7,5.9 C183.7,6.2 183.7,6.5 183.6,6.6 L177.5,6.6 L177.5,6.7 Z M182.1,5.6 C182.1,4.6 181.7,3 179.9,3 C178.3,3 177.6,4.5 177.5,5.6 L182.1,5.6 L182.1,5.6 Z" id="Shape"></path>
            </g>
        </g>
    </g>
</svg>