<?xml version="1.0" encoding="UTF-8" standalone="no"?>
<svg viewBox="0 0 298 101" version="1.1" xmlns="http://www.w3.org/2000/svg" xmlns:xlink="http://www.w3.org/1999/xlink">
    <defs></defs>
    <g id="Page-1" stroke="none" stroke-width="1" fill="none" fill-rule="evenodd">
        <g id="logo-vipline" fill="#FFFFFF">
            <g id="Page-1">
                <g id="Imported-Layers">
                    <path d="M290.1,10 L292,10 C292.4,10 292.7,10 293,9.9 C293.2,9.8 293.4,9.7 293.5,9.5 C293.6,9.3 293.7,9.1 293.7,8.9 C293.7,8.6 293.6,8.3 293.4,8.1 C293.2,7.9 292.8,7.8 292.3,7.8 L290.2,7.8 L290.2,10 L290.1,10 L290.1,10 Z M289.2,13.8 L289.2,7 L292.2,7 C292.8,7 293.3,7.1 293.6,7.2 C293.9,7.3 294.2,7.5 294.4,7.8 C294.6,8.1 294.7,8.4 294.7,8.8 C294.7,9.3 294.5,9.7 294.2,10 C293.9,10.3 293.4,10.5 292.8,10.6 C293,10.7 293.2,10.8 293.3,10.9 C293.6,11.1 293.8,11.4 294,11.8 L295.2,13.6 L294.1,13.6 L293.2,12.2 C292.9,11.8 292.7,11.5 292.6,11.3 C292.4,11.1 292.3,10.9 292.1,10.8 C292,10.7 291.8,10.7 291.7,10.6 L291.2,10.6 L290.2,10.6 L290.2,13.6 L289.2,13.6 L289.2,13.8 L289.2,13.8 Z" id="Fill-1"></path>
                    <path d="M75.8,77.7 L87,14.4 L118.5,14.4 C122.7,14.4 126.4,15.5 129.6,17.7 C132.8,19.9 135.1,22.9 136.5,26.7 C137.9,30.5 138.3,34.7 137.4,39.3 C136.6,43.7 134.8,47.8 132.1,51.5 C129.3,55.2 125.9,58.1 121.9,60.2 C117.9,62.3 113.7,63.4 109.5,63.4 L98.9,63.4 L101.4,49.1 L106.1,49.1 C108.2,49.1 110.2,48.7 112.1,47.9 C114,47.1 115.5,45.9 116.8,44.5 C118,43.1 118.8,41.4 119.2,39.5 C119.4,38.2 119.4,36.8 119.1,35.5 C118.8,34.2 118.2,33.1 117.4,32.1 C116.6,31.1 115.5,30.3 114.2,29.7 C112.9,29.1 111.4,28.8 109.8,28.8 L101.2,28.8 L92.5,77.8 L75.8,77.7" id="Fill-2"></path>
                    <path d="M277.3,49.5 L274.8,63.8 L246.6,63.8 C243,63.8 239.7,63.2 236.5,62.1 C233.4,60.9 230.7,59.3 228.5,57.1 C226.3,54.9 224.7,52.3 223.8,49.2 C222.9,46.1 222.7,42.7 223.4,39.1 C224.1,35 226.1,31 229.3,27.3 C232.5,23.6 236.4,20.5 241.1,18.3 C245.7,16 250.5,14.9 255.4,14.9 L283.5,14.9 L281,29.2 L267,45.5 L248.1,45.5 L262.7,29.2 L254.1,29.2 C252,29.2 250.1,29.6 248.3,30.5 C246.5,31.3 245.1,32.5 243.9,34 C242.7,35.5 242,37.2 241.7,39.1 C241.4,41.1 241.5,42.9 242.2,44.5 C242.9,46.1 243.9,47.4 245.4,48.3 C246.9,49.2 248.6,49.7 250.5,49.7 L277.3,49.5" id="Fill-3"></path>
                    <path d="M166.7,63.7 L175.4,14.7 L208.2,14.7 C210.2,14.7 212.2,15.2 214.1,16.2 C216,17.2 217.5,18.5 218.8,20.2 C220.1,21.8 221,23.7 221.6,25.7 C222.2,27.7 222.3,29.8 221.9,31.9 L216.2,63.8 L199.5,63.8 L204.8,34 C204.9,33.2 204.8,32.5 204.5,31.7 C204.1,31 203.6,30.3 202.9,29.8 C202.2,29.3 201.5,29 200.7,29 L189.6,29 L183.4,63.7 L166.7,63.7" id="Fill-4"></path>
                    <path d="M153.8,18.8 L170.5,18.8 L162.5,63.7 L145.8,63.7 L153.8,18.8" id="Fill-5"></path>
                    <path d="M157.1,0.4 L173.8,0.4 L171.3,14.7 L154.6,14.7 L157.1,0.4" id="Fill-6"></path>
                    <path d="M23,27.3 L19.8,14.3 L0.4,14.3 L11.4,63.3 L35.4,63.3 L53.8,44.7 C55.5,42.9 57,41 58.2,38.8 C59.4,36.6 60.2,34.4 60.6,32.2 C61.1,29.2 60.9,26.2 59.9,23.5 C59,20.7 57.4,18.5 55.1,16.8 C52.8,15.1 50,14.3 46.6,14.2 L24.2,14.2 L27.5,28.5 L37.9,28.5 C39.3,28.5 40.4,28.9 41.2,29.8 C42,30.7 42.3,31.8 42,33.2 C41.6,35.3 40.8,37 39.6,38.3 L28.6,49.5 L23,27.3" id="Fill-7"></path>
                    <path d="M65.5,18.5 L82.2,18.5 L74.2,63.4 L57.5,63.4 L65.5,18.5" id="Fill-8"></path>
                    <path d="M68.8,0.1 L85.5,0.1 L83,14.4 L66.3,14.4 L68.8,0.1" id="Fill-9"></path>
                    <path d="M139.6,69.4 L152.4,0.4 L137.3,0.3 L134,18.9 C146.4,30.1 139.1,52.8 126.3,60.5 L123.4,77.8 L272.1,78.3 L273.7,69.4 L139.6,69.4" id="Fill-10"></path>
                    <path d="M104.3,31.6 L109.5,31.6 C110.7,31.6 111.7,31.8 112.6,32.3 C113.5,32.7 114.3,33.3 114.9,34 C115.5,34.7 115.9,35.5 116.1,36.5 C116.3,37.4 116.4,38.4 116.2,39.3 C116,40.6 115.4,41.8 114.5,42.9 C113.6,43.9 112.5,44.8 111.2,45.3 C109.9,45.9 108.4,46.2 106.9,46.2 L102,46.2 L104.3,31.6" id="Fill-11"></path>
                    <path d="M292.1,5.5 C294.9,5.5 297.1,7.7 297.1,10.5 C297.1,13.3 294.9,15.5 292.1,15.5 C289.3,15.5 287.1,13.3 287.1,10.5 C287,7.7 289.3,5.5 292.1,5.5 M292.1,4.8 C295.3,4.8 297.8,7.4 297.8,10.5 C297.8,13.7 295.2,16.2 292.1,16.2 C288.9,16.2 286.4,13.6 286.4,10.5 C286.3,7.3 288.9,4.8 292.1,4.8" id="Fill-12"></path>
                    <path d="M14.7,99.4 C14.7,99.5 14.7,99.5 14.6,99.6 C14.6,99.7 14.5,99.7 14.4,99.7 C14.3,99.7 14.2,99.8 14,99.8 L13.4,99.8 L12.8,99.8 C12.6,99.8 12.5,99.8 12.4,99.7 C12.3,99.7 12.2,99.6 12.2,99.6 C12.2,99.5 12.1,99.5 12.1,99.4 L12.1,87.3 C12.1,87.2 12.1,87.2 12.2,87.1 C12.2,87 12.3,87 12.4,87 C12.5,87 12.6,86.9 12.8,86.9 L13.4,86.9 L14,86.9 C14.2,86.9 14.3,86.9 14.4,87 C14.5,87 14.6,87.1 14.6,87.1 C14.6,87.2 14.7,87.2 14.7,87.3 L14.7,99.4" id="Fill-13"></path>
                    <path d="M25.3,98.7 L25.3,99.2 C25.3,99.3 25.3,99.4 25.2,99.5 C25.2,99.6 25.1,99.7 25.1,99.7 C25,99.7 25,99.8 24.9,99.8 L19,99.8 C18.8,99.8 18.6,99.7 18.5,99.6 C18.4,99.5 18.3,99.3 18.3,99 L18.3,87.3 C18.3,87.2 18.3,87.2 18.4,87.1 C18.4,87 18.5,87 18.6,87 C18.7,87 18.8,86.9 19,86.9 L19.6,86.9 L20.2,86.9 C20.4,86.9 20.5,86.9 20.6,87 C20.7,87 20.8,87.1 20.8,87.1 C20.8,87.2 20.9,87.2 20.9,87.3 L20.9,97.6 L24.9,97.6 C25,97.6 25,97.6 25.1,97.7 C25.2,97.7 25.2,97.8 25.2,97.9 C25.2,98 25.3,98.1 25.3,98.2 C25.3,98.3 25.3,98.5 25.3,98.7" id="Fill-14"></path>
                    <path d="M34.6,98.7 L34.6,99.2 C34.6,99.3 34.6,99.4 34.5,99.5 C34.5,99.6 34.4,99.7 34.4,99.7 C34.3,99.7 34.3,99.8 34.2,99.8 L28.3,99.8 C28.1,99.8 27.9,99.7 27.8,99.6 C27.7,99.5 27.6,99.3 27.6,99 L27.6,87.3 C27.6,87.2 27.6,87.2 27.7,87.1 C27.7,87 27.8,87 27.9,87 C28,87 28.1,86.9 28.3,86.9 L28.9,86.9 L29.5,86.9 C29.7,86.9 29.8,86.9 29.9,87 C30,87 30.1,87.1 30.1,87.1 C30.1,87.2 30.2,87.2 30.2,87.3 L30.2,97.6 L34.2,97.6 C34.3,97.6 34.3,97.6 34.4,97.7 C34.5,97.7 34.5,97.8 34.5,97.9 C34.5,98 34.6,98.1 34.6,98.2 C34.6,98.3 34.6,98.5 34.6,98.7" id="Fill-15"></path>
                    <path d="M46.9,95 C46.9,95.8 46.8,96.5 46.6,97.1 C46.4,97.7 46,98.2 45.6,98.7 C45.2,99.1 44.6,99.5 43.9,99.7 C43.2,99.9 42.5,100 41.6,100 C40.8,100 40.1,99.9 39.4,99.7 C38.8,99.5 38.2,99.2 37.8,98.8 C37.4,98.4 37,97.9 36.8,97.3 C36.6,96.7 36.4,96 36.4,95.2 L36.4,87.4 C36.4,87.3 36.4,87.3 36.5,87.2 C36.5,87.1 36.6,87.1 36.7,87.1 C36.8,87.1 36.9,87 37.1,87 L37.7,87 L38.3,87 C38.5,87 38.6,87 38.7,87.1 C38.8,87.1 38.9,87.2 38.9,87.2 C38.9,87.3 39,87.3 39,87.4 L39,95 C39,95.5 39.1,95.9 39.2,96.3 C39.3,96.7 39.5,97 39.7,97.2 C39.9,97.4 40.2,97.6 40.5,97.7 C40.8,97.8 41.2,97.9 41.6,97.9 C42,97.9 42.4,97.8 42.7,97.7 C43,97.6 43.3,97.4 43.5,97.2 C43.7,97 43.9,96.7 44,96.3 C44.1,95.9 44.2,95.5 44.2,95.1 L44.2,87.4 C44.2,87.3 44.2,87.3 44.3,87.2 C44.3,87.1 44.4,87.1 44.5,87.1 C44.6,87.1 44.7,87 44.9,87 L45.5,87 L46.1,87 C46.3,87 46.4,87 46.5,87.1 C46.6,87.1 46.7,87.2 46.7,87.2 C46.7,87.3 46.8,87.3 46.8,87.4 L46.8,95" id="Fill-16"></path>
                    <path d="M65.4,99.4 C65.4,99.5 65.4,99.5 65.3,99.6 C65.3,99.7 65.2,99.7 65.1,99.7 C65,99.7 64.9,99.8 64.7,99.8 L64.1,99.8 L63.5,99.8 C63.3,99.8 63.2,99.8 63.1,99.7 C63,99.7 62.9,99.6 62.9,99.6 C62.9,99.5 62.8,99.5 62.8,99.4 L62.8,89 L59.1,99.4 C59.1,99.5 59,99.6 59,99.6 C58.9,99.7 58.9,99.7 58.8,99.7 C58.7,99.7 58.6,99.8 58.4,99.8 L57.8,99.8 L57.2,99.8 C57,99.8 56.9,99.8 56.8,99.7 C56.7,99.7 56.6,99.6 56.6,99.6 C56.5,99.5 56.5,99.5 56.5,99.4 L53,89 L53,99.4 C53,99.5 53,99.5 52.9,99.6 C52.9,99.7 52.8,99.7 52.7,99.7 C52.6,99.7 52.5,99.8 52.3,99.8 L51.7,99.8 L51.1,99.8 C50.9,99.8 50.8,99.8 50.7,99.7 C50.6,99.7 50.5,99.6 50.5,99.6 C50.5,99.5 50.4,99.5 50.4,99.4 L50.4,88 C50.4,87.7 50.5,87.4 50.7,87.2 C50.9,87 51.1,86.9 51.4,86.9 L53.1,86.9 C53.4,86.9 53.7,86.9 53.9,87 C54.1,87.1 54.3,87.1 54.5,87.2 C54.7,87.3 54.8,87.5 54.9,87.7 C55,87.9 55.1,88.1 55.2,88.4 L58,96 L60.9,88.4 C61,88.1 61.1,87.9 61.2,87.7 C61.3,87.5 61.4,87.4 61.6,87.2 C61.7,87.1 61.9,87 62.1,86.9 C62.3,86.8 62.5,86.8 62.7,86.8 L64.5,86.8 C64.7,86.8 64.8,86.8 65,86.9 C65.1,86.9 65.2,87 65.3,87.1 C65.4,87.2 65.4,87.3 65.5,87.4 C65.5,87.5 65.6,87.7 65.6,87.8 L65.6,99.4" id="Fill-17"></path>
                    <path d="M71.6,99.4 C71.6,99.5 71.6,99.5 71.5,99.6 C71.5,99.7 71.4,99.7 71.3,99.7 C71.2,99.7 71.1,99.8 70.9,99.8 L70.3,99.8 L69.7,99.8 C69.5,99.8 69.4,99.8 69.3,99.7 C69.2,99.7 69.1,99.6 69.1,99.6 C69.1,99.5 69,99.5 69,99.4 L69,87.3 C69,87.2 69,87.2 69.1,87.1 C69.1,87 69.2,87 69.3,87 C69.4,87 69.5,86.9 69.7,86.9 L70.3,86.9 L70.9,86.9 C71.1,86.9 71.2,86.9 71.3,87 C71.4,87 71.5,87.1 71.5,87.1 C71.5,87.2 71.6,87.2 71.6,87.3 L71.6,99.4" id="Fill-18"></path>
                    <path d="M85.7,98.8 C85.7,99 85.7,99.1 85.6,99.2 C85.5,99.3 85.5,99.4 85.4,99.5 C85.3,99.6 85.2,99.6 85.1,99.7 C85,99.7 84.9,99.8 84.7,99.8 L83.6,99.8 C83.4,99.8 83.2,99.8 83,99.7 C82.8,99.7 82.7,99.6 82.5,99.4 C82.4,99.3 82.2,99.1 82.1,98.9 C82,98.7 81.8,98.4 81.7,98.1 L78.5,92.1 C78.3,91.7 78.1,91.4 77.9,90.9 C77.7,90.5 77.5,90.1 77.4,89.7 L77.4,89.7 C77.4,90.2 77.4,90.6 77.5,91.1 L77.5,92.6 L77.5,99.3 C77.5,99.4 77.5,99.4 77.4,99.5 C77.4,99.6 77.3,99.6 77.2,99.6 C77.1,99.6 77,99.7 76.8,99.7 L76.2,99.7 L75.6,99.7 C75.4,99.7 75.3,99.7 75.2,99.6 C75.1,99.6 75.1,99.5 75,99.5 C75,99.4 74.9,99.4 74.9,99.3 L74.9,87.9 C74.9,87.6 75,87.4 75.2,87.2 C75.4,87 75.6,87 75.9,87 L77.3,87 C77.5,87 77.8,87 77.9,87.1 C78.1,87.1 78.2,87.2 78.4,87.3 C78.5,87.4 78.7,87.5 78.8,87.7 C78.9,87.9 79,88.1 79.2,88.3 L81.7,93 C81.8,93.3 82,93.6 82.1,93.8 C82.2,94.1 82.4,94.3 82.5,94.6 C82.6,94.9 82.8,95.1 82.9,95.4 C83,95.7 83.1,95.9 83.3,96.2 L83.3,96.2 L83.3,94.8 L83.3,93.4 L83.3,87.4 C83.3,87.3 83.3,87.3 83.4,87.2 C83.4,87.1 83.5,87.1 83.6,87.1 C83.7,87.1 83.8,87 84,87 L84.6,87 L85.2,87 C85.4,87 85.5,87 85.6,87.1 C85.7,87.1 85.7,87.2 85.8,87.2 C85.8,87.3 85.9,87.3 85.9,87.4 L85.9,98.8" id="Fill-19"></path>
                    <path d="M93.9,89.4 L93.9,89.4 L92.1,94.8 L95.7,94.8 L93.9,89.4 L93.9,89.4 Z M99.8,98.8 C99.9,99 99.9,99.2 99.9,99.4 C99.9,99.5 99.9,99.6 99.8,99.7 C99.7,99.8 99.6,99.8 99.4,99.8 L98.6,99.8 L97.8,99.8 C97.6,99.8 97.5,99.8 97.4,99.7 C97.3,99.7 97.2,99.6 97.2,99.6 C97.2,99.5 97.1,99.5 97.1,99.4 L96.3,96.8 L91.5,96.8 L90.7,99.3 C90.7,99.4 90.6,99.5 90.6,99.5 C90.6,99.6 90.5,99.6 90.4,99.6 C90.3,99.6 90.2,99.7 90,99.7 L89.3,99.7 L88.6,99.7 C88.4,99.7 88.3,99.6 88.2,99.6 C88.1,99.5 88.1,99.4 88.1,99.3 C88.1,99.2 88.2,99 88.2,98.7 L92.1,87.4 C92.1,87.3 92.2,87.2 92.2,87.1 L92.4,86.9 C92.5,86.9 92.7,86.8 92.9,86.8 L93.7,86.8 L94.6,86.8 C94.8,86.8 95,86.8 95.1,86.9 C95.2,86.9 95.3,87 95.4,87.1 C95.5,87.2 95.5,87.3 95.5,87.4 L99.8,98.8 L99.8,98.8 Z" id="Fill-20"></path>
                    <path d="M109.3,88 L109.3,88.5 C109.3,88.6 109.3,88.7 109.2,88.8 C109.2,88.9 109.1,88.9 109.1,89 C109.1,89 109,89.1 108.9,89.1 L105.7,89.1 L105.7,99.4 C105.7,99.5 105.7,99.5 105.6,99.6 C105.6,99.7 105.5,99.7 105.4,99.7 C105.3,99.7 105.2,99.8 105,99.8 L104.4,99.8 L103.8,99.8 C103.6,99.8 103.5,99.8 103.4,99.7 C103.3,99.7 103.2,99.6 103.2,99.6 C103.2,99.5 103.1,99.5 103.1,99.4 L103.1,89.1 L99.9,89.1 C99.8,89.1 99.8,89.1 99.7,89 C99.7,89 99.6,88.9 99.6,88.8 C99.6,88.7 99.5,88.6 99.5,88.5 L99.5,88 L99.5,87.5 C99.5,87.4 99.5,87.3 99.6,87.2 C99.6,87.1 99.7,87.1 99.7,87 C99.7,87 99.8,86.9 99.9,86.9 L108.9,86.9 C109,86.9 109,86.9 109.1,87 C109.2,87 109.2,87.1 109.2,87.2 C109.2,87.3 109.3,87.4 109.3,87.5 L109.3,88" id="Fill-21"></path>
                    <path d="M119.2,98.7 L119.2,99.2 C119.2,99.3 119.2,99.4 119.1,99.5 C119.1,99.6 119,99.6 119,99.7 C119,99.7 118.9,99.8 118.8,99.8 L112.4,99.8 C112.2,99.8 112,99.7 111.9,99.6 C111.8,99.5 111.7,99.3 111.7,99 L111.7,87.8 C111.7,87.5 111.8,87.3 111.9,87.2 C112,87.1 112.2,87 112.4,87 L118.8,87 C118.9,87 118.9,87 119,87.1 C119,87.1 119.1,87.2 119.1,87.3 C119.1,87.4 119.2,87.5 119.2,87.6 L119.2,88.1 L119.2,88.6 C119.2,88.7 119.2,88.8 119.1,88.9 C119.1,89 119,89 119,89.1 C119,89.1 118.9,89.2 118.8,89.2 L114.2,89.2 L114.2,92.3 L118,92.3 C118.1,92.3 118.1,92.3 118.2,92.4 C118.3,92.4 118.3,92.5 118.3,92.6 C118.3,92.7 118.4,92.8 118.4,92.9 L118.4,93.4 L118.4,93.9 C118.4,94 118.4,94.1 118.3,94.2 C118.3,94.3 118.2,94.3 118.2,94.4 C118.2,94.4 118.1,94.5 118,94.5 L114.2,94.5 L114.2,98.1 L118.8,98.1 C118.9,98.1 118.9,98.1 119,98.2 C119.1,98.2 119.1,98.3 119.1,98.4 C119.1,98.5 119.2,98.6 119.2,98.7 C119.2,98.4 119.2,98.5 119.2,98.7" id="Fill-22"></path>
                    <path d="M130.2,93.3 C130.2,92.7 130.1,92.1 130,91.6 C129.9,91.1 129.6,90.6 129.3,90.3 C129,89.9 128.6,89.6 128.1,89.4 C127.6,89.2 127,89.1 126.2,89.1 L124.9,89.1 L124.9,97.8 L126.3,97.8 C127,97.8 127.6,97.7 128.1,97.5 C128.6,97.3 129,97 129.3,96.7 C129.6,96.3 129.9,95.9 130,95.3 C130.1,94.6 130.2,94 130.2,93.3 M132.9,93.2 C132.9,94.4 132.7,95.4 132.4,96.2 C132.1,97 131.7,97.7 131.1,98.2 C130.5,98.7 129.8,99.1 129,99.4 C128.2,99.6 127.2,99.8 126.1,99.8 L123,99.8 C122.8,99.8 122.6,99.7 122.4,99.6 C122.3,99.5 122.2,99.3 122.2,99 L122.2,87.8 C122.2,87.5 122.3,87.3 122.4,87.2 C122.5,87.1 122.7,87 123,87 L126.3,87 C127.4,87 128.4,87.1 129.2,87.4 C130,87.7 130.7,88.1 131.2,88.6 C131.7,89.1 132.2,89.8 132.4,90.5 C132.7,91.3 132.9,92.2 132.9,93.2" id="Fill-23"></path>
                    <path d="M148,95.9 C148,96.6 147.9,97.2 147.6,97.7 C147.3,98.2 147,98.6 146.6,99 C146.2,99.3 145.7,99.6 145.1,99.8 C144.5,100 143.9,100.1 143.3,100.1 C142.9,100.1 142.4,100.1 142.1,100 C141.7,99.9 141.4,99.8 141.1,99.7 C140.8,99.6 140.6,99.5 140.4,99.4 C140.2,99.3 140.1,99.2 140,99.1 C139.9,99 139.9,98.9 139.8,98.7 C139.7,98.5 139.7,98.3 139.7,98 L139.7,97.5 C139.7,97.4 139.7,97.3 139.8,97.2 C139.8,97.1 139.9,97.1 139.9,97 C140,97 140,96.9 140.1,96.9 C140.2,96.9 140.3,97 140.5,97.1 C140.7,97.2 140.9,97.3 141.1,97.5 C141.4,97.6 141.7,97.8 142,97.9 C142.4,98 142.8,98.1 143.3,98.1 C143.6,98.1 143.9,98.1 144.2,98 C144.5,97.9 144.7,97.8 144.8,97.7 C145,97.6 145.1,97.4 145.2,97.2 C145.3,97 145.3,96.8 145.3,96.5 C145.3,96.2 145.2,96 145.1,95.8 C144.9,95.6 144.7,95.4 144.5,95.2 C144.2,95 144,94.9 143.6,94.7 C143.3,94.6 142.9,94.4 142.6,94.3 C142.3,94.1 141.9,94 141.6,93.8 C141.3,93.6 141,93.4 140.7,93.1 C140.4,92.8 140.2,92.5 140.1,92.1 C139.9,91.7 139.9,91.3 139.9,90.7 C139.9,90.1 140,89.5 140.2,89.1 C140.4,88.6 140.7,88.3 141.1,87.9 C141.5,87.6 141.9,87.4 142.5,87.2 C143,87 143.6,87 144.2,87 C144.5,87 144.8,87 145.1,87.1 C145.4,87.1 145.7,87.2 146,87.3 C146.3,87.4 146.5,87.5 146.7,87.6 C146.9,87.7 147,87.8 147.1,87.8 C147.2,87.9 147.2,87.9 147.2,88 C147.2,88 147.2,88.1 147.3,88.2 L147.3,88.5 L147.3,88.9 L147.3,89.4 C147.3,89.5 147.3,89.6 147.2,89.7 C147.2,89.8 147.1,89.8 147.1,89.9 C147.1,89.9 147,90 146.9,90 C146.8,90 146.7,90 146.6,89.9 L146,89.6 C145.8,89.5 145.5,89.4 145.2,89.3 C144.9,89.2 144.6,89.2 144.2,89.2 C143.9,89.2 143.7,89.2 143.5,89.3 C143.3,89.4 143.1,89.5 143,89.6 C142.9,89.7 142.8,89.9 142.7,90 C142.6,90.2 142.6,90.4 142.6,90.5 C142.6,90.8 142.7,91 142.8,91.2 C143,91.4 143.2,91.6 143.4,91.8 C143.7,92 144,92.1 144.3,92.3 C144.6,92.4 145,92.6 145.3,92.7 C145.6,92.9 146,93 146.3,93.2 C146.6,93.4 146.9,93.6 147.2,93.9 C147.5,94.2 147.7,94.5 147.8,94.9 C147.9,95 148,95.4 148,95.9" id="Fill-24"></path>
                    <path d="M153.4,99.4 C153.4,99.5 153.4,99.5 153.3,99.6 C153.3,99.7 153.2,99.7 153.1,99.7 C153,99.7 152.9,99.8 152.7,99.8 L152.1,99.8 L151.5,99.8 C151.3,99.8 151.2,99.8 151.1,99.7 C151,99.7 150.9,99.6 150.9,99.6 C150.9,99.5 150.8,99.5 150.8,99.4 L150.8,87.3 C150.8,87.2 150.8,87.2 150.9,87.1 C150.9,87 151,87 151.1,87 C151.2,87 151.3,86.9 151.5,86.9 L152.1,86.9 L152.7,86.9 C152.9,86.9 153,86.9 153.1,87 C153.2,87 153.3,87.1 153.3,87.1 C153.3,87.2 153.4,87.2 153.4,87.3 L153.4,99.4" id="Fill-25"></path>
                    <path d="M167.2,89 L167.2,89.5 C167.2,89.6 167.2,89.7 167.1,89.8 C167.1,89.9 167,89.9 167,90 C167,90 166.9,90.1 166.8,90.1 C166.7,90.1 166.6,90 166.4,89.9 L165.6,89.5 C165.3,89.4 164.9,89.2 164.5,89.1 C164.1,89 163.6,88.9 163,88.9 C162.4,88.9 161.8,89 161.3,89.2 C160.8,89.4 160.4,89.7 160,90.1 C159.6,90.5 159.4,91 159.2,91.5 C159,92 158.9,92.7 158.9,93.3 C158.9,94 159,94.7 159.2,95.2 C159.4,95.8 159.7,96.2 160,96.6 C160.4,97 160.8,97.3 161.3,97.4 C161.8,97.6 162.3,97.7 162.9,97.7 C163.2,97.7 163.5,97.7 163.8,97.6 C164.1,97.5 164.4,97.4 164.6,97.3 L164.6,94.3 L162.2,94.3 C162.1,94.3 162,94.2 161.9,94.1 C161.8,94 161.8,93.7 161.8,93.3 L161.8,92.8 C161.8,92.7 161.8,92.6 161.9,92.5 C161.9,92.4 162,92.4 162,92.3 C162,92.3 162.1,92.2 162.2,92.2 L166.5,92.2 C166.6,92.2 166.7,92.2 166.8,92.3 C166.9,92.3 167,92.4 167,92.5 C167.1,92.6 167.1,92.7 167.1,92.8 C167.1,92.9 167.2,93 167.2,93.2 L167.2,98.3 C167.2,98.5 167.2,98.7 167.1,98.8 C167,98.9 166.9,99.1 166.7,99.2 C166.5,99.3 166.2,99.4 165.9,99.5 C165.6,99.6 165.3,99.7 164.9,99.7 C164.6,99.8 164.2,99.8 163.9,99.8 C163.6,99.8 163.2,99.9 162.9,99.9 C161.9,99.9 161,99.8 160.2,99.5 C159.4,99.2 158.7,98.8 158.1,98.2 C157.5,97.6 157.1,97 156.8,96.2 C156.5,95.4 156.4,94.5 156.4,93.5 C156.4,92.5 156.6,91.5 156.9,90.7 C157.2,89.9 157.7,89.2 158.2,88.6 C158.8,88 159.5,87.6 160.3,87.3 C161.1,87 162,86.8 163,86.8 C163.6,86.8 164.1,86.8 164.5,86.9 C165,87 165.4,87.1 165.7,87.2 C166,87.3 166.3,87.4 166.5,87.6 C166.7,87.7 166.9,87.8 167,87.9 C167.1,88 167.2,88.1 167.2,88.3 C167.2,88.4 167.2,88.6 167.2,89" id="Fill-26"></path>
                    <path d="M181.2,98.8 C181.2,99 181.2,99.1 181.1,99.2 C181,99.3 181,99.4 180.9,99.5 C180.8,99.6 180.7,99.6 180.6,99.7 C180.5,99.7 180.4,99.8 180.2,99.8 L179.1,99.8 C178.9,99.8 178.7,99.8 178.5,99.7 C178.3,99.7 178.2,99.6 178,99.4 C177.9,99.3 177.7,99.1 177.6,98.9 C177.5,98.7 177.3,98.4 177.2,98.1 L174,92.1 C173.8,91.7 173.6,91.4 173.4,90.9 C173.2,90.5 173,90.1 172.9,89.7 L172.9,89.7 C172.9,90.2 172.9,90.6 173,91.1 L173,92.6 L173,99.3 C173,99.4 173,99.4 172.9,99.5 C172.9,99.6 172.8,99.6 172.7,99.6 C172.6,99.6 172.5,99.7 172.3,99.7 L171.7,99.7 L171.1,99.7 C170.9,99.7 170.8,99.7 170.7,99.6 C170.6,99.6 170.6,99.5 170.5,99.5 C170.5,99.4 170.4,99.4 170.4,99.3 L170.4,87.9 C170.4,87.6 170.5,87.4 170.7,87.2 C170.9,87 171.1,87 171.4,87 L172.8,87 C173,87 173.3,87 173.4,87.1 C173.6,87.1 173.7,87.2 173.9,87.3 C174,87.4 174.2,87.5 174.3,87.7 C174.4,87.9 174.5,88.1 174.7,88.3 L177.2,93 C177.3,93.3 177.5,93.6 177.6,93.8 C177.7,94.1 177.9,94.3 178,94.6 C178.1,94.9 178.3,95.1 178.4,95.4 C178.5,95.7 178.6,95.9 178.8,96.2 L178.8,96.2 L178.8,94.8 L178.8,93.4 L178.8,87.4 C178.8,87.3 178.8,87.3 178.9,87.2 C178.9,87.1 179,87.1 179.1,87.1 C179.2,87.1 179.3,87 179.5,87 L180.1,87 L180.7,87 C180.9,87 181,87 181.1,87.1 C181.2,87.1 181.2,87.2 181.3,87.2 C181.3,87.3 181.4,87.3 181.4,87.4 L181.4,98.8" id="Fill-27"></path>
                    <path d="M192.4,95.9 C192.4,96.6 192.3,97.2 192,97.7 C191.7,98.2 191.4,98.6 191,99 C190.6,99.3 190.1,99.6 189.5,99.8 C188.9,100 188.3,100.1 187.7,100.1 C187.3,100.1 186.8,100.1 186.5,100 C186.1,99.9 185.8,99.8 185.5,99.7 C185.2,99.6 185,99.5 184.8,99.4 C184.6,99.3 184.5,99.2 184.4,99.1 C184.3,99 184.3,98.9 184.2,98.7 C184.2,98.5 184.1,98.3 184.1,98 L184.1,97.5 C184.1,97.4 184.1,97.3 184.2,97.2 C184.2,97.1 184.3,97.1 184.3,97 C184.4,97 184.4,96.9 184.5,96.9 C184.6,96.9 184.7,97 184.9,97.1 C185.1,97.2 185.3,97.3 185.5,97.5 C185.8,97.6 186.1,97.8 186.4,97.9 C186.8,98 187.2,98.1 187.7,98.1 C188,98.1 188.3,98.1 188.6,98 C188.9,97.9 189.1,97.8 189.2,97.7 C189.4,97.6 189.5,97.4 189.6,97.2 C189.7,97 189.7,96.8 189.7,96.5 C189.7,96.2 189.6,96 189.5,95.8 C189.3,95.6 189.1,95.4 188.9,95.2 C188.6,95 188.4,94.9 188,94.7 C187.7,94.6 187.3,94.4 187,94.3 C186.7,94.1 186.3,94 186,93.8 C185.7,93.6 185.4,93.4 185.1,93.1 C184.8,92.8 184.6,92.5 184.5,92.1 C184.3,91.7 184.3,91.3 184.3,90.7 C184.3,90.1 184.4,89.5 184.6,89.1 C184.8,88.6 185.1,88.3 185.5,87.9 C185.9,87.6 186.3,87.4 186.9,87.2 C187.4,87 188,87 188.6,87 C188.9,87 189.2,87 189.5,87.1 C189.8,87.1 190.1,87.2 190.4,87.3 C190.7,87.4 190.9,87.5 191.1,87.6 C191.3,87.7 191.4,87.8 191.5,87.8 C191.6,87.9 191.6,87.9 191.6,88 C191.6,88 191.6,88.1 191.7,88.2 L191.7,88.5 L191.7,88.9 L191.7,89.4 C191.7,89.5 191.7,89.6 191.6,89.7 C191.6,89.8 191.5,89.8 191.5,89.9 C191.5,89.9 191.4,90 191.3,90 C191.2,90 191.1,90 191,89.9 L190.4,89.6 C190.2,89.5 189.9,89.4 189.6,89.3 C189.3,89.2 189,89.2 188.6,89.2 C188.3,89.2 188.1,89.2 187.9,89.3 C187.7,89.4 187.5,89.5 187.4,89.6 C187.3,89.7 187.2,89.9 187.1,90 C187,90.2 187,90.4 187,90.5 C187,90.8 187.1,91 187.2,91.2 C187.4,91.4 187.6,91.6 187.8,91.8 C188.1,92 188.4,92.1 188.7,92.3 C189,92.4 189.4,92.6 189.7,92.7 C190,92.9 190.4,93 190.7,93.2 C191,93.4 191.3,93.6 191.6,93.9 C191.9,94.2 192.1,94.5 192.2,94.9 C192.3,95 192.4,95.4 192.4,95.9" id="Fill-28"></path>
                    <path d="M201.4,96.1 C201.4,96.4 201.5,96.6 201.6,96.9 C201.7,97.1 201.9,97.3 202.1,97.5 C202.3,97.7 202.5,97.8 202.8,97.9 C203.1,98 203.4,98 203.8,98 C204,98 204.2,98 204.4,97.9 C204.6,97.9 204.8,97.8 205,97.7 C205.2,97.6 205.4,97.6 205.5,97.5 C205.7,97.4 205.8,97.3 206,97.2 C205.7,97 205.4,96.7 205.1,96.4 C204.8,96.1 204.5,95.9 204.2,95.6 C203.9,95.3 203.6,95.1 203.4,94.8 C203.1,94.5 202.9,94.3 202.7,94 C202.5,94.1 202.3,94.3 202.1,94.4 C201.9,94.6 201.8,94.7 201.7,94.9 C201.6,95.1 201.5,95.2 201.5,95.4 C201.5,95.7 201.4,95.9 201.4,96.1 L201.4,96.1 L201.4,96.1 Z M202.5,89.5 C202.5,89.6 202.5,89.8 202.6,89.9 C202.6,90 202.7,90.2 202.8,90.4 C202.9,90.6 203,90.7 203.1,90.9 C203.2,91.1 203.4,91.3 203.5,91.5 C203.9,91.3 204.2,91.1 204.5,90.9 C204.8,90.7 205,90.5 205.1,90.4 C205.3,90.2 205.4,90.1 205.4,89.9 C205.5,89.7 205.5,89.6 205.5,89.4 C205.5,89.2 205.5,89.1 205.4,89 C205.3,88.9 205.2,88.7 205.1,88.6 C205,88.5 204.8,88.4 204.6,88.4 C204.4,88.3 204.2,88.3 203.9,88.3 C203.6,88.3 203.4,88.3 203.2,88.4 C203,88.5 202.8,88.6 202.7,88.7 C202.6,88.8 202.5,89 202.4,89.1 C202.6,89.2 202.5,89.3 202.5,89.5 L202.5,89.5 L202.5,89.5 Z M198.7,96.2 C198.7,95.8 198.8,95.5 198.9,95.2 C199,94.9 199.2,94.6 199.4,94.3 C199.6,94 199.9,93.7 200.2,93.5 C200.5,93.2 200.9,93 201.3,92.7 C201.1,92.4 200.9,92.1 200.7,91.8 C200.5,91.5 200.4,91.3 200.3,91 C200.2,90.8 200.1,90.5 200,90.3 C199.9,90.1 199.9,89.9 199.9,89.6 C199.9,89.1 200,88.7 200.1,88.3 C200.3,87.9 200.5,87.5 200.9,87.2 C201.2,86.9 201.7,86.7 202.2,86.5 C202.7,86.3 203.4,86.2 204.1,86.2 C204.8,86.2 205.4,86.3 205.9,86.4 C206.4,86.5 206.8,86.7 207.1,87 C207.4,87.2 207.7,87.5 207.8,87.9 C208,88.3 208,88.7 208,89.1 C208,89.5 207.9,89.9 207.8,90.2 C207.7,90.5 207.5,90.9 207.2,91.2 C206.9,91.5 206.6,91.8 206.2,92.1 C205.8,92.4 205.3,92.7 204.8,92.9 C205,93.1 205.2,93.3 205.4,93.5 C205.6,93.7 205.8,94 206.1,94.2 C206.3,94.4 206.6,94.7 206.8,94.9 C207,95.1 207.3,95.3 207.5,95.5 C207.6,95.4 207.7,95.2 207.7,95 C207.8,94.8 207.8,94.6 207.9,94.5 C208,94.3 208,94.1 208,93.9 L208,93.3 L208,93 L208,92.8 C208,92.7 208.1,92.7 208.2,92.7 C208.3,92.7 208.4,92.6 208.6,92.6 L209.2,92.6 L209.8,92.6 C209.9,92.6 210.1,92.6 210.2,92.7 C210.3,92.7 210.4,92.8 210.4,92.8 C210.4,92.9 210.5,92.9 210.5,93 L210.5,93.3 C210.5,93.6 210.5,93.9 210.4,94.3 C210.4,94.6 210.3,94.9 210.2,95.2 C210.1,95.5 210,95.8 209.9,96.1 C209.8,96.4 209.6,96.6 209.5,96.9 C209.7,97.1 209.9,97.2 210.1,97.3 C210.3,97.4 210.4,97.5 210.5,97.6 C210.6,97.7 210.7,97.7 210.8,97.7 L211,97.7 L211.2,97.7 C211.3,97.7 211.3,97.7 211.4,97.8 C211.4,97.8 211.5,97.9 211.5,98 L211.5,98.5 L211.5,99.1 C211.5,99.2 211.5,99.3 211.4,99.4 C211.4,99.5 211.3,99.5 211.3,99.6 C211.2,99.6 211.1,99.7 211,99.7 C210.9,99.7 210.7,99.8 210.5,99.8 C210.4,99.8 210.2,99.8 210,99.7 C209.8,99.7 209.7,99.6 209.5,99.5 C209.3,99.4 209.1,99.3 208.8,99.1 C208.5,98.9 208.2,98.7 207.9,98.5 C207.6,98.7 207.3,98.9 206.9,99.1 C206.6,99.3 206.2,99.4 205.9,99.5 C205.5,99.6 205.2,99.7 204.8,99.8 C204.4,99.9 204,99.9 203.6,99.9 C203.2,99.9 202.8,99.9 202.3,99.8 C201.9,99.7 201.5,99.6 201.1,99.5 C200.7,99.4 200.4,99.2 200.1,99 C199.8,98.8 199.5,98.6 199.3,98.3 C199.1,98 198.9,97.7 198.8,97.3 C198.8,97 198.7,96.6 198.7,96.2 L198.7,96.2 L198.7,96.2 Z" id="Fill-29"></path>
                    <path d="M224.6,91 C224.6,90.6 224.5,90.2 224.4,89.9 C224.2,89.6 224,89.4 223.8,89.3 C223.6,89.2 223.3,89.1 223.1,89 C222.8,89 222.6,88.9 222.3,88.9 L221.2,88.9 L221.2,93.3 L222.4,93.3 C222.8,93.3 223.2,93.2 223.4,93.1 C223.7,93 223.9,92.8 224.1,92.6 C224.3,92.4 224.4,92.2 224.5,91.9 C224.6,91.7 224.6,91.4 224.6,91 M227.3,90.8 C227.3,91.5 227.2,92.2 227,92.7 C226.8,93.3 226.4,93.7 226,94.1 C225.6,94.5 225,94.8 224.4,95 C223.8,95.2 223,95.3 222.2,95.3 L221.1,95.3 L221.1,99.4 C221.1,99.5 221.1,99.5 221,99.6 C221,99.7 220.9,99.7 220.8,99.7 C220.7,99.7 220.6,99.8 220.4,99.8 L219.8,99.8 L219.2,99.8 C219,99.8 218.9,99.8 218.8,99.7 C218.7,99.7 218.6,99.6 218.6,99.6 C218.6,99.5 218.5,99.5 218.5,99.4 L218.5,87.9 C218.5,87.6 218.6,87.4 218.7,87.2 C218.9,87 219.1,87 219.3,87 L222.3,87 L223.2,87 C223.5,87 223.8,87.1 224.2,87.1 C224.6,87.2 225,87.3 225.4,87.5 C225.8,87.7 226.1,88 226.4,88.3 C226.7,88.6 226.9,89 227,89.4 C227.3,89.9 227.3,90.3 227.3,90.8" id="Fill-30"></path>
                    <path d="M236.3,90.7 C236.3,90.3 236.2,89.9 236,89.6 C235.8,89.3 235.5,89.1 235.1,89 C235,89 234.8,88.9 234.7,88.9 L234,88.9 L232.8,88.9 L232.8,92.5 L234.1,92.5 C234.5,92.5 234.8,92.5 235.1,92.4 C235.4,92.3 235.6,92.2 235.8,92 C236,91.8 236.1,91.6 236.2,91.4 C236.2,91.3 236.3,91 236.3,90.7 M239.6,99.4 L239.6,99.6 C239.6,99.7 239.5,99.7 239.4,99.7 C239.3,99.7 239.2,99.8 239,99.8 L238.2,99.8 L237.5,99.8 C237.3,99.8 237.2,99.8 237.1,99.7 C237,99.7 236.9,99.6 236.9,99.6 C236.9,99.5 236.8,99.5 236.8,99.4 L235.6,96.5 C235.5,96.2 235.3,95.9 235.2,95.6 C235.1,95.3 234.9,95.1 234.8,95 C234.6,94.8 234.4,94.7 234.2,94.6 C234,94.5 233.7,94.5 233.5,94.5 L232.7,94.5 L232.7,99.4 C232.7,99.5 232.7,99.5 232.6,99.6 C232.6,99.7 232.5,99.7 232.4,99.7 C232.3,99.7 232.2,99.8 232,99.8 L231.4,99.8 L230.8,99.8 C230.6,99.8 230.5,99.8 230.4,99.7 C230.3,99.7 230.2,99.6 230.2,99.6 C230.2,99.5 230.1,99.5 230.1,99.4 L230.1,87.8 C230.1,87.5 230.2,87.3 230.3,87.2 C230.4,87.1 230.6,87 230.8,87 L234.1,87 L234.9,87 L235.5,87 C236,87.1 236.5,87.2 236.9,87.4 C237.3,87.6 237.7,87.8 237.9,88.1 C238.2,88.4 238.4,88.7 238.6,89.1 C238.8,89.5 238.8,89.9 238.8,90.4 C238.8,90.8 238.7,91.2 238.6,91.6 C238.5,92 238.3,92.3 238.1,92.5 C237.9,92.8 237.6,93 237.3,93.2 C237,93.4 236.6,93.6 236.2,93.7 C236.4,93.8 236.6,93.9 236.7,94 C236.9,94.1 237,94.3 237.2,94.5 C237.3,94.7 237.5,94.9 237.6,95.1 C237.7,95.3 237.9,95.6 238,95.9 L239.1,98.4 C239.2,98.6 239.3,98.8 239.3,98.9 C239.6,99.3 239.6,99.4 239.6,99.4" id="Fill-31"></path>
                    <path d="M244.9,99.4 C244.9,99.5 244.9,99.5 244.8,99.6 C244.8,99.7 244.7,99.7 244.6,99.7 C244.5,99.7 244.4,99.8 244.2,99.8 L243.6,99.8 L243,99.8 C242.8,99.8 242.7,99.8 242.6,99.7 C242.5,99.7 242.4,99.6 242.4,99.6 C242.4,99.5 242.3,99.5 242.3,99.4 L242.3,87.3 C242.3,87.2 242.3,87.2 242.4,87.1 C242.4,87 242.5,87 242.6,87 C242.7,87 242.8,86.9 243,86.9 L243.6,86.9 L244.2,86.9 C244.4,86.9 244.5,86.9 244.6,87 C244.7,87 244.8,87.1 244.8,87.1 C244.8,87.2 244.9,87.2 244.9,87.3 L244.9,99.4" id="Fill-32"></path>
                    <path d="M259.1,98.8 C259.1,99 259.1,99.1 259,99.2 C258.9,99.3 258.9,99.4 258.8,99.5 C258.7,99.6 258.6,99.6 258.5,99.7 C258.4,99.7 258.3,99.8 258.1,99.8 L257,99.8 C256.8,99.8 256.6,99.8 256.4,99.7 C256.2,99.7 256.1,99.6 255.9,99.4 C255.8,99.3 255.6,99.1 255.5,98.9 C255.4,98.7 255.2,98.4 255.1,98.1 L251.9,92.1 C251.7,91.7 251.5,91.4 251.3,90.9 C251.1,90.5 250.9,90.1 250.8,89.7 L250.8,89.7 C250.8,90.2 250.8,90.6 250.9,91.1 L250.9,92.6 L250.9,99.3 C250.9,99.4 250.9,99.4 250.8,99.5 C250.8,99.6 250.7,99.6 250.6,99.6 C250.5,99.6 250.4,99.7 250.2,99.7 L249.6,99.7 L249,99.7 C248.8,99.7 248.7,99.7 248.6,99.6 C248.5,99.6 248.5,99.5 248.4,99.5 C248.4,99.4 248.3,99.4 248.3,99.3 L248.3,87.9 C248.3,87.6 248.4,87.4 248.6,87.2 C248.8,87 249,87 249.3,87 L250.7,87 C250.9,87 251.2,87 251.3,87.1 C251.5,87.1 251.6,87.2 251.8,87.3 C251.9,87.4 252.1,87.5 252.2,87.7 C252.3,87.9 252.4,88.1 252.6,88.3 L255.1,93 C255.2,93.3 255.4,93.6 255.5,93.8 C255.6,94.1 255.8,94.3 255.9,94.6 C256,94.9 256.2,95.1 256.3,95.4 C256.4,95.7 256.5,95.9 256.7,96.2 L256.7,96.2 L256.7,94.8 L256.7,93.4 L256.7,87.4 C256.7,87.3 256.7,87.3 256.8,87.2 C256.8,87.1 256.9,87.1 257,87.1 C257.1,87.1 257.2,87 257.4,87 L258,87 L258.6,87 C258.8,87 258.9,87 259,87.1 C259.1,87.1 259.1,87.2 259.2,87.2 C259.2,87.3 259.3,87.3 259.3,87.4 L259.3,98.8" id="Fill-33"></path>
                    <path d="M271.2,88 L271.2,88.5 C271.2,88.6 271.2,88.7 271.1,88.8 C271.1,88.9 271,88.9 271,89 C271,89 270.9,89.1 270.8,89.1 L267.6,89.1 L267.6,99.4 C267.6,99.5 267.6,99.5 267.5,99.6 C267.5,99.7 267.4,99.7 267.3,99.7 C267.2,99.7 267.1,99.8 266.9,99.8 L266.3,99.8 L265.7,99.8 C265.5,99.8 265.4,99.8 265.3,99.7 C265.2,99.7 265.1,99.6 265.1,99.6 C265.1,99.5 265,99.5 265,99.4 L265,89.1 L261.8,89.1 C261.7,89.1 261.7,89.1 261.6,89 C261.6,89 261.5,88.9 261.5,88.8 C261.5,88.7 261.4,88.6 261.4,88.5 L261.4,88 L261.4,87.5 C261.4,87.4 261.4,87.3 261.5,87.2 C261.5,87.1 261.6,87.1 261.6,87 C261.6,87 261.7,86.9 261.8,86.9 L270.8,86.9 C270.9,86.9 270.9,86.9 271,87 C271.1,87 271.1,87.1 271.1,87.2 C271.1,87.3 271.2,87.4 271.2,87.5 L271.2,88" id="Fill-34"></path>
                </g>
            </g>
        </g>
    </g>
</svg>