<?xml version="1.0" encoding="UTF-8" standalone="no"?>
<svg viewBox="0 0 285 148" version="1.1" xmlns="http://www.w3.org/2000/svg" xmlns:xlink="http://www.w3.org/1999/xlink">
    <defs></defs>
    <g id="Page-1" stroke="none" stroke-width="1" fill="none" fill-rule="evenodd">
        <g id="Imported-Layers" transform="translate(0.000000, -1.000000)">
            <path d="M0.694,2.856 L8.674,2.856 L8.674,41.218 L0.694,41.218 L0.694,2.856 Z M136.15,41.216 L144.128,41.216 L144.128,2.856 L136.15,2.856 L136.15,41.216 Z M213.492,57.398 L227.47,113.484 L219.236,113.484 L215.246,97.95 L203.11,97.95 L199.29,113.484 L191.138,113.484 L204.288,60.742 C204.22,60.742 204.152,60.748 204.086,60.748 C201.312,60.748 198.638,60.014 196.062,58.542 C193.488,57.07 191.524,55.146 190.164,52.768 C188.692,50.166 187.958,46.828 187.958,42.752 L187.958,2.856 L196.106,2.856 L196.106,43.77 C196.106,46.486 196.84,48.666 198.314,50.306 C199.784,51.95 201.712,52.768 204.086,52.768 C206.296,52.768 208.104,51.934 209.52,50.264 C210.932,48.596 211.64,46.432 211.64,43.77 L211.64,2.856 L219.874,2.856 L219.874,42.752 C219.874,46.884 219.138,50.222 217.668,52.768 C216.62,54.558 215.226,56.098 213.492,57.398 L213.492,57.398 Z M213.296,89.97 L209.134,73.588 L205.146,89.97 L213.296,89.97 L213.296,89.97 Z M254.848,2.856 L225.9,2.856 L225.9,10.494 L236.256,10.494 L236.256,59.73 L244.49,59.73 L244.49,10.494 L254.848,10.494 L254.848,2.856 L254.848,2.856 Z M59.052,85.556 L67.288,113.484 L58.882,113.484 L51.328,86.746 L43.52,86.746 L43.52,113.484 L35.37,113.484 L35.37,56.61 L44.168,56.61 L29.662,23.568 L29.662,64.59 L8.866,64.59 L8.866,78.936 L20.24,78.936 L20.24,86.746 L8.866,86.746 L8.866,113.484 L0.714,113.484 L0.714,56.61 L21.514,56.61 L21.514,2.856 L29.662,2.856 L45.196,38.508 L45.196,2.856 L53.432,2.856 L53.432,56.654 C57.398,56.864 60.652,58.228 63.17,60.77 C65.914,63.542 67.288,67.222 67.288,71.804 C67.288,74.804 66.536,77.62 65.038,80.252 C63.538,82.882 61.544,84.652 59.052,85.556 L59.052,85.556 Z M59.306,71.55 C59.306,69.402 58.628,67.704 57.27,66.458 C55.912,65.212 54.128,64.59 51.922,64.59 L43.52,64.59 L43.52,78.596 L51.922,78.596 C53.96,78.596 55.7,77.918 57.142,76.56 C58.586,75.202 59.306,73.532 59.306,71.55 L59.306,71.55 Z M94.73,56.61 L108.906,113.484 L100.672,113.484 L96.682,97.95 L84.544,97.95 L80.724,113.484 L72.574,113.484 L86.52,57.54 C83.98,59.676 80.794,60.748 76.95,60.748 C72.478,60.748 68.702,59.008 65.618,55.528 C62.532,52.048 60.99,47.874 60.99,43.008 L68.8,43.008 C68.8,46.008 69.548,48.384 71.048,50.138 C72.548,51.892 74.458,52.768 76.78,52.768 C78.93,52.768 80.796,51.908 82.38,50.18 C83.964,48.454 84.728,46.432 84.674,44.11 C84.618,42.244 83.924,40.276 82.594,38.21 C81.264,36.146 78.816,33.982 75.252,31.716 C71.176,29.114 68.206,26.526 66.338,23.95 C64.47,21.376 63.538,18.956 63.538,16.692 C63.48,12.618 64.782,9.152 67.442,6.294 C70.102,3.436 73.496,1.978 77.628,1.922 C81.984,1.922 85.564,3.35 88.368,6.21 C91.168,9.066 92.568,12.534 92.568,16.606 L84.25,16.606 C84.304,14.4 83.614,12.676 82.17,11.43 C80.726,10.184 79.212,9.62 77.628,9.73 C75.76,9.846 74.318,10.538 73.298,11.812 C72.28,13.084 71.798,14.628 71.856,16.436 C71.912,17.626 72.42,18.788 73.382,19.918 C74.346,21.05 76.44,22.75 79.666,25.01 C84.194,28.068 87.46,31.066 89.468,34.01 C91.478,36.952 92.512,40.206 92.568,43.77 C92.568,48.242 91.182,52.19 88.408,55.614 C88.124,55.966 87.824,56.296 87.516,56.61 L94.73,56.61 L94.73,56.61 Z M94.73,89.97 L90.57,73.588 L86.58,89.97 L94.73,89.97 L94.73,89.97 Z M139.59,92.264 L124.054,56.61 L117.172,56.61 L117.172,10.494 L127.528,10.494 L127.528,2.856 L98.582,2.856 L98.582,10.494 L108.938,10.494 L108.938,56.612 L115.906,56.612 L115.906,113.484 L124.054,113.484 L124.054,77.322 L139.93,113.484 L147.824,113.484 L147.824,56.61 L139.59,56.61 L139.59,92.264 L139.59,92.264 Z M172.916,63.656 C174.896,63.656 176.51,64.238 177.754,65.398 C178.998,66.556 179.65,68.1 179.708,70.022 L187.942,70.022 C187.714,65.836 186.212,62.398 183.444,59.71 C180.67,57.022 177.246,55.678 173.17,55.678 C172.6,55.678 172.04,55.71 171.49,55.774 L171.49,10.494 L181.846,10.494 L181.846,2.856 L152.898,2.856 L152.898,10.494 L163.254,10.494 L163.254,59.772 L163.272,59.772 C162.54,60.468 161.834,61.252 161.158,62.128 C157.85,66.43 156.194,74.098 156.194,85.13 C156.194,96.168 157.85,103.838 161.158,108.136 C163.55,111.244 166.304,113.22 169.418,114.084 L164.808,125.376 L164.802,125.398 L172.548,125.398 L176.416,114.266 C179.096,113.722 181.442,112.496 183.444,110.556 C186.212,107.87 187.714,104.432 187.942,100.242 L179.708,100.242 C179.65,102.168 178.998,103.708 177.754,104.87 C176.51,106.03 174.896,106.61 172.916,106.61 C170.71,106.722 168.742,105.478 167.016,102.874 C165.29,100.272 164.428,94.358 164.428,85.13 C164.428,76.304 165.278,70.52 166.974,67.774 C168.674,65.028 170.652,63.656 172.916,63.656 L172.916,63.656 Z M236.256,113.484 L244.236,113.484 L244.236,75.124 L236.256,75.124 L236.256,113.484 Z M271.254,78.766 C268.028,76.504 265.934,74.804 264.972,73.674 C264.01,72.542 263.5,71.38 263.444,70.192 C263.386,68.382 263.87,66.84 264.886,65.566 C265.906,64.292 267.35,63.6 269.216,63.486 C270.8,63.374 272.316,63.94 273.76,65.184 C275.202,66.43 275.894,68.156 275.838,70.362 L284.158,70.362 C284.158,66.288 282.758,62.822 279.956,59.962 C277.154,57.106 273.574,55.678 269.216,55.678 C265.086,55.734 261.69,57.192 259.03,60.046 C256.37,62.908 255.068,66.372 255.126,70.448 C255.126,72.712 256.06,75.13 257.928,77.706 C259.796,80.282 262.766,82.87 266.84,85.472 C270.406,87.736 272.852,89.902 274.184,91.964 C275.512,94.032 276.206,95.998 276.264,97.866 C276.318,100.186 275.554,102.208 273.97,103.936 C272.384,105.662 270.52,106.524 268.368,106.524 C266.046,106.524 264.136,105.648 262.638,103.89 C261.138,102.138 260.388,99.764 260.388,96.764 L252.578,96.764 C252.578,101.628 254.12,105.802 257.206,109.282 C260.29,112.764 264.068,114.504 268.538,114.504 C273.404,114.504 277.224,112.792 279.996,109.368 C282.77,105.946 284.158,101.998 284.158,97.526 C284.1,93.962 283.066,90.708 281.058,87.766 C279.048,84.822 275.78,81.822 271.254,78.766 L271.254,78.766 Z" id="Fill-1" fill="#0092C8"></path>
            <path d="M0.562,128.882 L14.12,128.882 L14.12,131.028 L3.174,131.028 L3.174,137.324 L13.378,137.324 L13.378,139.47 L3.174,139.47 L3.174,146.374 L14.202,146.374 L14.202,148.518 L0.562,148.518 L0.562,128.882" id="Fill-2" fill="#4D4D4C"></path>
            <path d="M28.722,134.63 C28.576,133.2 28.066,132.162 27.196,131.522 C26.326,130.88 25.212,130.56 23.854,130.56 C23.304,130.56 22.764,130.616 22.232,130.726 C21.7,130.838 21.228,131.022 20.816,131.282 C20.404,131.54 20.074,131.886 19.826,132.32 C19.578,132.756 19.456,133.296 19.456,133.944 C19.456,134.552 19.634,135.046 19.992,135.426 C20.348,135.806 20.826,136.116 21.42,136.356 C22.016,136.596 22.69,136.796 23.442,136.952 C24.194,137.11 24.964,137.28 25.752,137.462 C26.54,137.646 27.31,137.862 28.062,138.11 C28.814,138.356 29.482,138.692 30.07,139.114 C30.656,139.536 31.13,140.07 31.486,140.72 C31.844,141.374 32.022,142.174 32.022,143.128 C32.022,144.172 31.788,145.066 31.322,145.808 C30.854,146.55 30.254,147.156 29.52,147.624 C28.786,148.092 27.966,148.436 27.058,148.654 C26.152,148.876 25.248,148.984 24.35,148.984 C23.25,148.984 22.21,148.848 21.228,148.572 C20.248,148.296 19.386,147.876 18.644,147.306 C17.902,146.74 17.314,146.02 16.884,145.148 C16.452,144.278 16.238,143.246 16.238,142.054 L18.712,142.054 C18.712,142.888 18.872,143.608 19.194,144.212 C19.514,144.814 19.936,145.31 20.458,145.7 C20.982,146.09 21.586,146.376 22.274,146.562 C22.962,146.748 23.68,146.84 24.432,146.84 C25.018,146.84 25.61,146.786 26.206,146.674 C26.802,146.562 27.338,146.374 27.814,146.106 C28.292,145.838 28.676,145.472 28.97,145.012 C29.262,144.548 29.41,143.958 29.41,143.238 C29.41,142.554 29.232,142 28.874,141.574 C28.516,141.15 28.044,140.804 27.458,140.538 C26.87,140.268 26.202,140.046 25.45,139.872 C24.698,139.696 23.928,139.526 23.14,139.36 C22.352,139.196 21.582,138.998 20.83,138.77 C20.078,138.54 19.404,138.232 18.808,137.848 C18.212,137.462 17.736,136.976 17.378,136.39 C17.02,135.802 16.842,135.06 16.842,134.162 C16.842,133.172 17.044,132.316 17.448,131.592 C17.85,130.868 18.386,130.272 19.056,129.804 C19.724,129.336 20.486,128.988 21.338,128.76 C22.192,128.53 23.066,128.416 23.964,128.416 C24.972,128.416 25.908,128.536 26.77,128.774 C27.63,129.012 28.382,129.386 29.024,129.9 C29.666,130.414 30.18,131.06 30.564,131.838 C30.95,132.62 31.16,133.548 31.198,134.63 L28.722,134.63" id="Fill-3" fill="#4D4D4C"></path>
            <path d="M39.638,131.028 L33.094,131.028 L33.094,128.882 L48.796,128.882 L48.796,131.028 L42.252,131.028 L42.252,148.518 L39.638,148.518 L39.638,131.028" id="Fill-4" fill="#4D4D4C"></path>
            <path d="M50.46,134.836 C50.854,133.6 51.446,132.504 52.234,131.55 C53.022,130.598 54.002,129.836 55.176,129.268 C56.35,128.7 57.716,128.416 59.274,128.416 C60.832,128.416 62.198,128.7 63.372,129.268 C64.546,129.836 65.526,130.598 66.314,131.55 C67.102,132.504 67.694,133.6 68.088,134.836 C68.482,136.074 68.68,137.362 68.68,138.7 C68.68,140.04 68.482,141.326 68.088,142.564 C67.694,143.8 67.102,144.896 66.314,145.85 C65.526,146.802 64.546,147.564 63.372,148.132 C62.198,148.702 60.832,148.984 59.274,148.984 C57.716,148.984 56.35,148.702 55.176,148.132 C54.002,147.564 53.022,146.802 52.234,145.85 C51.446,144.896 50.854,143.8 50.46,142.564 C50.066,141.326 49.87,140.04 49.87,138.7 C49.87,137.362 50.066,136.074 50.46,134.836 L50.46,134.836 Z M52.868,141.648 C53.124,142.618 53.526,143.49 54.078,144.266 C54.628,145.042 55.332,145.664 56.194,146.134 C57.056,146.606 58.082,146.84 59.274,146.84 C60.466,146.84 61.492,146.606 62.354,146.134 C63.216,145.664 63.922,145.042 64.472,144.266 C65.022,143.49 65.424,142.618 65.682,141.648 C65.938,140.68 66.066,139.698 66.066,138.7 C66.066,137.704 65.938,136.72 65.682,135.752 C65.424,134.784 65.022,133.91 64.472,133.134 C63.922,132.36 63.216,131.736 62.354,131.266 C61.492,130.796 60.466,130.56 59.274,130.56 C58.082,130.56 57.056,130.796 56.194,131.266 C55.332,131.736 54.628,132.36 54.078,133.134 C53.526,133.91 53.124,134.784 52.868,135.752 C52.61,136.72 52.482,137.704 52.482,138.7 C52.482,139.698 52.61,140.68 52.868,141.648 L52.868,141.648 Z" id="Fill-5" fill="#4D4D4C"></path>
            <path d="M71.84,128.882 L74.618,128.882 L84.96,144.804 L85.014,144.804 L85.014,128.882 L87.488,128.882 L87.488,148.518 L84.63,148.518 L74.372,132.76 L74.316,132.76 L74.316,148.518 L71.84,148.518 L71.84,128.882" id="Fill-6" fill="#4D4D4C"></path>
            <path d="M91.834,128.882 L94.446,128.882 L94.446,148.516 L91.834,148.516 L91.834,128.882 Z" id="Fill-7" fill="#4D4D4C"></path>
            <path d="M98.844,128.882 L112.402,128.882 L112.402,131.028 L101.458,131.028 L101.458,137.324 L111.66,137.324 L111.66,139.47 L101.458,139.47 L101.458,146.374 L112.486,146.374 L112.486,148.518 L98.844,148.518 L98.844,128.882" id="Fill-8" fill="#4D4D4C"></path>
        </g>
    </g>
</svg>