<?xml version="1.0" encoding="UTF-8" standalone="no"?>
<svg viewBox="0 0 719 150" version="1.1" xmlns="http://www.w3.org/2000/svg" xmlns:xlink="http://www.w3.org/1999/xlink">
    <defs></defs>
    <g id="Page-1" stroke="none" stroke-width="1" fill="none" fill-rule="evenodd">
        <g id="logo-ps4" fill="#FFFFFF">
            <g id="Page-1">
                <g id="Imported-Layers">
                    <path d="M72.3,0.2 C73.2,0.3 74.2,0.3 75,0.7 C75.6,0.8 76.3,0.8 76.9,0.9 C78.4,1.4 80,1.7 81.5,2.1 C82.2,2.2 82.8,2.3 83.5,2.4 C84.2,2.6 84.8,2.9 85.5,3.1 C86.8,3.4 88,3.7 89.3,3.9 L89.3,4.1 C91.2,4.4 93,5 94.8,5.6 C96.5,6 98.3,6.4 99.9,7.2 C100.5,7.3 101.1,7.3 101.7,7.4 L101.7,7.8 C102.1,7.8 102.8,7.9 103.2,8 C103.8,8.2 104.4,8.5 105.1,8.7 C106.3,9 107.4,9.4 108.6,9.7 C109.9,10.1 111.3,10.6 112.6,11 C113.5,11.3 114.5,11.6 115.5,11.9 C116.2,12.2 116.9,12.4 117.6,12.7 C118.1,12.9 118.6,13 119.1,13.2 C119.8,13.4 120.5,13.7 121.1,13.9 C121.7,14.2 122.4,14.4 123,14.7 C123.5,14.9 124.1,15.1 124.6,15.3 C125.4,15.7 126.2,16.1 127.1,16.4 C128,16.9 128.8,17.3 129.7,17.8 L130.2,17.8 C131.3,18.6 132.5,19.3 133.7,19.9 C134.3,20.3 134.9,20.7 135.5,21.1 C137.9,22.6 139.9,24.6 142,26.4 C142,26.5 142,26.7 141.9,26.9 L142.2,26.7 C143.6,28.4 145,30.1 146.1,32 C146.4,32.6 146.7,33.2 147,33.8 L147.2,33.7 C147.4,34.3 147.6,34.8 147.8,35.4 C148.1,36.1 148.4,36.7 148.7,37.4 C149.3,39.5 150.2,41.6 150.4,43.8 L150.7,43.8 C150.8,45 150.8,46.1 150.9,47.3 L151.2,47.3 C151.5,52.7 152.2,58.1 151.5,63.5 C151.4,64.6 151.3,65.7 151.3,66.9 L151,66.8 C150.9,67.7 150.9,68.7 150.8,69.6 C150.4,70.6 150.1,71.5 149.8,72.5 C149.5,73.2 149.3,73.9 149.1,74.6 C148.8,75.3 148.4,76 148,76.6 L148,77 C147.8,77.3 147.4,77.9 147.3,78.2 L147.2,78.3 C146.8,78.9 146.4,79.5 146,80.1 C145.9,80.3 145.6,80.6 145.4,80.8 L145.2,80.8 C145.1,81 144.8,81.4 144.7,81.5 C144.1,82.1 143.5,82.6 142.9,83.2 C142.2,83.7 141.5,84.1 140.8,84.6 C140.5,84.8 140,85.1 139.8,85.3 L139.3,85.3 C135,87.6 130,86.9 125.3,86.6 C123.5,86 121.6,85.5 119.9,84.8 C119.3,84.6 118.6,84.3 118,84.1 L118,83.6 C117.8,83.7 117.3,83.8 117.1,83.9 L117.1,83.2 L116.6,83.2 C116.7,70.8 116.6,58.4 116.6,45.9 C116.6,41 116.7,36.1 116.4,31.1 L116.1,31.1 C115.8,27 111.7,23.8 107.7,24.6 C107.4,24.8 106.9,25.1 106.7,25.3 C105,27 104.2,29.5 104.4,31.9 L104.4,140.3 C104.4,143.4 104.3,146.5 104.6,149.6 C104.3,149.6 103.6,149.7 103.3,149.7 C103.6,149.5 103.9,149.2 104.2,149 C102.7,149.4 101.3,148.6 99.9,148.2 C98.6,147.8 97.2,147.3 95.9,147 C95.2,146.8 94.6,146.5 93.9,146.3 C93.6,146.3 92.9,146.2 92.6,146.2 L92.6,145.9 C91.4,145.7 90.2,145.3 89.1,144.9 C88.1,144.6 87.1,144.3 86,144.1 L86.1,143.8 C85.8,143.8 85.1,143.7 84.8,143.7 C84.2,143.4 83.5,143.2 82.9,142.9 C82.4,142.8 81.9,142.6 81.4,142.5 C80.7,142.3 80.1,142.1 79.4,141.9 C77.9,141.4 76.4,141 74.9,140.5 C74.2,140.3 73.4,140.1 72.7,139.8 C72.3,93.2 72.4,46.7 72.3,0.2" id="Fill-1"></path>
                    <path d="M364,35.6 C370.1,35.5 376.5,35.6 382,38.7 L382.7,38.7 L382.6,39.1 C384.2,40 385.6,41.2 387,42.4 C387.1,42.5 387.4,42.8 387.5,43 C388.2,43.8 388.9,44.6 389.5,45.4 C389.7,45.8 389.9,46.2 390.2,46.7 C390.5,47.2 390.8,47.6 391.1,48.1 L391.1,48.6 C391.6,49.6 392,50.6 392.5,51.5 C392.5,51.8 392.5,52.5 392.6,52.9 L393,52.9 C393.1,53.8 393.1,54.7 393.2,55.7 C394,58.7 393.6,61.9 393.5,64.9 L393.2,64.9 C393.2,65.8 393.1,66.7 393,67.6 C392.6,68.8 392.2,70 391.7,71.2 C391.7,71.4 391.6,71.6 391.6,71.8 C391,72.9 390.4,74 389.8,75.2 C388.5,76.9 387.2,78.6 385.5,79.9 C384.8,80.4 384.1,80.9 383.4,81.4 L383.3,81.4 C381.8,82.3 380.3,83.1 378.7,83.6 L378.7,83.8 C377.4,84 376.2,84.3 375,84.8 C373.5,84.9 372,85 370.5,85.4 C342.7,85.6 315,85.3 287.2,85.5 L287.2,85.9 C286.2,86 285.2,86.3 284.4,87 C284.2,87 283.9,86.9 283.7,86.9 L283.7,87.5 L283.3,87.4 C281.6,88.8 280.3,90.6 279.3,92.6 C279,93.4 278.7,94.3 278.5,95.2 C277.6,98.6 277.9,102.2 277.9,105.7 C277.9,113.1 278,120.5 277.8,128 C271.3,128.1 264.7,128 258.2,128 C258.1,119.2 258.2,110.5 258.1,101.7 C258.2,99.5 258,97.3 258.5,95.2 C258.6,94.5 258.7,93.9 258.8,93.2 C259,92.5 259.2,91.9 259.4,91.2 C259.8,89.9 260.4,88.6 261,87.4 C261.8,85.9 262.8,84.4 263.8,83.1 L264.2,83.1 L264.1,82.7 C264.4,82.5 264.9,82.1 265.2,81.9 L265.1,81.4 L265.5,81.5 C265.6,81.3 265.9,81 266,80.8 C267,80 268,79.2 268.9,78.4 C269.1,78.4 269.4,78.4 269.6,78.5 L269.7,78.1 C270.3,77.9 270.8,77.6 271.4,77.4 C272,77.1 272.7,76.9 273.3,76.6 C275.4,76 277.6,75.5 279.8,75.6 L358.8,75.6 C360.5,75.5 362.2,75.8 363.9,75.3 C364.7,75.1 365.5,75 366.3,74.7 C368.9,73.5 371.1,71.5 372.3,68.8 C372.7,67.8 373,66.8 373.4,65.8 C373.5,64.9 373.5,63.9 373.6,63 C373.7,63 373.9,63.1 374,63.1 L374,58.2 L373.6,58.2 C373.6,57.4 373.5,56.6 373.5,55.8 C373.3,55.2 373.1,54.6 372.9,54 C372.7,53.5 372.5,53 372.2,52.5 C372.1,52.3 372,51.8 371.9,51.6 C371.5,51.2 371.2,50.8 370.9,50.4 L370.8,50.3 C370.5,49.9 370.2,49.5 369.9,49.1 C369.7,49 369.4,48.8 369.3,48.7 C368.4,47.9 367.4,47.2 366.2,47 L366.2,46.5 C365.4,46.4 364.7,46.3 363.9,46.3 C363.3,46.1 362.6,45.9 362,45.9 L258.2,45.9 L258.2,36.2 C293.5,35.6 328.8,35.6 364,35.6" id="Fill-2"></path>
                    <path d="M485.3,35.7 L485.3,35.4 C505.2,35.5 525.2,35.4 545.1,35.4 C545.5,35.5 546.3,35.7 546.7,35.9 C546.6,39 546.7,42.2 546.7,45.3 C530.3,45.4 514,45.3 497.6,45.4 C494.9,45.5 492.2,45.1 489.6,45.7 C488,46 486.4,46.6 485,47.4 C483.2,48.7 481.8,50.5 480.9,52.5 C480.6,53.4 480.3,54.3 480,55.1 C479.9,55.8 479.9,56.4 479.8,57.1 C479.3,58.7 479.4,60.4 479.4,62 L479.4,102.5 C479.4,104.8 479.4,107.2 478.9,109.4 L478.6,109.3 C478.5,110 478.5,110.8 478.4,111.5 C476.9,116 474.3,120.2 470.4,123 L470.3,123.3 C470.1,123.3 469.7,123.2 469.5,123.2 L469.5,123.6 C468.7,124 467.9,124.4 467.1,124.9 C466.6,125.1 466.2,125.3 465.7,125.5 C464.9,125.8 464.1,126.1 463.3,126.3 L463.4,126.5 C456.4,128.2 449.2,127.6 442.1,127.7 C424.6,127.6 407,127.8 389.5,127.6 L389.5,118.1 L390,118.2 L389.9,117.7 L447.7,117.7 C449.4,117.8 451.1,117.2 452.8,116.7 C453.9,116.1 454.8,115.4 455.8,114.6 C457.1,113.3 457.9,111.7 458.6,110 C459.8,107.1 459.5,104 459.6,100.9 C459.8,99.7 459.8,98.6 459.8,97.4 C459.3,94.2 459.8,91.1 459.8,87.9 C459.6,86.2 459.7,84.6 459.8,82.9 C459.4,81.2 459.7,79.6 459.7,77.9 C459.8,76.7 459.9,75.6 459.8,74.4 C459.3,70.4 460,66.4 459.7,62.4 C459.5,61.2 459.5,60.1 459.7,58.9 C459.8,57.6 459.8,56.2 460.2,54.9 C460.3,54.2 460.4,53.4 460.5,52.7 L460.8,52.7 C460.9,51.9 461.1,51.2 461.3,50.5 C461.9,49.1 462.5,47.7 463.2,46.4 C463.8,45.4 464.5,44.5 465.3,43.6 C465.4,43.5 465.7,43.2 465.9,43.1 L465.8,42.9 C466.3,42.5 466.7,42.1 467.2,41.7 C468.6,40.5 470.1,39.3 471.8,38.6 L471.9,38.4 C473,38 474.2,37.5 475.4,37.1 L475.4,36.8 C475.9,36.8 476.9,36.7 477.4,36.7 L477.3,36.3 C478.1,36.2 478.9,36.1 479.7,36 C481.4,35.7 483.3,35.7 485.3,35.7" id="Fill-3"></path>
                    <path d="M659.1,36 C660.2,35.8 661.4,35.7 662.5,35.4 C663.2,35.6 663.9,35.8 664.6,35.9 C665.4,36.2 666.2,36.7 666.9,37.2 C667,37.3 667.3,37.6 667.4,37.7 C667.8,38.3 668.3,38.8 668.7,39.4 C668.9,40.2 669.2,41 669.4,41.8 L669.7,41.8 C669.9,63.8 669.7,85.8 669.8,107.8 C676.3,107.9 682.8,107.8 689.3,107.8 C689.3,108 689.2,108.4 689.2,108.6 L689.7,108.6 L689.7,117.6 C683.1,117.8 676.5,117.6 669.9,117.7 C669.8,121 669.9,124.3 669.8,127.6 C663.3,127.7 656.9,127.6 650.4,127.6 C650.3,127.4 650,127.1 649.9,126.9 C650,123.8 650,120.8 649.8,117.7 C615.1,117.6 580.3,117.7 545.6,117.7 C543.8,117.7 542,117.6 540.5,116.7 L540,116.7 C539,116 538.3,115 537.7,114 C537.7,113.1 537.8,112.2 537.9,111.3 C538.4,110.6 538.9,109.9 539.4,109.2 C540.3,108.4 541.1,107.6 542,106.9 C543.7,105.9 545.3,104.9 547,103.9 C547.7,103.5 548.3,103 549,102.5 C549.2,102.5 549.5,102.6 549.7,102.6 L549.7,102.2 C551,101.4 552.3,100.6 553.7,99.9 L553.8,99.5 L554.4,99.6 L554.4,99 C554.6,99 554.9,99.1 555.1,99.1 C555.3,98.9 555.8,98.5 556,98.3 C556.6,98 557.2,97.7 557.8,97.4 L557.8,97 C558,97 558.4,97.1 558.7,97.1 L558.7,96.7 C559.7,96.1 560.6,95.5 561.6,95 C562.2,94.6 562.8,94.3 563.3,94 L563.3,93.9 C564.2,93.4 565.1,92.9 565.9,92.4 C566.1,92.2 566.6,92 566.8,91.8 C567.5,91.4 568.2,91 568.9,90.5 C570.1,89.8 571.3,89.1 572.5,88.4 C573.3,87.9 574.2,87.3 575,86.7 L575.4,86.7 C576.2,86 577.1,85.5 578.1,85 L578.2,84.8 C579.7,84 581.2,83.1 582.6,82.1 C583.6,81.5 584.6,80.9 585.6,80.2 L586.1,80.2 C586.3,80 586.8,79.6 587.1,79.4 C587.8,79 588.4,78.6 589,78.3 C590.2,77.6 591.4,76.8 592.6,76.1 C593.2,75.8 593.8,75.4 594.4,75.1 L594.4,74.7 C594.6,74.7 595.1,74.8 595.4,74.9 L595.4,74.5 C596.2,74.1 597,73.6 597.9,73.2 L597.9,73 C599.1,72.4 600.2,71.7 601.3,70.9 L602,70.9 L602,70.6 C602.6,70.2 603.2,69.8 603.8,69.4 L604.2,69.4 C604.4,69.2 604.8,68.9 605,68.7 L605.1,68.4 L605.7,68.4 C606.2,68 606.8,67.6 607.3,67.2 C608.3,66.6 609.3,66.1 610.2,65.3 C610.3,65.3 610.7,65.3 610.8,65.4 L610.9,65 C613,63.8 615.1,62.4 617.2,61.2 C618.4,60.5 619.5,59.7 620.7,59 C622.4,58 624.2,57.1 625.8,55.8 L626.2,55.8 C627,55.2 627.8,54.7 628.7,54.1 C629.9,53.4 631.1,52.6 632.3,51.8 L632.9,51.9 C632.9,51.8 633,51.6 633,51.5 C633.2,51.3 633.6,51 633.8,50.8 L634.2,50.8 C635,50.2 635.9,49.6 636.8,49.1 C637.3,48.8 637.9,48.4 638.4,48.1 C638.8,47.8 639.2,47.6 639.6,47.3 C640.7,46.7 641.8,46 642.8,45.2 C642.9,45.2 643.1,45.2 643.2,45.3 C644,44.6 644.9,44 645.8,43.5 L645.9,43.3 C646.4,43 646.8,42.8 647.3,42.5 C648.3,41.8 649.4,41.2 650.4,40.6 C650.8,40.3 651.3,39.9 651.7,39.6 L652.4,39.6 L652.5,39.1 L653.1,39.2 L653.1,38.6 C653.3,38.6 653.8,38.7 654,38.7 L654,38.3 C655.2,37.7 656.5,37 657.8,36.5 C658,36.4 658.5,36.2 659.1,36 L659.1,36 L659.1,36 Z M643.8,56.3 C641.6,57.7 639.2,59 637.1,60.5 C636.6,60.8 636.1,61 635.6,61.3 C634.9,61.7 634.3,62.1 633.6,62.5 C632.8,62.9 632.1,63.4 631.4,63.8 L631.3,64.1 L630.9,64 C630.7,64.2 630.2,64.5 629.9,64.6 C629.2,65 628.6,65.5 628,66 C627.8,66 627.5,65.9 627.4,65.9 L627.3,66.3 C626.7,66.6 626.1,67 625.6,67.4 C624.9,67.8 624.1,68.3 623.4,68.7 L623.3,68.9 C622.4,69.4 621.6,69.9 620.7,70.4 C620.1,70.8 619.6,71.2 619,71.6 C618.8,71.6 618.5,71.5 618.3,71.5 L618.3,72.1 L617.7,72 L617.7,72.6 C617.5,72.6 617,72.5 616.8,72.5 L616.7,73.1 L616,73.1 C614.5,74.3 612.8,75.2 611.1,76.2 L611,76.3 C610.1,76.8 609.2,77.3 608.4,77.9 C605.2,79.9 602.1,81.8 598.9,83.8 C598.3,84.2 597.8,84.5 597.2,84.8 L597.2,85 C595.9,85.7 594.6,86.5 593.3,87.3 C592.7,87.7 592,88.2 591.4,88.7 C591.3,88.7 591.1,88.7 590.9,88.8 C590.6,89 590,89.3 589.7,89.5 L589.7,89.7 C589.1,90 588.6,90.3 588,90.6 C586.6,91.5 585.1,92.4 583.7,93.3 C582.2,94.2 580.8,95.2 579.2,96 L579.2,96.2 C578.7,96.4 578.2,96.7 577.6,96.9 L577.6,97.1 C576.6,97.7 575.5,98.3 574.5,98.9 L574.4,99.3 L573.8,99.3 C572.4,100.4 570.9,101.3 569.3,102.2 C569.1,102.4 568.6,102.7 568.4,102.8 L568,102.7 L568,103.3 C567.8,103.3 567.4,103.2 567.2,103.2 L567.2,103.6 C566.7,103.9 566.1,104.1 565.6,104.4 L565.6,104.8 C565.4,104.8 565,104.7 564.8,104.7 L564.8,105.1 C564.3,105.3 563.8,105.6 563.2,105.8 L563.2,106.1 C562.7,106.4 562.2,106.6 561.7,106.9 C561.7,107.1 561.7,107.6 561.6,107.8 C562.9,107.9 564.1,107.9 565.4,107.9 L649.8,107.9 C649.9,94.8 649.8,81.7 649.8,68.5 C649.7,63.4 650,58.3 649.6,53.2 C647.5,53.7 645.8,55.3 643.8,56.3 L643.8,56.3 L643.8,56.3 Z" id="Fill-4"></path>
                    <path d="M64.8,84.7 L66.4,84.7 C66.4,90.8 66.5,96.9 66.3,103 C65.2,103.3 64.1,103.6 63.1,104.1 C62.8,104.2 62.3,104.3 62,104.3 C61.5,104.6 60.9,104.8 60.4,105.1 C60.2,105.1 59.8,105.2 59.6,105.3 C57.5,106.2 55.3,106.8 53.2,107.7 C52.9,107.7 52.2,107.8 51.9,107.8 L51.9,108.1 C51.1,108.3 50.4,108.6 49.6,108.9 C49,109.1 48.4,109.3 47.8,109.4 L47.9,109.6 C47.3,109.7 46.7,109.9 46.2,110.1 C45.4,110.4 44.6,110.6 43.8,110.9 L43.8,111.2 C43.5,111.2 42.8,111.3 42.5,111.3 C41.6,111.7 40.7,112.1 39.8,112.3 L39.8,112.5 C37.4,113 35.2,114 33,114.8 C32.3,115.1 31.7,115.5 31,115.8 C30.5,116.2 29.9,116.5 29.4,116.9 C29.2,117.7 28.9,118.4 28.7,119.2 L29.2,119.2 C29.4,119.4 29.7,119.7 29.9,119.9 L29.8,120.1 C30.4,120.3 31,120.6 31.6,120.9 C32.4,121.1 33.1,121.2 33.9,121.4 L33.8,121.7 C37.5,122 41.2,121.9 45,121.7 L44.9,121.3 C47.1,121.3 49.2,120.6 51.2,119.8 C51.5,119.7 52,119.6 52.3,119.6 C52.9,119.3 53.5,119.1 54.1,118.8 C54.8,118.6 55.6,118.3 56.3,118.1 C56.9,117.8 57.6,117.6 58.2,117.3 C58.9,117.1 59.6,116.8 60.3,116.6 C61.4,116.2 62.5,115.8 63.5,115.3 L64.5,115.3 L64.5,114.8 C65.2,114.7 65.9,114.7 66.6,114.6 L66.6,130.7 C65.3,131 63.9,131.2 62.6,131.3 L62.6,131.6 C60.9,131.6 59.2,131.7 57.6,131.8 L57.8,132.2 C55.8,132.3 53.8,132.2 51.9,132.5 C48.6,132.6 45.2,132.8 41.9,132.4 C40,132.3 38,132.2 36.1,132.2 L36.2,131.8 C34.7,131.7 33.3,131.6 31.8,131.6 C31.6,131 31.2,130.2 30.9,131.1 L29.3,131.1 L29.1,130.9 C28.2,130.8 27.3,130.7 26.5,130.4 C25.6,130.2 24.8,130.1 24,129.8 C23.4,129.7 22.7,129.6 22.1,129.4 C21.4,129.2 20.8,129 20.1,128.7 C19.5,128.6 18.9,128.6 18.3,128.5 L18.3,128.2 C16.7,127.9 15.1,127.3 13.5,126.8 C12.7,126.5 11.8,126.3 11,126 C10.5,125.7 10,125.5 9.5,125.2 L9,125.2 C8.7,125 8.2,124.7 8,124.6 C7.1,124.1 6.3,123.7 5.5,123.2 C4.7,122.5 3.8,121.8 3,121 C2.5,120.3 1.9,119.7 1.4,119 C0.4,116.8 0.4,114.1 1.3,111.8 C2.4,110.4 3.7,109.1 5.2,108.1 C6.1,107.6 6.9,107 7.8,106.6 L7.8,106.2 C8,106.2 8.5,106.3 8.7,106.3 L8.8,105.9 C9.9,105.4 10.9,104.9 11.9,104.4 C12.7,104 13.6,103.7 14.4,103.3 C14.9,103.1 15.5,102.9 16,102.7 C17.4,102.1 18.8,101.6 20.2,101.2 L20.2,100.9 C20.5,100.9 21.2,100.8 21.6,100.8 C22.1,100.5 22.7,100.2 23.2,100 C23.4,99.9 23.9,99.8 24.1,99.8 C24.6,99.6 25.1,99.4 25.6,99.3 C27.2,98.7 28.8,98.2 30.4,97.6 C30.9,97.4 31.5,97.2 32,97.1 C32.8,96.8 33.6,96.5 34.4,96.1 C34.7,96 35.3,95.9 35.6,95.9 C37.2,95.2 38.8,94.7 40.4,94.1 C41.7,93.6 43.1,93.2 44.4,92.6 C44.7,92.6 45.2,92.5 45.5,92.4 C46.3,92 47.1,91.7 48,91.4 C48.6,91.2 49.2,91.1 49.8,90.9 L49.7,90.7 C51,90.4 52.3,89.9 53.5,89.5 C54.3,89.2 55.1,88.9 55.9,88.6 C57.1,88.2 58.3,87.8 59.5,87.4 C60.1,87.2 60.7,86.9 61.4,86.7 C62.1,86.5 62.7,86.2 63.4,86 C64,85.8 64.6,85.6 65.3,85.4 L64.8,84.7" id="Fill-5"></path>
                    <path d="M141.3,92.7 L141.2,92.4 C143.8,92.5 146.4,92.3 149,92.5 C151.3,92.9 153.6,92.8 156,93 C157,93.2 157.9,93.2 158.9,93.3 L158.8,93.6 C160.2,93.7 161.6,93.7 163,93.8 C164.8,94.4 166.7,94.4 168.5,95.1 C169.2,95.2 170,95.3 170.7,95.4 L170.7,95.7 C172.4,95.8 174.1,96.5 175.7,96.9 L175.7,97.1 C177.8,97.5 179.8,98.5 181.9,99.1 C182.5,99.4 183,99.6 183.6,99.9 C184.3,100.2 184.9,100.5 185.6,100.8 C185.8,100.8 186.1,100.7 186.2,100.7 L186.3,101.4 C186.5,101.4 186.9,101.4 187,101.3 C188,102.1 189.1,102.8 190.1,103.7 C190.2,103.7 190.5,103.7 190.7,103.8 L190.7,104.4 L191.1,104.4 C191.4,104.8 191.7,105.2 192,105.6 C192.2,105.8 192.6,106.3 192.8,106.5 L192.8,107 C193.1,107.5 193.4,107.9 193.7,108.4 C193.8,110.2 193.8,112 192.9,113.5 C192.6,113.9 192.4,114.3 192.1,114.7 C192,114.9 191.7,115.2 191.5,115.3 L191.4,115.3 C191.3,115.5 191,115.8 190.9,116 C188.6,118.1 185.8,119.7 183,121.1 C181.6,121.7 180.3,122.4 178.9,122.9 C178.4,123.1 177.9,123.2 177.4,123.4 C174,124.7 170.4,125.9 167,127.2 C166.2,127.5 165.3,127.8 164.5,128.1 C164,128.3 163.5,128.5 163,128.7 C162.7,128.8 162.1,128.9 161.9,129 C161.1,129.3 160.3,129.6 159.5,129.9 C159,130.1 158.4,130.3 157.9,130.4 C156.3,131 154.7,131.6 153,132.2 C152.3,132.4 151.6,132.7 150.9,132.9 C150.3,133.1 149.6,133.4 149,133.6 C148.5,133.8 148,133.9 147.5,134.1 C146.7,134.4 145.8,134.7 145,135.1 C144.7,135.1 144.2,135.2 143.9,135.3 C143.1,135.7 142.3,136 141.5,136.3 C140.9,136.5 140.3,136.7 139.7,136.8 L139.7,137 C136.8,137.7 134,139 131.1,139.9 C130.6,140.1 130,140.3 129.5,140.5 C128.3,140.9 127.1,141.3 126,141.8 C124.7,142.3 123.3,142.8 122,143.3 C121.5,143.5 121,143.7 120.5,143.8 C119.4,144.2 118.3,144.6 117.2,145 C114.8,145.8 112.5,146.9 110,147.4 L110,129.7 C110.5,128.8 111.7,128.8 112.5,128.3 C113.7,127.9 114.9,127.5 116.1,127.1 C117.1,126.7 118.2,126.4 119.2,126 C120.1,125.7 121,125.4 121.9,125.1 L121.9,124.8 C122.6,124.7 123.2,124.7 123.9,124.7 L123.9,124.4 C125.2,124 126.4,123.6 127.7,123.1 C128.5,122.8 129.4,122.5 130.2,122.2 C130.7,122 131.2,121.8 131.7,121.6 C132.2,121.4 132.7,121.3 133.3,121.1 C134.1,120.8 134.9,120.5 135.7,120.2 C137.8,119.5 140,118.7 142.1,117.9 C142.6,117.7 143.2,117.5 143.7,117.3 C143.9,117.3 144.2,117.2 144.4,117.2 C145,116.9 145.5,116.6 146.1,116.4 C146.4,116.4 146.9,116.3 147.2,116.2 C149.5,115.2 151.9,114.4 154.3,113.6 C154.7,113.5 155.5,113.3 155.9,113.1 L155.9,112.9 C156.5,112.8 157.1,112.6 157.7,112.4 C158.9,111.9 160.2,111.4 161.5,111.1 L161.5,110.9 C162.4,110.7 163.1,110.3 163.9,109.8 L164.3,109.8 C164.4,109.6 164.7,109.2 164.9,109 C165.1,108.9 165.5,108.7 165.6,108.6 C166.3,107.2 165.7,105.9 164.4,105.2 C163.8,105 163.3,104.8 162.8,104.6 C161.8,104.1 160.6,104.2 159.5,104.1 L159.6,103.8 C157,103.8 154.4,103.4 151.9,104.1 C150.9,104.2 149.9,104.2 148.9,104.3 C147.6,104.8 146.2,105 144.8,105.4 C143.5,105.9 142.1,106.3 140.8,106.8 C140.1,107.1 139.5,107.3 138.8,107.6 C138.5,107.6 138,107.7 137.8,107.7 C137,108.1 136.1,108.4 135.3,108.7 C133.9,109.2 132.6,109.7 131.1,109.9 L131.1,110.4 C130.3,110.6 129.6,110.7 128.8,111 C128.3,111.2 127.8,111.4 127.4,111.5 C126.5,111.8 125.7,112.1 124.8,112.4 C124.1,112.6 123.5,112.8 122.9,113.1 C121.5,113.6 120.2,114 118.9,114.6 C118.7,114.7 118.2,114.8 117.9,114.8 C117.1,115.2 116.2,115.5 115.3,115.8 C114.8,116 114.3,116.1 113.8,116.3 C112.7,116.8 111.5,117.2 110.2,117.4 L110.2,100.4 C110.2,99.7 110.3,98.9 110.6,98.2 C111.7,98.1 112.8,97.7 113.9,97.2 C114.2,97.1 114.9,97 115.3,96.9 C117.1,96.2 119,95.7 120.9,95.4 C121.7,95.1 122.6,95 123.4,94.9 C124.2,94.7 125,94.5 125.8,94.2 C126.7,94.1 127.7,94 128.6,94 L128.5,93.6 C130,93.5 131.5,93.4 133,93.4 L132.9,93.1 C135.5,93 138.4,92.6 141.3,92.7" id="Fill-6"></path>
                    <path d="M716.5,117.4 C717.1,117.4 717.7,117.3 718.3,117.3 C719.2,120.5 718.4,124 718.7,127.3 L718.2,127.3 L718.4,128 L717.8,127.6 C717.7,127.9 717.6,128.4 717.5,128.6 C717,126.2 717.2,123.7 717.2,121.2 L716.3,121.2 C715.9,122.6 715.5,124 715,125.4 C714.7,126.1 714.6,126.9 714.5,127.6 C713.9,127.6 713.4,127.7 712.9,127.7 C712.1,125.1 711.1,122.5 710.3,119.9 C710.1,122.5 710.2,125 710.2,127.6 C709.8,127.6 709.1,127.7 708.7,127.7 L708.7,117.5 L710.7,117.5 C710.9,118.2 711.1,119 711.3,119.7 L711.5,119.7 C711.9,121.3 712.4,122.9 713,124.4 C713.1,124.9 713.3,125.5 713.5,126.1 C714.5,123.2 715.6,120.3 716.5,117.4" id="Fill-7"></path>
                    <path d="M699.3,117.3 C702,117.4 704.6,117.3 707.3,117.3 C707.3,117.8 707.2,118.2 707.2,118.7 L704.1,118.7 L704.1,127.1 C703.8,127.6 703.6,128 703.3,128.5 L703.3,127.7 C703.1,127.7 702.8,127.8 702.7,127.8 L702.7,118.6 C701.7,118.6 700.7,118.6 699.7,118.7 L699.8,118.2 L699.2,118.3 L699.3,117.3" id="Fill-8"></path>
                    <path d="M179.5,135 C181.4,134.4 183.3,134.6 185.2,135.2 C186.9,136.1 188.3,137.6 189.1,139.4 C189.5,140.9 189.4,142.4 189.3,143.9 C189.1,144.5 188.9,145 188.7,145.6 L188.6,145.6 C187.9,146.8 186.8,147.7 185.7,148.6 C185.6,148.6 185.4,148.6 185.2,148.7 C183.3,149.5 180.9,149.5 179.1,148.7 L178.6,148.7 C177.4,147.8 176.4,146.8 175.5,145.6 C175.3,145.1 175.1,144.5 174.9,144 C174.8,142.5 174.6,140.9 175.2,139.4 C175.5,138.9 175.7,138.3 176,137.8 C176.6,137.1 177.3,136.4 178.1,135.8 C178.4,135.6 178.9,135.3 179.5,135 L179.5,135 L179.5,135 Z M181.4,135.8 C180.5,136.1 179.6,136.4 178.8,136.7 C176.8,138.2 175.6,140.6 175.9,143.1 C176.2,143.7 176.4,144.3 176.6,145 C176.9,145.5 177.3,145.9 177.6,146.4 L178.1,146.9 C178.9,147.5 179.7,147.8 180.7,147.9 L180.7,148.2 L182.9,148.2 C183.8,147.9 184.7,147.5 185.6,147.2 L185.6,147 C187.8,145.2 188.6,142.1 187.5,139.5 C186.4,137.2 184,135.8 181.4,135.8 L181.4,135.8 L181.4,135.8 Z" id="Fill-9"></path>
                    <path d="M178.8,137.8 L183.6,137.8 C184.2,138.1 184.7,138.5 185.3,138.8 C185.1,139.9 185.7,141.5 184.4,142 C185.9,142.6 185,144.7 185.4,145.9 C185,145.9 184.2,145.8 183.8,145.7 C183.8,144.7 183.8,143.7 183.7,142.7 C182.5,142.7 181.4,142.6 180.2,142.6 C180.2,143.8 180.2,145.1 180.1,146.3 C179.6,146.1 179,146 178.7,145.6 C178.8,143 178.8,140.4 178.8,137.8 L178.8,137.8 L178.8,137.8 Z M180.3,139.2 L180.3,141.4 C181.5,141.4 182.6,141.4 183.8,141.3 L183.8,139.3 C182.6,139.2 181.4,139.2 180.3,139.2 L180.3,139.2 L180.3,139.2 Z" id="Fill-10"></path>
                </g>
            </g>
        </g>
    </g>
</svg>