<?xml version="1.0" encoding="UTF-8" standalone="no"?>
<svg viewBox="0 0 517 167" version="1.1" xmlns="http://www.w3.org/2000/svg" xmlns:xlink="http://www.w3.org/1999/xlink">
    <defs></defs>
    <g id="Page-1" stroke="none" stroke-width="1" fill="none" fill-rule="evenodd">
        <g id="Imported-Layers">
            <path d="M20.81,0.222 L496.781,0.222 C507.823,0.222 516.857,6.363 516.857,13.869 L516.857,153.066 C516.857,160.572 507.823,166.713 496.781,166.713 L20.81,166.713 C9.769,166.713 0.735,160.572 0.735,153.066 L0.735,13.869 C0.735,6.363 9.769,0.222 20.81,0.222" id="Fill-1" fill="#DC3E2E"></path>
            <path d="M481.901,86.136 C481.875,96.518 474.037,101.836 458.352,102.089 L458.381,90.409 L458.437,90.409 C463.45,90.494 465.95,89.222 465.919,86.571 C465.89,83.938 462.362,81.554 455.322,79.434 C448.28,77.332 442.995,75.017 439.451,72.485 C435.925,69.935 434.102,66.531 434.021,62.29 C434.047,51.908 441.516,46.571 456.442,46.279 L456.412,58.014 C452.175,58.168 450.064,59.46 450.058,61.855 C450.164,64.213 452.618,66.065 457.461,67.43 C462.376,68.777 467.662,70.946 473.332,73.958 C479.058,76.934 481.914,80.999 481.901,86.136" id="Fill-2" fill="#FFFFFF"></path>
            <path d="M447.621,81.445 C447.683,86.763 450.45,89.712 455.94,90.294 L455.911,102.028 C439.876,101.568 431.793,94.693 431.697,81.405 L447.621,81.445" id="Fill-3" fill="#FFFFFF"></path>
            <path d="M465.863,65.001 C465.764,60.76 463.42,58.452 458.835,58.075 L458.865,46.358 C473.641,46.76 481.135,52.993 481.363,65.095 L465.863,65.001" id="Fill-4" fill="#FFFFFF"></path>
            <path d="M425.372,75.901 L395.293,75.902 L395.275,83.286 C395.301,87.4 397.072,89.707 400.583,90.209 L400.554,101.781 C385.944,101.324 378.655,94.797 378.65,82.24 L378.696,64.346 C378.8,52.536 386.122,46.468 400.697,46.139 L400.666,57.82 C397.3,58.195 395.518,60.238 395.324,63.949 L395.313,68.024 C399.863,68.025 404.414,68.022 408.964,68.024 L425.372,75.901 L425.372,75.901 Z M408.964,68.023 L425.372,75.901 L425.452,64.791 C425.519,52.782 418.174,46.604 403.396,46.202 L403.366,57.863 C407.195,58.348 409.058,60.381 408.975,63.983 L408.964,68.023 L408.964,68.023 Z M425.351,82.558 L425.353,81.864 L408.929,81.823 L408.925,83.32 C408.951,87.324 407.077,89.604 403.284,90.162 L403.254,101.788 C418.034,101.256 425.393,94.841 425.351,82.558 L425.351,82.558 Z" id="Fill-5" fill="#FFFFFF"></path>
            <path d="M339.048,54.723 C339.902,53.336 341.089,52.023 342.571,50.82 L342.542,61.264 C341.672,61.993 341.207,63.703 341.129,65.275 L341.039,100.352 L324.245,100.31 L324.336,64.484 C324.608,59.64 323.116,57.169 319.861,57.088 C318.493,57.085 317.179,57.575 315.955,58.577 L315.979,49.145 C319.092,47.124 322.22,46.127 325.365,46.17 C332.115,46.151 336.676,48.996 339.048,54.723" id="Fill-6" fill="#FFFFFF"></path>
            <path d="M369.54,100.423 L352.746,100.381 L352.838,64.555 C353.11,59.711 351.617,57.241 348.362,57.159 C346.995,57.156 345.865,57.646 344.993,58.649 L345.018,49.218 C347.63,47.159 350.574,46.161 353.865,46.242 C364.112,46.194 369.331,52.312 369.52,64.596 L369.633,64.596 L369.54,100.423" id="Fill-7" fill="#FFFFFF"></path>
            <path d="M296.779,100.242 L296.914,47.324 L313.228,47.365 L313.092,100.282 L296.779,100.242" id="Fill-8" fill="#FFFFFF"></path>
            <path d="M269.022,62.572 C269.179,59.009 267.353,57.304 263.56,57.478 C258.9,57.466 256.452,59.233 256.24,62.759 L239.928,62.719 C239.882,51.513 247.923,45.886 264.07,45.854 C278.626,45.926 285.825,51.319 285.65,62.03 L285.608,78.682 C285.577,90.581 286.263,97.748 287.662,100.219 L271.257,100.178 C269.707,98.109 268.937,95.602 268.945,92.678 L269.022,62.572" id="Fill-9" fill="#FFFFFF"></path>
            <path d="M237.152,84.665 C236.959,73.844 246.407,67.214 265.483,64.757 L265.458,74.938 C257.981,76.839 254.108,79.516 253.84,82.933 C253.94,87.376 255.581,89.519 258.763,89.381 C261.499,89.388 263.719,89.12 265.422,88.593 L265.397,98.5 C263.044,100.067 259.916,100.844 256.013,100.834 C243.382,100.84 237.088,95.449 237.152,84.665" id="Fill-10" fill="#FFFFFF"></path>
            <path d="M207.529,89.271 C209.488,89.349 211.064,88.385 212.252,86.396 L212.228,95.808 C209.984,98.617 206.705,100.145 202.414,100.391 C190.744,100.324 184.953,93.803 185.023,80.843 L185.064,64.465 C185.059,52.566 189.994,46.547 199.851,46.388 C204.678,46.51 208.856,47.597 212.346,49.691 L212.323,58.793 C210.847,57.656 209.22,57.123 207.463,57.228 C203.727,57.183 201.835,58.858 201.753,62.259 L201.702,81.854 C201.395,86.751 203.348,89.223 207.529,89.271" id="Fill-11" fill="#FFFFFF"></path>
            <path d="M230.904,47.16 L230.786,93.112 C230.745,109.472 222.566,117.623 206.235,117.582 C204.867,117.541 203.499,117.447 202.13,117.297 C200.744,117.166 199.375,116.943 198.007,116.648 L198.145,106.1 C199.735,106.47 202.398,106.606 206.153,106.504 C212.479,106.374 215.669,103.073 215.723,96.621 L215.849,47.122 L230.904,47.16" id="Fill-12" fill="#FFFFFF"></path>
            <path d="M141.042,83.705 C141.069,88.159 143.078,90.551 147.089,90.879 L147.059,102.717 C131.66,102.415 123.96,95.725 123.954,82.63 L124.001,64.237 C124.072,51.912 131.805,45.675 147.205,45.525 L147.175,57.474 C143.314,57.671 141.294,59.808 141.093,63.848 L141.042,83.705" id="Fill-13" fill="#000306"></path>
            <path d="M171.956,82.957 C171.962,95.582 164.378,102.176 149.188,102.721 L149.219,90.772 C153.155,90.199 155.099,87.856 155.073,83.74 L155.124,63.883 C155.17,60.199 153.237,58.11 149.304,57.593 L149.334,45.53 C164.598,45.943 172.169,52.314 172.061,64.695 L171.956,82.957" id="Fill-14" fill="#000306"></path>
            <path d="M84.194,101.244 L84.332,46.909 L101.099,46.95 L100.96,101.286 L84.194,101.244" id="Fill-15" fill="#000306"></path>
            <path d="M103.691,51.916 C106.819,47.924 111.462,46.056 117.622,46.335 L117.587,60.256 C114.432,59.196 111.657,58.963 109.242,59.577 C106.825,60.191 104.96,61.445 103.663,63.302 L103.691,51.916" id="Fill-16" fill="#000306"></path>
            <path d="M52.242,91.187 C57.071,91.163 59.359,88.65 59.107,83.614 L59.161,62.365 C59.094,58.889 57.158,57.156 53.338,57.184 C51.512,57.067 49.837,57.588 48.314,58.768 L48.338,49.412 C51.937,47.278 56.235,46.182 61.217,46.081 C71.348,46.294 76.371,52.507 76.302,64.719 L76.256,82.662 C76.298,95.945 70.901,102.545 60.065,102.443 C55.351,102.467 51.399,101.425 48.21,99.331 L48.235,89.637 C49.488,90.674 50.837,91.184 52.242,91.187" id="Fill-17" fill="#000306"></path>
            <path d="M45.493,46.755 L45.309,119.089 L28.559,119.047 L28.744,46.713 L45.493,46.755" id="Fill-18" fill="#000306"></path>
            <path d="M258.251,127.771 L254.268,140.44 L249.926,140.43 L247.35,131.875 L244.77,140.417 L240.378,140.406 L236.491,127.716 L240.782,127.727 L242.943,136.473 L245.69,127.739 L249.311,127.748 L251.878,136.496 L254.048,127.76 L258.251,127.771 L258.251,127.771 Z M281.034,127.828 L277.051,140.498 L272.709,140.487 L270.133,131.933 L267.553,140.474 L263.161,140.463 L259.274,127.773 L263.565,127.784 L265.725,136.53 L268.473,127.797 L272.094,127.806 L274.661,136.553 L276.831,127.818 L281.034,127.828 L281.034,127.828 Z M303.817,127.885 L299.834,140.555 L295.491,140.544 L292.916,131.99 L290.336,140.531 L285.944,140.52 L282.057,127.831 L286.348,127.842 L288.508,136.588 L291.256,127.854 L294.877,127.863 L297.444,136.61 L299.614,127.875 L303.817,127.885 L303.817,127.885 Z M310.622,140.582 L306.374,140.571 L306.384,136.136 L310.634,136.146 L310.622,140.582 L310.622,140.582 Z M327.961,134.113 C327.958,135.156 327.792,136.108 327.469,136.967 C327.145,137.822 326.72,138.529 326.196,139.087 C325.652,139.671 325.033,140.113 324.343,140.413 C323.652,140.711 322.915,140.859 322.129,140.857 C321.4,140.856 320.783,140.777 320.275,140.622 C319.768,140.467 319.249,140.249 318.723,139.97 L318.71,145.253 L314.619,145.243 L314.663,127.913 L318.754,127.923 L318.75,129.245 C319.379,128.75 320.02,128.347 320.676,128.039 C321.332,127.734 322.089,127.581 322.945,127.583 C324.535,127.587 325.77,128.172 326.647,129.33 C327.528,130.492 327.966,132.086 327.961,134.113 L327.961,134.113 Z M323.746,134.179 C323.75,132.946 323.539,132.047 323.117,131.491 C322.692,130.932 322.022,130.652 321.107,130.649 C320.724,130.648 320.324,130.706 319.917,130.821 C319.506,130.938 319.114,131.103 318.745,131.322 L318.729,137.701 C318.999,137.805 319.29,137.875 319.601,137.907 C319.91,137.938 320.22,137.955 320.523,137.956 C321.605,137.958 322.411,137.644 322.945,137.018 C323.473,136.39 323.743,135.443 323.746,134.179 L323.746,134.179 Z M340.162,131.85 L339.798,131.849 C339.624,131.787 339.344,131.74 338.957,131.713 C338.573,131.68 338.251,131.664 337.991,131.664 C337.41,131.662 336.894,131.7 336.448,131.772 C336.002,131.848 335.522,131.973 335.006,132.153 L334.984,140.643 L330.894,140.633 L330.926,127.953 L335.016,127.964 L335.012,129.825 C335.912,129.061 336.697,128.554 337.365,128.301 C338.031,128.053 338.645,127.926 339.207,127.928 C339.35,127.928 339.513,127.933 339.695,127.941 C339.877,127.949 340.037,127.962 340.172,127.976 L340.162,131.85 L340.162,131.85 Z M355.507,134.359 C355.501,136.444 354.889,138.088 353.66,139.284 C352.437,140.483 350.718,141.079 348.508,141.074 C346.294,141.068 344.578,140.463 343.361,139.258 C342.142,138.056 341.534,136.409 341.539,134.324 C341.545,132.227 342.166,130.579 343.397,129.384 C344.629,128.193 346.345,127.595 348.542,127.601 C350.767,127.606 352.487,128.215 353.697,129.421 C354.911,130.63 355.512,132.274 355.507,134.359 L355.507,134.359 Z M350.468,137.429 C350.735,137.106 350.934,136.718 351.067,136.263 C351.2,135.809 351.272,135.176 351.273,134.371 C351.276,133.628 351.208,133.003 351.073,132.498 C350.938,131.993 350.749,131.591 350.506,131.287 C350.267,130.977 349.977,130.76 349.636,130.633 C349.295,130.502 348.926,130.438 348.535,130.437 C348.14,130.436 347.79,130.485 347.484,130.593 C347.174,130.696 346.882,130.907 346.602,131.223 C346.35,131.514 346.151,131.919 346.002,132.427 C345.853,132.939 345.778,133.583 345.776,134.357 C345.775,135.051 345.835,135.653 345.962,136.162 C346.092,136.667 346.278,137.076 346.528,137.384 C346.769,137.682 347.059,137.894 347.396,138.031 C347.732,138.17 348.116,138.237 348.546,138.238 C348.918,138.239 349.271,138.178 349.609,138.055 C349.947,137.932 350.234,137.721 350.468,137.429 L350.468,137.429 Z M370.827,139.277 C370.824,140.467 370.65,141.465 370.307,142.278 C369.968,143.089 369.485,143.724 368.872,144.181 C368.257,144.65 367.517,144.983 366.651,145.189 C365.783,145.392 364.802,145.493 363.713,145.491 C362.829,145.489 361.956,145.435 361.097,145.326 C360.235,145.219 359.492,145.091 358.864,144.939 L358.872,141.763 L359.372,141.764 C359.873,141.962 360.48,142.145 361.201,142.309 C361.918,142.472 362.561,142.554 363.131,142.555 C363.886,142.558 364.503,142.486 364.977,142.348 C365.45,142.211 365.81,142.015 366.064,141.761 C366.297,141.52 366.468,141.212 366.578,140.834 C366.683,140.46 366.738,140.007 366.74,139.482 L366.74,139.244 C366.247,139.643 365.7,139.958 365.103,140.187 C364.5,140.421 363.837,140.534 363.102,140.533 C361.313,140.528 359.939,139.99 358.972,138.919 C358.006,137.849 357.526,136.221 357.531,134.037 C357.534,132.992 357.683,132.09 357.98,131.328 C358.277,130.569 358.698,129.908 359.233,129.347 C359.734,128.819 360.352,128.413 361.082,128.118 C361.816,127.827 362.563,127.682 363.327,127.685 C364.017,127.686 364.641,127.769 365.207,127.932 C365.769,128.095 366.284,128.32 366.745,128.607 L366.893,128.043 L370.855,128.054 L370.827,139.277 L370.827,139.277 Z M366.747,136.727 L366.761,130.98 C366.526,130.879 366.24,130.801 365.898,130.747 C365.557,130.688 365.251,130.66 364.979,130.66 C363.901,130.657 363.094,130.959 362.558,131.571 C362.017,132.186 361.748,133.041 361.745,134.139 C361.742,135.357 361.969,136.21 362.425,136.692 C362.881,137.175 363.559,137.419 364.462,137.422 C364.87,137.423 365.272,137.358 365.664,137.233 C366.06,137.106 366.421,136.937 366.747,136.727 L366.747,136.727 Z M382.414,137.456 L382.421,134.812 C381.871,134.857 381.27,134.916 380.626,134.992 C379.982,135.072 379.493,135.163 379.159,135.266 C378.753,135.392 378.438,135.58 378.224,135.822 C378.007,136.069 377.897,136.389 377.896,136.789 C377.896,137.052 377.918,137.267 377.964,137.433 C378.011,137.599 378.123,137.757 378.304,137.908 C378.478,138.059 378.683,138.171 378.928,138.241 C379.168,138.315 379.548,138.35 380.063,138.352 C380.47,138.353 380.885,138.269 381.308,138.108 C381.727,137.943 382.096,137.724 382.414,137.456 L382.414,137.456 Z M382.409,139.417 C382.192,139.582 381.917,139.782 381.59,140.016 C381.264,140.247 380.957,140.431 380.67,140.565 C380.266,140.745 379.851,140.88 379.421,140.963 C378.986,141.051 378.513,141.092 378.001,141.091 C376.788,141.088 375.774,140.711 374.957,139.965 C374.141,139.216 373.737,138.262 373.739,137.106 C373.742,136.177 373.953,135.423 374.369,134.838 C374.79,134.249 375.38,133.788 376.145,133.451 C376.901,133.118 377.844,132.877 378.965,132.737 C380.085,132.598 381.249,132.493 382.451,132.43 L382.451,132.361 C382.453,131.663 382.167,131.177 381.589,130.91 C381.017,130.643 380.168,130.506 379.048,130.503 C378.373,130.501 377.656,130.618 376.892,130.852 C376.124,131.089 375.576,131.268 375.243,131.395 L374.866,131.394 L374.875,128.334 C375.305,128.223 376.011,128.09 376.984,127.938 C377.954,127.786 378.931,127.712 379.908,127.714 C382.234,127.72 383.911,128.079 384.941,128.794 C385.974,129.51 386.487,130.626 386.483,132.148 L386.461,140.773 L382.406,140.763 L382.409,139.417 L382.409,139.417 Z M402.716,131.826 L402.693,140.813 L398.58,140.803 L398.596,134.467 C398.597,133.85 398.584,133.326 398.557,132.895 C398.527,132.459 398.443,132.109 398.307,131.838 C398.173,131.568 397.968,131.367 397.689,131.242 C397.415,131.119 397.026,131.057 396.527,131.056 C396.127,131.054 395.735,131.133 395.355,131.295 C394.979,131.456 394.637,131.624 394.335,131.805 L394.312,140.792 L390.222,140.782 L390.254,128.102 L394.344,128.112 L394.34,129.512 C395.043,128.967 395.719,128.537 396.364,128.229 C397.007,127.924 397.721,127.771 398.5,127.773 C399.341,127.775 400.082,127.962 400.724,128.337 C401.367,128.712 401.87,129.261 402.232,129.982 C403.052,129.302 403.848,128.765 404.62,128.374 C405.392,127.986 406.152,127.792 406.893,127.794 C408.273,127.797 409.32,128.211 410.03,129.031 C410.745,129.854 411.099,131.037 411.095,132.58 L411.074,140.834 L406.961,140.824 L406.977,134.488 C406.979,133.864 406.969,133.34 406.942,132.908 C406.916,132.48 406.836,132.13 406.701,131.859 C406.574,131.589 406.369,131.388 406.09,131.264 C405.811,131.14 405.415,131.078 404.908,131.077 C404.566,131.075 404.232,131.132 403.907,131.247 C403.581,131.362 403.185,131.557 402.716,131.826 L402.716,131.826 Z M427.409,135.287 L418.051,135.263 C418.11,136.258 418.488,137.018 419.189,137.548 C419.885,138.074 420.915,138.343 422.28,138.346 C423.145,138.348 423.979,138.196 424.79,137.89 C425.601,137.579 426.241,137.253 426.715,136.9 L427.168,136.901 L427.16,140.162 C426.232,140.529 425.364,140.793 424.545,140.957 C423.727,141.12 422.823,141.203 421.831,141.201 C419.273,141.194 417.313,140.615 415.951,139.471 C414.592,138.323 413.915,136.691 413.92,134.575 C413.926,132.483 414.573,130.827 415.867,129.604 C417.162,128.385 418.934,127.777 421.183,127.783 C423.256,127.788 424.814,128.317 425.857,129.36 C426.902,130.407 427.417,131.907 427.412,133.866 L427.409,135.287 L427.409,135.287 Z M423.348,132.895 C423.331,132.043 423.12,131.403 422.718,130.975 C422.319,130.541 421.696,130.328 420.847,130.326 C420.059,130.324 419.411,130.523 418.903,130.931 C418.394,131.333 418.11,131.984 418.045,132.882 L423.348,132.895 L423.348,132.895 Z M441.372,136.89 C441.369,138.201 440.777,139.255 439.593,140.054 C438.411,140.852 436.794,141.25 434.739,141.244 C433.603,141.241 432.577,141.13 431.655,140.921 C430.728,140.707 429.989,140.473 429.428,140.213 L429.436,136.872 L429.812,136.873 C430.017,137.016 430.253,137.175 430.52,137.345 C430.788,137.512 431.17,137.698 431.662,137.896 C432.084,138.07 432.565,138.217 433.103,138.342 C433.638,138.47 434.216,138.534 434.828,138.535 C435.63,138.538 436.224,138.45 436.613,138.274 C436.996,138.097 437.191,137.836 437.191,137.489 C437.193,137.181 437.081,136.957 436.852,136.818 C436.627,136.679 436.194,136.543 435.558,136.414 C435.256,136.344 434.845,136.269 434.33,136.191 C433.81,136.108 433.338,136.011 432.916,135.898 C431.758,135.594 430.898,135.122 430.341,134.485 C429.78,133.847 429.503,133.057 429.506,132.109 C429.509,130.887 430.094,129.875 431.258,129.068 C432.42,128.263 434.01,127.862 436.026,127.867 C436.979,127.869 437.894,127.968 438.765,128.163 C439.642,128.358 440.323,128.563 440.815,128.785 L440.806,131.991 L440.454,131.99 C439.851,131.572 439.16,131.236 438.387,130.971 C437.608,130.711 436.825,130.578 436.031,130.575 C435.371,130.574 434.817,130.666 434.362,130.846 C433.913,131.022 433.687,131.279 433.686,131.611 C433.686,131.912 433.786,132.139 433.991,132.301 C434.196,132.461 434.677,132.619 435.431,132.779 C435.85,132.861 436.296,132.943 436.776,133.025 C437.257,133.104 437.741,133.205 438.226,133.325 C439.299,133.605 440.093,134.047 440.607,134.646 C441.121,135.248 441.374,135.997 441.372,136.89 L441.372,136.89 Z M448.475,140.928 L444.226,140.918 L444.238,136.482 L448.486,136.493 L448.475,140.928 L448.475,140.928 Z M465.059,135.381 L455.701,135.358 C455.76,136.353 456.138,137.113 456.839,137.643 C457.535,138.168 458.565,138.437 459.93,138.44 C460.794,138.443 461.628,138.29 462.44,137.984 C463.25,137.674 463.891,137.348 464.364,136.994 L464.818,136.996 L464.81,140.257 C463.882,140.624 463.013,140.888 462.195,141.052 C461.377,141.215 460.473,141.298 459.48,141.295 C456.922,141.289 454.962,140.709 453.6,139.565 C452.242,138.417 451.565,136.785 451.57,134.669 C451.575,132.577 452.223,130.921 453.517,129.7 C454.811,128.48 456.584,127.872 458.832,127.878 C460.906,127.883 462.464,128.412 463.507,129.454 C464.552,130.501 465.067,132.001 465.062,133.96 L465.059,135.381 L465.059,135.381 Z M460.998,132.99 C460.981,132.138 460.769,131.497 460.368,131.069 C459.969,130.636 459.346,130.423 458.496,130.42 C457.709,130.419 457.061,130.618 456.553,131.025 C456.044,131.428 455.76,132.079 455.695,132.977 L460.998,132.99 L460.998,132.99 Z M480.502,135.42 L471.145,135.397 C471.204,136.391 471.582,137.151 472.283,137.682 C472.979,138.207 474.009,138.476 475.374,138.479 C476.239,138.481 477.073,138.329 477.883,138.023 C478.695,137.712 479.334,137.386 479.808,137.034 L480.263,137.035 L480.254,140.295 C479.327,140.662 478.458,140.926 477.639,141.091 C476.821,141.254 475.917,141.337 474.925,141.334 C472.366,141.328 470.406,140.748 469.044,139.604 C467.687,138.456 467.009,136.824 467.014,134.708 C467.02,132.616 467.667,130.96 468.961,129.738 C470.255,128.519 472.028,127.911 474.277,127.917 C476.35,127.922 477.908,128.45 478.952,129.493 C479.996,130.54 480.511,132.04 480.506,133.999 L480.502,135.42 L480.502,135.42 Z M476.442,133.029 C476.425,132.177 476.214,131.537 475.812,131.108 C475.414,130.675 474.79,130.461 473.941,130.459 C473.154,130.457 472.506,130.656 471.997,131.064 C471.488,131.466 471.204,132.118 471.139,133.015 L476.442,133.029 L476.442,133.029 Z" id="Fill-19" fill="#FFFFFF"></path>
        </g>
    </g>
</svg>