<?xml version="1.0" encoding="UTF-8" standalone="no"?>
<svg width="150px" height="30px" viewBox="0 0 150 30" version="1.1" xmlns="http://www.w3.org/2000/svg" xmlns:xlink="http://www.w3.org/1999/xlink">
    <defs></defs>
    <g id="Page-1" stroke="none" stroke-width="1" fill="none" fill-rule="evenodd">
        <g id="Group-+-Shape" fill="#FFFFFF">
            <g id="Group" transform="translate(42.621145, 4.719101)">
                <path d="M44.7650881,12.9960674 L40.6797357,0.328651685 L37.5799559,0.328651685 L44.0844714,20.5297753 L45.3327093,20.5297753 L51.8378855,0.328651685 L48.9009912,0.328651685 L44.7650881,12.9960674 L44.7650881,12.9960674 Z" id="Shape"></path>
                <path d="M22.3929515,11.6747191 L28.965859,11.6747191 L28.965859,8.87393258 L22.3929515,8.87393258 L22.3929515,3.29966292 L30.2980176,3.29966292 L30.6677313,0.328988764 L19.2839207,0.328988764 L19.2839207,20.5301124 L30.85837,20.5301124 L30.85837,17.5591011 L22.3929515,17.5591011 L22.3929515,11.6747191 L22.3929515,11.6747191 Z" id="Shape"></path>
                <path d="M61.3595815,11.6747191 L67.9321586,11.6747191 L67.9321586,8.87393258 L61.3595815,8.87393258 L61.3595815,3.29966292 L69.2639868,3.29966292 L69.6340308,0.328988764 L58.2505507,0.328988764 L58.2505507,20.5301124 L69.8246696,20.5301124 L69.8246696,17.5591011 L61.3595815,17.5591011 L61.3595815,11.6747191 L61.3595815,11.6747191 Z" id="Shape"></path>
                <path d="M3.17444934,0.328988764 L0.0654185022,0.328988764 L0.0654185022,20.5301124 L11.6669604,20.5301124 L11.6669604,17.5601124 L3.17444934,17.5601124 L3.17444934,0.328988764 L3.17444934,0.328988764 Z" id="Shape"></path>
                <path d="M80.5506608,0.328988764 L77.44163,0.328988764 L77.44163,20.5301124 L88.7256608,20.5301124 L89.0957048,17.5601124 L80.5506608,17.5601124 L80.5506608,0.328988764 L80.5506608,0.328988764 Z" id="Shape"></path>
                <path d="M102.834581,17.5591011 L102.834581,0.328988764 L100.355617,0.328988764 L94.4197137,4.15179775 L95.7921806,6.49752809 L99.8068282,3.9805618 L99.8068282,17.5591011 L95.0378855,17.5591011 L94.667511,20.5301124 L106.780837,20.5301124 L107.150881,17.5591011 L102.834581,17.5591011 L102.834581,17.5591011 Z" id="Shape"></path>
            </g>
            <path d="M8.7188326,8.80853933 L8.75352423,9.22651685 L8.27114537,10.8788764 L7.02819383,8.88101124 L8.7188326,8.80853933 L8.7188326,8.80853933 Z M16.576652,5.52505618 L14.3035242,7.19696629 L10.5330396,3.13078652 L9.5722467,6.42168539 L9.205837,1.99044944 L16.576652,5.52505618 L16.576652,5.52505618 Z M20.0527533,4.28595506 L20.2328194,6.09775281 L18.6323789,5.3305618 L20.0527533,4.28595506 L20.0527533,4.28595506 Z M28.9235683,7.94359551 L27.9687225,9.80764045 L24.4784141,8.13370787 L28.9235683,7.94359551 L28.9235683,7.94359551 Z M29.0388767,11.5014607 L27.8501101,12.3448315 L28.4316079,11.2102247 L29.0388767,11.5014607 L29.0388767,11.5014607 Z M23.9672907,17.6174157 L23.2879956,16.8846067 L24.9452643,15.7082022 L23.9672907,17.6174157 L23.9672907,17.6174157 Z M26.0801762,21.4506742 L22.8878855,22.2273034 L22.8713656,22.0624719 L24.2154185,19.4396629 L26.0801762,21.4506742 L26.0801762,21.4506742 Z M20.9022026,25.9058427 L21.9895374,23.7832584 L22.2624449,26.5297753 L20.9022026,25.9058427 L20.9022026,25.9058427 Z M18.7714758,27.7580899 L17.3279736,25.4376404 L19.4593612,26.4155056 L18.7714758,27.7580899 L18.7714758,27.7580899 Z M6.55638767,20.4957303 L9.80947137,21.9883146 L10.086674,25.3419101 L4.76332599,26.6373034 L6.55638767,20.4957303 L6.55638767,20.4957303 Z M10.3001101,7.67157303 L11.0190529,5.20955056 L13.1874449,7.54786517 L10.3001101,7.67157303 L10.3001101,7.67157303 Z M9.9839207,8.75426966 L12.3221366,8.6541573 L9.90429515,10.4325843 L9.81376652,9.33808989 L9.9839207,8.75426966 L9.9839207,8.75426966 Z M15.767511,7.43730337 L17.6606828,6.04516854 L20.1710352,7.2488764 L15.767511,7.43730337 L15.767511,7.43730337 Z M22.2452643,15.7604494 L21.5002203,8.26146067 L22.2181718,8.23078652 L27.4830396,10.7551685 L25.9932819,13.662809 L22.5598018,16.0998876 L22.2452643,15.7604494 L22.2452643,15.7604494 Z M22.4183921,17.5017978 L23.454185,18.6188764 L22.6794053,20.1306742 L22.4183921,17.5017978 L22.4183921,17.5017978 Z M20.7796256,23.8385393 L19.9453744,25.4669663 L17.9154185,24.535618 L20.7796256,23.8385393 L20.7796256,23.8385393 Z M21.4225771,22.5839326 L16.3509912,23.8179775 L16.3080396,23.7980899 L15.4625551,22.4386517 L21.4348018,18.1998876 L21.7979075,21.8517978 L21.4225771,22.5839326 L21.4225771,22.5839326 Z M13.6285242,23.7404494 L14.682489,24.2238202 L12.0419604,24.8662921 L13.6285242,23.7404494 L13.6285242,23.7404494 Z M12.5147577,23.2294382 L11.0491189,24.2696629 L10.9017621,22.4895506 L12.5147577,23.2294382 L12.5147577,23.2294382 Z M9.70870044,20.7704494 L6.85770925,19.4625843 L8.61872247,13.431573 L9.17544053,14.3265169 L9.70870044,20.7704494 L9.70870044,20.7704494 Z M10.3876652,16.2751685 L14.0401982,22.1464045 L13.5171806,22.5178652 L10.8009912,21.2716854 L10.3876652,16.2751685 L10.3876652,16.2751685 Z M15.5279736,8.51696629 L20.4522026,8.30629213 L21.0664097,14.4893258 L15.5279736,8.51696629 L15.5279736,8.51696629 Z M21.239207,16.2303371 L21.314207,16.9840449 L14.9008811,21.5359551 L10.1973568,13.9752809 L10.0070485,11.6740449 L14.1726872,8.61033708 L21.239207,16.2303371 L21.239207,16.2303371 Z M2.27544053,17.3605618 L7.50066079,13.5175281 L5.89427313,19.0206742 L2.27544053,17.3605618 L2.27544053,17.3605618 Z M5.59262115,20.0538202 L3.24185022,28.105618 L15.8405286,25.0405618 L18.8593612,29.8931461 L20.4161894,26.854382 L23.4875551,28.2633708 L22.9942731,23.2998876 L28.0876652,22.0604494 L24.7285242,18.4382022 L26.8024229,14.3902247 L31.1259912,11.3214607 L28.9172907,10.2623596 L30.6921806,6.79853933 L22.4312775,7.15213483 L21.3379956,6.62797753 L20.9117841,2.33696629 L17.548348,4.81044944 L8.00947137,0.236629213 L8.63061674,7.74303371 L5.17202643,7.89101124 L7.74218062,12.0225843 L0.191629956,17.5759551 L5.59262115,20.0538202 L5.59262115,20.0538202 Z" id="Shape"></path>
        </g>
    </g>
</svg>