<?xml version="1.0" encoding="UTF-8" standalone="no"?>
<svg viewBox="0 0 509 152" version="1.1" xmlns="http://www.w3.org/2000/svg" xmlns:xlink="http://www.w3.org/1999/xlink">
    <defs></defs>
    <g id="Page-2" stroke="none" stroke-width="1" fill="none" fill-rule="evenodd">
        <g id="mangudeoo-logo" transform="translate(1.000000, 1.000000)" stroke="#FF0B4A" stroke-width="2">
            <path d="M47.1246746,135.291347 C46.7909313,135.020384 46.4091179,134.781057 46.1124571,134.460579 C42.5813702,130.636844 39.0763785,126.788352 35.5315572,122.975621 C34.8420957,122.234257 34.5962518,121.486015 34.8503363,120.492945 C35.4161892,118.282606 35.9161175,116.054387 36.4476346,113.834421 C38.2124914,106.464792 39.9869621,99.0965383 41.7463252,91.725534 C44.1196111,81.7796985 46.4777894,71.8297368 48.8510753,61.8852768 C51.3932931,51.2324631 53.9478717,40.5837758 56.4928364,29.9309622 C57.4047935,26.1141051 58.30851,22.2944972 59.2081062,18.4748892 C59.3083666,18.0485016 59.3523163,17.609735 59.4470829,17.0169186 C58.9196861,16.8793742 58.5021635,16.6771839 58.084641,16.6758085 C51.7874673,16.6634295 45.4902936,16.6758085 39.1944934,16.6978156 C38.7536226,16.699191 38.3141252,16.83536 37.9515398,16.8958795 C37.2140082,17.7032652 37.149457,18.6371916 36.9406958,19.5147249 C34.5715301,29.4605603 32.2023644,39.4077712 29.8331988,49.3549821 C27.8018967,57.8799839 25.7829555,66.4063611 23.7351723,74.9258612 C20.8976673,86.7312969 18.034067,98.5312308 15.1924416,110.335291 C14.5524235,112.998151 13.9687161,115.672014 13.3369386,118.336249 C13.152899,119.110624 12.8946943,119.868493 12.6873065,120.572721 C12.4387157,120.597479 12.3480694,120.622237 12.2615434,120.609858 C12.1736439,120.597479 12.0761304,120.563093 12.0102058,120.508075 C11.8028179,120.330642 11.588563,120.157337 11.4113906,119.95102 C7.78279016,115.729782 4.15831004,111.505794 0.664305715,107.43448 C0.569539088,107.140135 0.531083066,107.054857 0.515975342,106.965453 C0.49949419,106.877425 0.487133326,106.779768 0.506361337,106.693115 C0.781047212,105.446963 1.03375822,104.195309 1.34415326,102.95741 C9.8044782,69.2246459 18.2702969,35.4946331 26.7429827,1.76599573 C26.8075339,1.51153859 26.9654782,1.27908856 27.0794729,1.03288408 C28.0340063,0.488208266 29.0613315,0.715156523 30.04196,0.713781079 C40.9936859,0.694524863 51.9454117,0.701402083 62.8971375,0.701402083 C79.8727246,0.701402083 96.8483117,0.701402083 113.823899,0.705528415 C114.907535,0.705528415 115.99117,0.74541629 116.915488,0.763297062 C117.633792,1.48402971 117.337131,2.10985672 117.190174,2.7095503 C116.165596,6.87577012 115.135524,11.0419899 114.098585,15.2054589 C111.582462,25.3039686 109.059472,35.3997274 106.544723,45.4982372 C104.44887,53.911828 102.35851,62.3267943 100.269524,70.743136 C97.3647211,82.4357853 94.4654117,94.1284346 91.5606086,105.821084 C89.754549,113.086179 87.9457425,120.351274 86.127322,127.613618 C85.9968462,128.134912 85.7867115,128.636949 85.6040454,129.174747 C84.7676269,129.394818 83.9902659,129.599759 83.2431203,129.795073 C82.7418186,130.757883 82.2652386,131.639543 82.5728868,132.803169 C83.1895565,133.060377 83.8378152,133.329964 84.6247902,133.658695 C83.258228,139.117832 81.9095204,144.498569 80.5910282,149.765144 C79.8562434,150.114507 79.5595827,149.696372 79.2807765,149.375893 C75.8732983,145.440748 72.4974089,141.478094 69.0638354,137.567706 C68.381241,136.789205 68.2136826,135.998325 68.3894816,135.047893 C68.5048497,134.423442 68.6064834,133.796239 68.7383327,133.028741 C68.0845803,132.7454 67.4569231,132.474437 66.8443736,132.208977 C66.8896967,130.393391 66.8896967,130.39064 68.2535121,130.125179 C68.6037366,130.057782 68.9567079,130.006891 69.4689971,129.921613 C69.7848858,128.88728 70.1529649,127.870826 70.4043025,126.825489 C73.1058381,115.548224 75.7895191,104.268208 78.4773204,92.989567 C80.6569528,83.8428645 82.8214775,74.6920357 85.0162176,65.5480841 C87.5941445,54.8086175 90.2036604,44.0760281 92.7857076,33.3365615 C93.91604,28.6339185 95.0216506,23.9230228 96.1094067,19.2093763 C96.267351,18.5271561 96.2728448,17.8077989 96.3634911,16.9797816 C95.7729165,16.8573671 95.3471534,16.699191 94.9200168,16.6923138 C88.8151233,16.5987836 82.7116031,16.5767765 76.5229304,16.7101946 C76.2647256,17.2975092 75.9763055,17.7582829 75.8540703,18.26032 C72.2721664,32.9830724 68.7012501,47.7099511 65.1426946,62.4395807 C62.527685,73.2657003 59.9332769,84.0973217 57.3306283,94.9261921 C54.3008431,107.529385 51.2806719,120.135329 48.2247915,132.733021 C48.0174037,133.58167 48.0325114,134.573365 47.1246746,135.291347 L47.1246746,135.291347 Z M351.2349,51.5336854 C351.317306,51.1953261 351.244514,50.817079 351.244514,50.3439263 C350.452046,50.1513642 349.692539,49.9684301 348.824532,49.7579872 C349.295618,47.9465275 350.98631,49.0702652 352.108401,47.870878 C355.062648,35.7752236 358.148744,23.2105429 361.144193,10.7256378 C359.416419,8.69685796 350.600376,1.14567049 348.856121,0.169105262 C348.043051,0.690398531 348.162539,1.61882322 347.979873,2.37531741 C345.84831,11.2469311 343.760698,20.1309238 341.644243,29.0066638 C341.501406,29.6091083 341.232214,30.1799175 340.972636,30.9089028 C339.828569,30.9694224 338.751801,31.0739561 337.673659,31.0753316 C330.375255,31.089086 323.076851,31.0725807 315.777074,31.089086 C314.70992,31.0918369 313.591948,30.8910221 312.533034,31.5361053 C312.390197,31.9624929 312.215772,32.3820033 312.111391,32.8166436 C311.538671,35.2126671 310.983806,37.6128168 310.419326,40.0088402 C309.832872,42.4956429 309.261525,44.9879474 308.635242,47.4651221 C308.508886,47.9657837 308.168276,48.412803 308.018572,48.7057725 C307.165672,49.1789253 306.230367,48.6507548 305.573867,49.4567649 C306.400672,49.6782114 307.062665,49.8542683 307.954021,50.0935955 C305.840313,59.2375471 303.644199,68.1724312 301.515384,77.1224452 C299.364593,86.164614 297.130024,95.186151 295.041038,104.349359 C306.914335,114.501511 318.690118,124.569761 330.905399,135.014882 C337.769799,106.851291 344.507843,79.1938639 351.2349,51.5336854 L351.2349,51.5336854 Z M320.128099,50.0151952 C319.825944,49.9230405 319.376833,49.689215 319.341123,49.4636422 C319.253224,48.9162155 319.721563,48.7057725 320.202264,48.6466284 C320.825801,48.5696036 321.452084,48.5255894 322.207471,48.4540663 C322.656582,46.9286989 323.087839,45.4624756 323.502614,44.0553964 C325.649285,43.5519839 334.965256,43.5148469 337.599494,44.0058804 C337.811002,45.6302798 337.280858,47.1308892 336.639466,48.7415341 C335.963739,48.8639486 335.268784,48.989114 334.443353,49.1376619 C334.768856,49.9477984 335.612141,49.5544215 336.047518,50.0014408 C336.495256,50.7551841 336.173874,51.5570679 335.985714,52.3328183 C332.837814,65.3596483 329.669312,78.379601 326.521412,91.406431 C325.472112,95.7459567 324.49423,100.104739 323.429823,104.440138 C323.20046,105.376816 323.215568,106.453788 322.273395,107.290058 C321.806429,107.019096 321.310621,106.81553 320.91782,106.488174 C318.04598,104.096277 315.235943,101.627355 312.321526,99.2918513 C310.983806,98.2203805 310.769551,97.1117726 311.174712,95.4846224 C312.765144,89.1163167 314.201751,82.7108741 315.712523,76.3219368 C317.326303,69.491482 318.957937,62.6651535 320.58545,55.8374496 C320.880738,54.5967991 321.207614,53.3644013 321.48642,52.1182491 C321.604535,51.5969558 321.637497,51.0550309 321.750119,50.2242627 C321.004346,50.1376097 320.546994,50.141736 320.128099,50.0151952 L320.128099,50.0151952 Z M226.405278,99.104791 C225.648518,102.115638 224.76403,105.098976 224.122638,108.133205 C223.783401,109.74385 223.000547,110.676401 221.529604,111.328362 C217.527431,113.105435 213.576074,114.995295 209.602743,116.83839 C198.347489,122.056825 187.096356,127.289014 175.827368,132.474437 C174.658579,133.010861 173.889459,133.673825 173.639495,134.997002 C172.945913,138.674939 172.161685,142.336371 171.440634,146.008806 C171.362349,146.407685 171.468103,146.843701 171.498318,147.506665 C172.792089,146.963364 173.881218,146.530099 174.95112,146.05282 C188.528843,139.988488 202.105192,133.921404 215.678795,127.848819 C221.841372,125.091054 227.981975,122.285148 234.170648,119.586527 C235.498754,119.007465 236.087955,118.205582 236.39835,116.799878 C237.637183,111.185315 239.01336,105.601013 240.35108,100.008458 C243.238028,87.9348104 246.142832,75.8625385 249.024286,63.7875158 C251.419547,53.7550274 253.798327,43.7170372 256.175733,33.679047 C256.292475,33.1852626 256.317196,32.6708466 256.402349,32.0491459 C255.603013,31.9927527 254.973982,31.9116015 254.346325,31.9116015 C241.109213,31.9060997 227.873474,31.9060997 214.637735,31.9184787 C214.025186,31.9198542 213.41401,32.0422687 212.760257,32.1110409 C212.497932,33.0215848 212.245221,33.7945843 212.052941,34.5827137 C209.595876,44.6963533 207.153918,54.8127438 204.696853,64.925008 C203.467634,69.9811401 202.239788,75.0372721 200.963872,80.0810252 C200.628755,81.4069532 200.720775,82.5100593 201.586036,83.658555 C203.339905,85.9940589 204.953685,88.435472 206.625148,90.8328708 C207.668954,92.3321048 208.731989,93.8175843 209.744206,95.3388253 C210.299072,96.1737198 211.005014,96.6069847 212.018605,96.561595 C212.655877,96.5327107 213.295895,96.5670968 213.935913,96.5670968 C217.221156,96.5698477 220.507772,96.5547178 223.794389,96.5808512 C224.685744,96.5877285 225.62517,96.403419 226.690951,97.1612886 C226.590691,97.8655159 226.556355,98.4995956 226.405278,99.104791 L226.405278,99.104791 Z M238.646654,47.9025132 C237.58774,53.385033 230.540674,81.4578447 229.807263,83.1716479 C227.895449,83.6117899 221.503509,83.6943166 218.352862,83.3105677 C217.141497,81.9997696 216.340788,80.3533631 215.432951,78.7798552 C215.096461,78.1952915 215.063498,77.6038506 215.231057,76.9381357 C215.875195,74.3715573 216.461649,71.7912243 217.08656,69.2205195 C218.784118,62.2167588 220.484424,55.2143735 222.199837,48.2161145 C222.349541,47.6081682 222.626974,47.0304818 222.863204,46.3853985 C223.440044,46.2767385 223.966067,46.092429 224.490717,46.0938044 C228.958483,46.1006816 233.426249,46.1378186 237.894015,46.1900855 C238.127498,46.1928364 238.358234,46.4170337 238.718072,46.6054696 C238.697471,47.0277309 238.72906,47.4761256 238.646654,47.9025132 L238.646654,47.9025132 Z M444.593762,107.276304 C446.79949,109.047876 449.028566,110.790563 451.216439,112.586893 C451.605119,112.905996 452.140757,113.479556 452.070712,113.830294 C451.941609,114.490507 452.107794,114.860502 452.563773,115.22637 C453.346628,115.854948 454.099267,116.524789 454.916457,117.105226 C455.343594,117.409199 455.879231,117.737931 456.368172,117.742057 C458.019034,117.754436 459.053227,118.666355 459.983038,119.867118 C460.360731,120.3554 460.804349,120.931712 461.34136,121.1284 C462.676333,121.616683 463.677563,122.542356 464.744718,123.384128 C468.899342,126.665937 473.030617,129.978007 477.179747,133.265318 C477.803284,133.759102 478.480385,134.18549 479.22341,134.708158 C479.434919,134.20062 479.613464,133.885643 479.698617,133.548659 C480.50482,130.363131 481.301409,127.176227 482.081517,123.983822 C482.210619,123.455651 482.301266,122.901347 482.301266,122.358047 C482.298519,120.223358 482.282038,120.223358 483.121203,118.91256 C483.015449,118.786019 482.928923,118.579702 482.79982,118.549443 C481.93868,118.339 481.547253,117.838338 481.761508,116.953928 C481.994991,115.985615 482.257316,115.025555 482.508653,114.058618 C483.269533,113.74089 483.923286,113.467177 484.699273,113.141197 C489.688942,92.4902808 494.682731,71.824235 499.66416,51.1554383 C499.72047,50.916111 499.609223,50.6368959 499.574887,50.352179 C498.787912,50.1334834 498.033899,49.9230405 497.242804,49.7029694 C497.730371,47.9162677 499.463639,49.1074022 500.235506,48.2037355 C500.317912,48.0551875 500.445641,47.9052641 500.488217,47.7360845 C501.681728,42.9564167 502.876611,38.1767488 504.037159,33.3888283 C504.133299,32.9954514 503.997329,32.5456812 503.962994,32.0298897 C503.279026,31.9831246 502.742015,31.9157278 502.205004,31.9157278 C488.700073,31.9088506 475.196515,31.9060997 461.691584,31.9143524 C461.081782,31.9143524 460.470606,32.0243879 459.756422,32.0917847 C459.263361,34.0696731 458.795022,35.9182698 458.343164,37.7709929 C457.542454,41.0500513 456.758226,44.3346116 455.943783,47.6095437 C455.838028,48.0345559 455.588064,48.4238065 455.432867,48.7676675 C454.623917,48.9189663 453.955057,49.0441318 452.754679,49.2683291 C453.894626,49.6369481 454.52091,49.8391384 455.202131,50.0592094 C453.262848,59.3902214 450.866214,68.4461446 448.70581,77.558461 C446.537165,86.6969108 444.217443,95.8009745 442.107855,105.184253 C443.066509,105.99439 443.816401,106.653228 444.593762,107.276304 L444.593762,107.276304 Z M470.035168,50.4800953 C469.572322,49.6713342 468.432376,50.4347056 467.804719,49.50353 C467.928327,49.3054661 468.043695,48.865324 468.264817,48.8034291 C468.954279,48.6108669 469.68357,48.5627264 470.5969,48.4306837 C471.024037,47.3482093 471.482762,46.1859592 471.92226,45.0704741 C474.232368,44.6592163 484.048268,44.6537146 486.554776,45.073225 C487.002514,46.3413843 486.297945,47.4568694 486.021886,48.7222779 C485.147011,48.8666995 484.358663,48.9973667 483.575808,49.1280338 C483.564821,49.2394448 483.533232,49.4031226 483.551086,49.4086244 C484.130674,49.5984357 484.715754,49.7744925 485.4629,50.0014408 C485.436805,50.4649654 485.483501,50.9958868 485.36676,51.4882957 C483.832639,57.9693878 482.284784,64.4477289 480.720448,70.9233192 C479.308563,76.7758333 477.874703,82.6228457 476.449083,88.472609 C475.261067,93.345807 474.066183,98.219005 472.882287,103.094954 C472.581506,104.335604 472.331542,105.590009 472.012906,106.826533 C471.907152,107.23504 471.661308,107.607786 471.430572,108.10157 C470.956739,107.903506 470.602394,107.822355 470.327708,107.629793 C466.898255,105.213138 463.500391,102.751093 460.047589,100.367449 C458.887042,99.5669401 458.672787,98.7017859 459.016144,97.3455981 C460.540651,91.3335324 461.945669,85.291207 463.405624,79.2626361 C465.401217,71.0168494 467.413291,62.7738136 469.407511,54.5294024 C469.693184,53.3506469 469.668462,53.3451451 468.873247,51.7908934 C469.079261,51.1953261 470.241182,51.504801 470.035168,50.4800953 L470.035168,50.4800953 Z M449.316986,51.0013885 C449.355442,50.8404616 449.257928,50.6478994 449.194751,50.3260455 C448.492928,50.1609923 447.733422,49.9808091 446.796743,49.7579872 C447.354355,48.0290541 448.973628,49.001493 449.966618,48.1308369 C451.383997,43.4488256 452.348144,38.4270796 453.646035,33.4919866 C453.754536,33.0821043 453.659769,32.6172043 453.659769,32.2485853 C453.441394,32.1344234 453.364482,32.0780302 453.277956,32.0532722 C453.104904,32.0037562 452.927732,31.9432367 452.751933,31.9377349 C452.021268,31.9157278 451.291977,31.9033488 450.562686,31.9047243 C437.057755,31.9239805 423.552824,31.947363 410.049267,31.9707456 C409.959994,31.9707456 409.865227,31.996879 409.782821,32.034016 C409.704536,32.0697776 409.638611,32.133048 409.34195,32.3476172 C407.788602,37.6251958 406.880765,43.3071549 405.243637,48.4994559 C404.414086,49.2298167 403.42659,48.6480039 402.787945,49.4388842 C403.540585,49.6617061 404.120172,49.8322612 404.795899,50.0317005 C404.485504,52.5061243 404.006177,54.7838595 403.110701,56.9996997 C401.954274,57.1372441 400.89948,57.2624095 399.80623,57.3917013 C399.611203,58.2183431 399.429911,58.921195 399.292568,59.633675 C399.263726,59.7822229 399.398322,59.9610306 399.477981,60.1797262 C400.017738,60.4025482 400.591832,60.6391245 401.072532,60.8385639 C401.833412,62.1136005 401.829292,63.2937314 401.474947,64.6045295 C400.714067,67.4228142 400.108385,70.2837377 399.418923,73.1212787 C397.045637,82.8773028 394.65587,92.6305761 392.297692,102.392102 C392.066956,103.34666 391.682395,104.313597 392.038114,105.528114 C394.421014,107.431729 396.945377,109.380733 399.384587,111.43152 C400.405045,112.291172 402.105351,112.736816 401.749633,114.66794 C401.719417,114.837119 402.04904,115.109457 402.255055,115.280012 C403.099714,115.975987 403.949867,116.669211 404.826115,117.323922 C405.104921,117.531614 405.485361,117.761313 405.801249,117.736555 C407.338117,117.619642 408.344841,118.552193 409.416116,119.41047 C415.043056,123.920551 420.678236,128.419629 426.316164,132.914579 C427.085284,133.528028 427.894234,134.09196 428.707305,134.694404 C429.692053,132.555589 432.484235,121.279699 432.684756,118.779142 C431.175357,117.847966 431.160249,117.84384 431.467898,116.502782 C431.650564,115.7064 431.88954,114.922397 432.120277,114.073748 C432.78639,113.791782 433.447009,113.513942 434.321884,113.143948 C439.345889,92.3376066 444.336931,71.6701853 449.316986,51.0013885 L449.316986,51.0013885 Z M435.644496,48.7511622 C434.694083,48.8914575 433.920842,49.0083702 432.835833,49.1706726 C433.598087,49.9189141 434.492189,49.5021546 435.128087,50.2050065 C435.106112,50.4773444 435.12946,50.9188619 435.0292,51.3328705 C433.484092,57.8112117 431.927996,64.286802 430.365034,70.7610168 C427.623669,82.1111805 424.885051,93.4613443 422.11347,104.803255 C421.860759,105.838965 421.822303,106.970955 421.042195,108.054805 C420.553254,107.842987 420.038218,107.712319 419.631683,107.427602 C416.273648,105.068716 412.95407,102.650686 409.575433,100.320683 C408.512399,99.5875718 408.218485,98.8076951 408.538494,97.5491638 C409.844626,92.4215086 411.068351,87.2732218 412.315425,82.1304368 C413.86328,75.7497521 415.404268,69.3663166 416.953496,62.9622494 C416.692544,62.3818121 416.432966,61.8110028 416.199483,61.291085 C415.526503,61.0847684 414.940049,60.9059607 414.326126,60.7175248 C414.170928,59.2733087 414.7203,58.1248129 415.155677,56.8291447 C416.225578,56.6489615 417.281746,56.4701538 418.490363,56.2652127 C418.953209,54.3327139 419.807482,52.5130015 419.736064,50.3563053 C418.938101,50.1458624 418.185462,49.9477984 417.39574,49.7401064 C417.931378,48.7140252 417.931378,48.7140252 420.267581,48.3646624 C420.682357,47.2849389 421.130095,46.1226887 421.555858,45.0168318 C424.407097,44.6138267 434.082907,44.6784725 436.460313,45.1777587 C436.165026,46.4789287 435.906821,47.6054173 435.644496,48.7511622 L435.644496,48.7511622 Z M99.5402332,105.350682 C105.936294,110.932234 112.336475,116.511035 118.736656,122.08846 C122.933856,125.748516 127.128309,129.409948 131.33787,133.05625 C131.782861,133.441375 132.177035,134.067202 133.124702,133.684828 C133.437844,132.363026 133.76884,130.951821 134.109451,129.543366 C137.070564,117.301915 140.045412,105.061839 142.995539,92.8176365 C145.816563,81.1043555 148.610118,69.3841974 151.420154,57.6667901 C153.315487,49.7676153 155.22318,41.8711914 157.107525,33.9692657 C157.246242,33.3888283 157.233881,32.771254 157.310793,31.9776228 C153.662965,31.8469556 150.206043,31.9281068 146.751868,31.9143524 C143.283959,31.9019734 139.81605,31.9116015 136.34814,31.9116015 C132.789585,31.9116015 129.229656,31.8827172 125.671101,31.9184787 C122.225166,31.9542403 118.770991,31.7534254 115.396475,32.0491459 C114.665811,33.9376305 112.64687,41.8519352 112.256816,44.3689977 C112.189518,44.8022625 112.247202,45.2547836 112.247202,45.6632904 C113.278647,46.2519805 114.304599,46.0415375 115.289348,46.0442884 C122.407832,46.0607938 129.526317,46.0415375 136.643428,46.0635446 C137.619936,46.0662955 138.654128,45.8187156 139.570206,46.4514198 C139.950646,47.3853463 139.582567,48.2670059 139.375179,49.1321602 C138.677477,52.0632313 137.938572,54.9832989 137.185932,57.8992401 C136.985412,58.676366 136.687378,59.4287338 136.38385,60.3406532 C135.319442,60.3805411 134.33332,60.4465624 133.34445,60.4479378 C126.0433,60.4561905 118.743523,60.4438115 111.442372,60.4630677 C110.458997,60.4658186 109.438539,60.2608774 108.448296,60.7464092 C108.276617,61.1521651 108.039014,61.5565457 107.931887,61.9925614 C104.606814,75.6493447 101.294103,89.3088789 97.9896315,102.969789 C97.9278272,103.221495 98.0047392,103.508963 98.0267141,103.961484 C98.5994341,104.488279 99.059533,104.931172 99.5402332,105.350682 L99.5402332,105.350682 Z M123.929592,106.774267 C120.50838,103.768921 117.103648,100.745696 113.628872,97.667452 C114.013432,95.9619015 114.349922,94.3705128 114.731736,92.7915031 C116.31942,86.2333862 117.915345,79.6752692 119.522257,73.1212787 C119.99609,71.1874044 120.024932,71.1420148 121.824125,71.124134 C125.289287,71.0897479 128.754449,71.0966251 132.219612,71.1186322 C132.742888,71.1227586 133.266165,71.2974399 133.775707,71.3909701 C133.627377,73.6838353 126.194377,104.277836 125.024215,107.32582 C124.555876,107.094745 124.186423,106.999839 123.929592,106.774267 L123.929592,106.774267 Z M353.896607,63.9965833 C352.775888,68.6125733 351.66341,73.2285633 350.546812,77.8445533 C349.410986,82.5471963 348.27104,87.2498393 347.137961,91.9538577 C346.026856,96.5629705 344.922619,101.172083 343.782673,105.914614 C355.37579,115.512462 366.974401,124.963138 378.534556,134.460579 C378.799628,134.677899 379.145732,134.796187 379.561881,135.019009 C379.736307,134.573365 379.899745,134.26389 379.980777,133.933783 C383.371774,120.007413 386.758651,106.079667 390.13042,92.1491707 C390.192225,91.8988399 390.098831,91.6113721 390.072736,91.282641 C388.681452,90.6348069 387.209136,90.9662889 385.778023,90.9319028 C384.227421,90.8933904 382.674072,90.8755096 381.124844,90.9250256 C379.703344,90.9704152 378.213174,90.5564066 376.845238,91.4298135 C376.371405,93.4035756 375.907186,95.3567061 375.436099,97.3070857 C374.941665,99.3482445 374.498047,101.405909 373.921207,103.423685 C373.382823,105.308043 373.352607,107.368458 372.130255,109.181294 C371.569896,108.837433 371.090569,108.592604 370.667553,108.274876 C368.845012,106.900807 367.037579,105.508858 365.227399,104.118284 C363.778431,103.00555 362.352811,101.861181 360.880495,100.781457 C359.811967,99.9974541 359.276329,99.1543069 359.831195,97.7596067 C360.232236,96.7527817 360.362712,95.6386721 360.620917,94.572703 C362.032802,88.7146871 363.444688,82.8566712 364.860693,76.9986553 C365.052973,76.2063995 365.132632,75.3563751 366.165451,74.671404 C367.81082,74.6562742 369.72126,74.6232635 371.6317,74.6232635 C378.294206,74.6232635 384.956712,74.6425197 391.620591,74.6315162 C392.514694,74.6301407 393.454119,74.7993203 394.474577,74.1143492 C394.960771,72.1612188 395.527998,70.0540386 396.004578,67.9289776 C396.493519,65.7475235 397.350539,63.6197116 397.258519,61.3667344 C396.533348,61.093021 395.959255,60.8770763 395.419497,60.6721352 C395.419497,60.2663792 395.378294,59.9926659 395.426364,59.7327069 C395.933159,56.9598119 395.93728,56.9611873 398.833842,56.1180402 C399.199174,54.6270589 399.601589,53.0452983 399.964175,51.4552851 C400.041087,51.1210522 399.975162,50.7538086 399.975162,50.3810633 C399.12913,50.141736 398.375117,49.9285422 397.584022,49.7057203 C398.056481,48.0180505 399.545279,48.9616051 400.528654,48.2656305 C400.668744,47.9245203 400.936563,47.4458658 401.062918,46.9328252 C402.178143,42.4117409 403.27826,37.8879056 404.349535,33.3558177 C404.442928,32.9651916 404.302838,32.5209232 404.268502,32.0546477 C403.746599,31.9982545 403.389507,31.9267314 403.032416,31.9267314 C389.796677,31.9198542 376.560938,31.9171033 363.325199,31.9267314 C362.804669,31.9267314 362.282766,32.058774 361.729274,32.133048 C361.563089,32.6873519 361.416132,33.1096132 361.310378,33.5442535 C360.244597,37.889281 359.178816,42.235684 358.133636,46.5862134 C357.941356,47.3867218 357.824615,48.20236 357.198331,48.7993027 C355.259048,49.0565107 355.068142,49.1101531 355.014578,49.5186599 C355.596912,49.6452008 356.18886,49.7717416 357.243654,49.9986899 C356.166885,54.8251228 355.011831,59.4067267 353.896607,63.9965833 L353.896607,63.9965833 Z M381.822546,57.3174273 C381.562968,58.1289393 381.296523,58.9665846 380.995742,59.9128901 C381.753875,60.2897618 382.378785,60.6019875 383.16576,60.9939891 C383.051765,61.5524193 383.024297,62.1920008 382.772959,62.7270485 C382.610894,63.0722849 382.142555,63.304735 381.766235,63.5014235 C381.54374,63.6169607 381.231971,63.5825746 380.961406,63.5825746 C377.321818,63.5839501 373.68223,63.5839501 370.044016,63.5674448 C369.695165,63.5660693 369.347687,63.4532829 368.847759,63.3652545 C368.825784,62.787568 368.699428,62.2538958 368.803809,61.7711149 C369.302364,59.460369 369.872337,57.1633776 370.399734,54.8581335 C370.642831,53.7949153 370.8667,52.7248198 371.061727,51.6505981 C371.126278,51.3053617 371.071341,50.9394936 371.071341,50.4292038 C370.461538,50.2572733 369.86547,50.1321079 369.307858,49.9079106 C369.127938,49.8363875 368.939778,49.4925265 368.959006,49.2930871 C368.978235,49.0908968 369.221332,48.7869237 369.413612,48.7456604 C370.115434,48.5943616 370.833738,48.5352175 371.678397,48.4238065 C372.080811,47.2340475 372.481853,46.0497902 372.902122,44.8063888 C375.258927,44.0498946 377.63084,44.5120438 379.960176,44.4776577 C382.2126,44.4418962 384.491119,44.2053198 386.784746,44.716985 C387.335492,46.1873346 386.512807,47.368841 386.238121,48.7098989 C385.386595,48.8680749 384.620222,49.0111211 383.862089,49.1527918 C383.863462,49.8295103 384.348283,49.6204428 384.644943,49.701594 C384.98006,49.7964996 385.323417,49.8625209 385.642053,49.9367949 C385.59673,52.3328183 385.217663,53.9572177 383.989818,56.9914471 C383.231685,57.1069844 382.609521,57.1991391 381.822546,57.3174273 L381.822546,57.3174273 Z M282.44257,134.130472 C290.595247,100.423842 298.736936,66.7144606 306.864891,33.0023286 C306.923949,32.7602504 306.798966,32.4741581 306.761884,32.2210764 C304.617961,31.826324 294.418874,31.8056923 291.893137,32.2100728 C291.060839,34.6459841 290.647437,37.263454 290.006045,39.819029 C289.381135,42.297579 288.789187,44.7816308 288.190372,47.2656827 C287.570955,49.8363875 286.951539,52.4098432 286.345856,54.9846743 C285.740174,57.5622563 285.16608,60.1467156 284.550784,62.7201713 C283.957463,65.2055985 283.316071,67.6800223 282.714509,70.1626987 C282.092345,72.7361544 281.488036,75.3137364 280.883728,77.8913184 C280.282166,80.467525 279.708072,83.0506088 279.088655,85.6213136 C278.469239,88.1947693 277.792138,90.7530951 277.168601,93.3265508 C276.567039,95.8092272 276.021788,98.305658 275.420226,100.786959 C274.804929,103.323278 274.461572,105.937997 273.384803,108.494947 C272.917837,108.283129 272.544264,108.203353 272.291553,107.986033 C268.496768,104.716602 264.729451,101.415537 261.037673,97.9838041 C261.181883,97.249317 261.28077,96.6248655 261.427727,96.0114174 C263.272243,88.2896749 265.124999,80.5693078 266.975008,72.8489408 C269.525467,62.198878 272.075925,51.5501907 274.626383,40.9001279 C275.135926,38.7695652 275.67019,36.6445042 276.134409,34.5043134 C276.300594,33.740942 276.659059,32.9198019 275.909166,32.0078826 C273.855889,31.8442047 271.674884,31.9198542 269.500745,31.9281068 C267.242827,31.934984 264.975295,31.8029414 262.596515,32.0408932 C260.962134,38.1547417 259.638149,44.2039444 258.207035,50.228389 C256.793776,56.1758088 255.377771,62.124604 253.963138,68.0733993 C252.526531,74.1088475 251.061082,80.1374184 249.660184,86.1824947 C248.262033,92.2124412 246.656494,98.1969979 245.495946,104.13479 C247.590426,106.354756 280.161304,133.328588 282.078611,134.470207 C282.203593,134.358796 282.410981,134.265265 282.44257,134.130472 L282.44257,134.130472 Z M185.412531,121.026617 C187.408124,112.679048 189.39273,104.328727 191.393816,95.9839086 C193.371555,87.7284938 195.368521,79.4772053 197.349006,71.2204151 C199.307516,63.0557796 201.253666,54.8870178 203.206682,46.7210069 C204.183191,42.6386891 205.192661,38.5632486 206.112859,34.4685519 C206.277671,33.7326893 206.766611,32.9266792 206.218613,32.1385498 C203.681889,31.8373275 165.51978,31.8469556 163.223406,32.1536796 C163.077823,32.4507755 162.852581,32.758875 162.768801,33.102736 C157.03336,56.7865059 151.307533,80.4730268 145.594067,104.162298 C145.511661,104.502033 145.584453,104.88028 145.584453,105.449714 C149.038628,108.398666 152.571088,111.41639 156.113163,114.423111 C156.36862,114.639055 156.703737,114.76147 157.170703,115.018678 C157.476978,114.0036 157.775012,113.160453 157.983773,112.296674 C158.648513,109.545786 159.273424,106.786646 159.923056,104.031631 C162.439178,93.370565 164.958048,82.7108741 167.478291,72.0498078 C169.326927,64.2317842 171.171442,56.4137606 173.039306,48.6012388 C173.330473,47.3798445 173.456829,46.0841763 174.243804,45.0828531 C177.3299,44.6537146 186.807936,44.7389921 188.773313,45.2135203 C189.069974,46.2189698 188.692281,47.1721525 188.457424,48.1404651 C187.3422,52.7537042 186.218734,57.3655678 185.119991,61.9815579 C182.814003,71.6605572 180.531363,81.3436828 178.222629,91.0213067 C175.636461,101.854303 173.025572,112.681799 170.443525,123.514795 C170.280087,124.201142 170.273219,124.926001 170.196307,125.623351 C170.936586,126.235424 171.550509,126.775973 172.198767,127.271133 C172.90883,127.814433 173.650482,128.315095 174.352305,128.814381 C175.111811,128.506282 175.710626,128.290337 176.286093,128.024876 C179.015097,126.759468 181.735861,125.478929 184.62281,124.128243 C184.916723,122.964618 185.179048,121.999056 185.412531,121.026617 L185.412531,121.026617 Z M456.898316,10.5702127 C455.24608,8.73124406 453.218899,7.19212224 451.261762,5.58973 C449.340334,4.01622208 447.677111,2.08647417 445.213179,0.849950033 C444.070486,5.55671934 442.971742,10.0557966 441.899094,14.5617511 C441.820808,14.8904822 441.943043,15.2673539 441.977379,15.6923661 C445.659543,18.6578233 449.332093,21.6150278 453.209285,24.7372857 C454.268199,22.1431983 456.482167,13.532919 456.898316,10.5702127 L456.898316,10.5702127 Z M422.287896,1.88565935 C421.301773,6.40949461 419.869287,10.8329225 419.155103,15.2907364 C421.3004,17.4845696 428.686703,23.3700944 430.571048,24.4209336 C431.492619,22.7552709 433.990887,13.0418855 434.144711,10.5275739 C432.199935,8.46578337 424.725733,2.1717517 422.807052,1.00399976 C422.628506,1.29696933 422.356567,1.56793179 422.287896,1.88565935 L422.287896,1.88565935 Z M469.756362,15.6731098 C470.515868,16.3113158 471.346793,17.0127923 472.181838,17.7087669 C473.080061,18.4597593 473.894504,19.2437624 474.604567,20.224454 C475.177287,21.0180852 476.417494,21.3124302 477.330825,21.8763622 C477.790924,22.1610791 478.179604,22.5627087 478.610861,22.8983171 C479.320924,23.4498701 480.037854,23.9904196 480.942944,24.6808925 C481.247845,23.932651 481.628285,23.3879751 481.655754,22.826794 C481.695583,22.052419 481.238231,21.2051455 481.418151,20.4981673 C481.599443,19.7788101 482.514147,19.254766 482.729776,18.5326579 C483.507137,15.9303179 484.257029,13.3114725 484.69378,10.4560508 C481.993617,8.14117859 479.309936,5.82905725 476.613895,3.53344124 C475.644253,2.70817485 474.647144,1.91454368 473.645914,1.12641427 C473.531919,1.03563497 473.314917,1.07689829 473.144612,1.05626663 C472.148876,3.27073144 469.730267,13.5989403 469.756362,15.6731098 L469.756362,15.6731098 Z M158.822939,23.6149234 C159.820048,19.7292941 160.792436,15.8381631 161.79504,11.9539093 C162.051871,10.9580879 161.823882,10.1947165 161.024546,9.52762612 C157.735183,6.78223993 154.471915,4.00521853 151.186671,1.25433056 C151.010872,1.10715806 150.715585,1.10440717 150.318664,0.987494431 C149.007039,5.78916938 147.850611,10.537202 146.843888,15.2343432 C148.614238,17.0829399 156.17634,23.1720304 158.35872,24.4979584 C158.574348,24.0949533 158.757014,23.870756 158.822939,23.6149234 L158.822939,23.6149234 Z M126.025445,7.22513289 C125.449978,9.52212435 124.910221,11.8273685 124.327887,14.121609 C124.061441,15.1710728 124.535274,15.8326613 125.307142,16.4502357 C128.439934,18.9466665 131.543885,21.4802343 134.679424,23.9739143 C134.982952,24.214617 135.429316,24.2737611 135.81525,24.4195581 C137.120008,20.5091709 139.093626,12.3129002 139.182899,10.4959387 C136.739568,8.00363419 129.610096,2.05208807 127.640598,0.940729336 C127.063758,3.18132758 126.532241,5.19910391 126.025445,7.22513289 L126.025445,7.22513289 Z M493.865541,8.0572765 C493.262605,10.5151949 492.426187,12.93185 492.243521,15.4557897 C492.685765,15.8629211 493.001654,16.1889013 493.351878,16.4722428 C496.47643,18.9934316 499.607849,21.5077432 502.737895,24.0206794 C502.877985,24.1334658 503.044169,24.2173679 503.203487,24.3026454 C503.283146,24.3452841 503.376539,24.3837966 503.463065,24.3837966 C503.546845,24.3837966 503.630624,24.335656 503.897069,24.2476276 C504.081109,23.6809447 504.335193,23.0152298 504.510992,22.3288833 C505.172985,19.7678066 505.758066,17.1847228 506.472249,14.6374005 C506.902133,13.1065314 506.984538,11.5976693 506.76891,10.1108144 C503.750112,7.09171483 497.619123,1.99844576 495.732031,0.961360996 C494.81046,3.25972789 494.445128,5.69013741 493.865541,8.0572765 L493.865541,8.0572765 Z" id="Shape"></path>
        </g>
    </g>
</svg>