<?xml version="1.0" encoding="UTF-8" standalone="no"?>
<svg width="31px" height="25px" viewBox="0 0 31 25" version="1.1" xmlns="http://www.w3.org/2000/svg" xmlns:xlink="http://www.w3.org/1999/xlink">
    <defs></defs>
    <g id="Page-1" stroke="none" stroke-width="1" fill="none" fill-rule="evenodd">
        <path d="M31,3.43892305 C29.8594709,3.92089567 28.6336917,4.24667876 27.3471917,4.39297652 C28.6601019,3.6431378 29.6687306,2.4558394 30.1435121,1.04095874 C28.9145728,1.73531757 27.5535073,2.23951082 26.104784,2.51117593 C24.9446917,1.33362594 23.2917597,0.597979746 21.4624587,0.597979746 C17.357216,0.597979746 14.3393811,4.2476106 15.267199,8.03737477 C9.98139806,7.78477639 5.29498058,5.37254788 2.15818689,1.70707587 C0.492162621,4.4296764 1.29402427,7.99271847 4.12638592,9.79610174 C3.0839733,9.76470615 2.10303398,9.4921092 1.24571845,9.03816325 C1.17672087,11.8452738 3.28825728,14.4701036 6.34679854,15.0555814 C5.45171117,15.2876077 4.47129854,15.3407222 3.47478398,15.1593015 C4.28394417,17.5662974 6.63287136,19.3179998 9.41594903,19.3668135 C6.74204854,21.3630145 3.37433495,22.2546352 0,21.8758093 C2.81452913,23.5948259 6.15763835,24.5979797 9.74927427,24.5979797 C21.5572646,24.5979797 28.2285097,15.096797 27.8264126,6.57525736 C29.0691966,5.72105336 30.1473495,4.6539614 31,3.43892305 L31,3.43892305 Z" id="twitter-icon" fill="#FFFFFF"></path>
    </g>
</svg>